<?xml version="1.0" standalone="no"?>
<!DOCTYPE svg PUBLIC "-//W3C//DTD SVG 1.1//EN" "http://www.w3.org/Graphics/SVG/1.1/DTD/svg11.dtd" >
<svg>
<metadata>
Created by FontForge 20120731 at Mon Jan  7 03:42:47 2019
 By www-data
Spaced and kerned with iKern.
</metadata>
<defs>
<font id="MuseoSansCyrl-300" horiz-adv-x="381" >
  <font-face 
    font-family="Museo Sans Cyrl 300"
    font-weight="300"
    font-stretch="normal"
    units-per-em="1000"
    panose-1="2 0 0 0 0 0 0 0 0 0"
    ascent="750"
    descent="-250"
    x-height="503"
    cap-height="703"
    bbox="-117 -214 1088 883"
    underline-thickness="50"
    underline-position="-50"
    stemh="62"
    stemv="69"
    unicode-range="U+0020-FB04"
  />
<missing-glyph horiz-adv-x="510" 
d="M5 0v700h500v-700h-500zM255 395l170 255h-340zM285 350l170 -255v510zM55 95l170 255l-170 255v-510zM85 50h340l-170 255z" />
    <glyph glyph-name="f_f" unicode="ff" horiz-adv-x="642" 
d="M100 0v446h-63v57h63v19c0 165 117 186 174 186c9 0 20 0 31 -3v-60c-4 1 -13 2 -24 2c-39 0 -113 -14 -113 -126v-18h253v19c0 165 117 186 173 186c10 0 21 0 31 -3v-60c-3 1 -12 2 -24 2c-38 0 -112 -14 -112 -126v-18h128v-57h-128v-446h-68v446h-253v-446h-68z" />
    <glyph glyph-name="fi" unicode="fi" horiz-adv-x="546" 
d="M100 0v446h-63v57h63v19c0 165 117 186 174 186c11 0 21 -1 31 -3v-60c-4 1 -14 2 -24 2c-39 0 -113 -14 -113 -126v-18h297v-503h-67v446h-230v-446h-68zM395 618v85h73v-85h-73z" />
    <glyph glyph-name="fl" unicode="fl" horiz-adv-x="558" 
d="M392 119v584h68v-569c0 -66 31 -76 57 -76c4 0 10 0 16 1v-61c-6 -1 -14 -2 -25 -2c-41 0 -116 13 -116 123zM100 0v442h-63v57h63v23c0 165 118 186 174 186c12 0 21 -1 31 -3v-60c-4 1 -13 2 -24 2c-39 0 -112 -14 -112 -126v-22h128v-57h-128v-442h-69z" />
    <glyph glyph-name="f_f_i" unicode="ffi" horiz-adv-x="867" 
d="M100 0v446h-63v57h63v19c0 165 117 186 174 186c11 0 21 -1 31 -3v-60c-4 1 -14 2 -24 2c-39 0 -113 -14 -113 -126v-18h253v19c0 165 117 186 173 186c12 0 21 -1 31 -3v-60c-4 1 -13 2 -24 2c-38 0 -112 -14 -112 -126v-18h297v-503h-68v446h-229v-446h-68v446h-253
v-446h-68zM716 618v85h73v-85h-73z" />
    <glyph glyph-name="f_f_l" unicode="ffl" horiz-adv-x="878" 
d="M100 0v446h-63v57h63v19c0 165 117 186 174 186c11 0 21 -1 31 -3v-60c-4 1 -14 2 -24 2c-39 0 -113 -14 -113 -126v-18h253v19c0 165 117 186 173 186c12 0 21 -1 31 -3v-60c-4 1 -13 2 -24 2c-38 0 -112 -14 -112 -126v-18h128v-57h-128v-446h-68v446h-253v-446h-68z
M713 119v584h68v-569c0 -66 31 -76 57 -76c4 0 10 0 16 1v-61c-6 -1 -14 -2 -25 -2c-41 0 -116 13 -116 123z" />
    <glyph glyph-name="f_j" unicode="fj" horiz-adv-x="546" 
d="M100 0v446h-63v57h63v19c0 165 117 186 174 186c11 0 21 -1 31 -3v-60c-4 1 -14 2 -24 2c-39 0 -113 -14 -113 -126v-18h297v-521c0 -168 -118 -188 -175 -188c-9 0 -19 1 -29 3v60c4 -1 12 -2 22 -2c39 0 115 14 115 129v462h-230v-446h-68zM395 618v85h73v-85h-73z" />
    <glyph glyph-name=".notdef" horiz-adv-x="510" 
d="M5 0v700h500v-700h-500zM255 395l170 255h-340zM285 350l170 -255v510zM55 95l170 255l-170 255v-510zM85 50h340l-170 255z" />
    <glyph glyph-name="space" unicode=" " horiz-adv-x="250" 
 />
    <glyph glyph-name="exclam" unicode="!" horiz-adv-x="262" 
d="M98 184l-3 519h70l-3 -519h-64zM92 0v79h78v-79h-78z" />
    <glyph glyph-name="quotedbl" unicode="&#x22;" horiz-adv-x="338" 
d="M200 545v168h59v-168h-59zM79 545v168h59v-168h-59z" />
    <glyph glyph-name="numbersign" unicode="#" horiz-adv-x="726" 
d="M155 0l34 195h-142l10 56h142l35 196h-142l10 56h141l35 200h61l-35 -200h173l35 200h61l-35 -200h140l-9 -56h-140l-35 -196h140l-10 -56h-140l-34 -195h-61l34 195h-173l-34 -195h-61zM260 251h173l35 196h-174z" />
    <glyph glyph-name="dollar" unicode="$" horiz-adv-x="568" 
d="M66 78l41 53c44 -45 116 -77 184 -77c77 0 140 46 140 122c0 171 -354 136 -354 350c0 92 73 172 184 186v95h56v-94c61 -3 120 -23 167 -66l-34 -58c-38 35 -98 60 -154 60c-90 0 -148 -59 -148 -121c0 -162 354 -123 354 -350c0 -97 -69 -177 -185 -188v-93h-56v93
c-70 5 -145 35 -195 88z" />
    <glyph glyph-name="percent" unicode="%" horiz-adv-x="728" 
d="M195 437c-78 0 -140 62 -140 139c0 76 62 139 140 139c77 0 141 -63 141 -139c0 -77 -64 -139 -141 -139zM61 0l535 703h72l-535 -703h-72zM195 493c46 0 81 37 81 83c0 45 -35 83 -81 83s-81 -38 -81 -83c0 -46 35 -83 81 -83zM393 126c0 77 62 140 140 140
s141 -63 141 -140c0 -76 -63 -138 -141 -138s-140 62 -140 138zM452 127c0 -46 35 -83 81 -83s82 37 82 83c0 45 -36 83 -82 83s-81 -38 -81 -83z" />
    <glyph glyph-name="ampersand" unicode="&#x26;" horiz-adv-x="665" 
d="M60 194c0 81 46 160 128 185v2c-54 23 -97 72 -97 156c0 108 82 178 210 178c27 0 54 -4 80 -11l-19 -57c-16 4 -40 7 -58 7c-80 0 -142 -45 -142 -121c0 -47 20 -127 151 -127h148v99h69v-99h96v-62h-96v-103c0 -168 -91 -253 -233 -253c-140 0 -237 89 -237 206z
M132 198c0 -80 62 -145 165 -145c99 0 164 55 164 190v101h-148c-121 0 -181 -58 -181 -146z" />
    <glyph glyph-name="quotesingle" unicode="'" horiz-adv-x="217" 
d="M79 545v168h59v-168h-59z" />
    <glyph glyph-name="parenleft" unicode="(" horiz-adv-x="278" 
d="M170 -95c-69 120 -112 274 -112 432c0 144 41 276 112 393h64c-73 -122 -113 -253 -113 -394c0 -149 37 -296 113 -431h-64z" />
    <glyph glyph-name="parenright" unicode=")" horiz-adv-x="278" 
d="M44 -95c75 135 113 282 113 431c0 141 -41 272 -113 394h63c72 -117 113 -249 113 -393c0 -158 -43 -312 -113 -432h-63z" />
    <glyph glyph-name="asterisk" unicode="*" horiz-adv-x="496" 
d="M161 337l-53 38l95 120v2l-147 42l19 63l145 -53l-6 154h67l-6 -154l145 52l21 -61l-148 -43v-2l94 -120l-53 -39l-85 127h-2z" />
    <glyph glyph-name="plus" unicode="+" horiz-adv-x="568" 
d="M23 255v58h231v255h61v-255h230v-58h-230v-255h-61v255h-231z" />
    <glyph glyph-name="comma" unicode="," horiz-adv-x="262" 
d="M44 -97l57 179h78l-76 -179h-59z" />
    <glyph glyph-name="hyphen" unicode="-" horiz-adv-x="432" 
d="M74 253v62h284v-62h-284z" />
    <glyph glyph-name="period" unicode="." horiz-adv-x="230" 
d="M74 0v83h82v-83h-82z" />
    <glyph glyph-name="slash" unicode="/" horiz-adv-x="402" 
d="M42 -42l254 784h64l-254 -784h-64z" />
    <glyph glyph-name="zero" unicode="0" horiz-adv-x="617" 
d="M308 -12c-182 0 -242 161 -242 364c0 202 60 363 242 363c183 0 243 -161 243 -363c0 -203 -60 -364 -243 -364zM308 53c134 0 171 130 171 299c0 167 -37 297 -171 297c-133 0 -170 -130 -170 -297c0 -169 37 -299 170 -299z" />
    <glyph glyph-name="one" unicode="1" horiz-adv-x="472" 
d="M57 0v62h158v516c0 20 1 39 1 39h-2s-7 -14 -35 -42l-75 -74l-44 44l159 158h64v-641h155v-62h-381z" />
    <glyph glyph-name="two" unicode="2" horiz-adv-x="564" 
d="M62 0c-2 16 -4 31 -4 45c0 247 361 279 361 469c0 77 -58 135 -146 135c-66 0 -124 -41 -158 -96l-51 35c39 71 118 127 213 127c133 0 214 -87 214 -197c0 -236 -355 -269 -357 -456h368v-62h-440z" />
    <glyph glyph-name="three" unicode="3" horiz-adv-x="562" 
d="M49 84l43 53c39 -43 107 -82 180 -82c84 0 160 61 160 151c0 99 -85 150 -176 150h-49l-17 41l176 206c19 22 37 39 37 39v2s-20 -3 -57 -3h-264v62h411v-46l-209 -242c88 -4 219 -55 219 -207c0 -120 -98 -220 -231 -220c-82 0 -165 36 -223 96z" />
    <glyph glyph-name="four" unicode="4" horiz-adv-x="601" 
d="M38 195v45l345 463h75v-448h100v-60h-100v-195h-69v195h-351zM121 255h268v295c0 30 4 67 4 67h-2s-17 -29 -35 -54l-235 -306v-2z" />
    <glyph glyph-name="five" unicode="5" horiz-adv-x="555" 
d="M54 87l45 49c27 -39 79 -81 158 -81c97 0 175 68 175 164s-77 166 -178 166c-43 0 -93 -15 -128 -39l-44 16l38 341h340v-62h-279l-21 -180c-3 -25 -6 -40 -6 -40h2c19 12 65 27 106 27c141 0 242 -103 242 -229c0 -130 -107 -231 -244 -231c-81 0 -159 36 -206 99z" />
    <glyph glyph-name="six" unicode="6" horiz-adv-x="589" 
d="M62 317c0 177 91 398 308 398c45 0 90 -9 130 -29l-26 -61c-26 15 -68 24 -104 24c-145 0 -220 -145 -232 -281h2c34 50 105 82 178 82c128 0 218 -93 218 -230c0 -142 -97 -232 -220 -232c-153 0 -254 141 -254 329zM320 53c88 0 146 72 146 169c0 101 -63 166 -159 166
c-86 0 -170 -52 -170 -128c0 -72 62 -207 183 -207z" />
    <glyph glyph-name="seven" unicode="7" horiz-adv-x="527" 
d="M103 0l284 576c19 38 38 65 38 65v2s-17 -2 -52 -2h-329v62h457v-48l-326 -655h-72z" />
    <glyph glyph-name="eight" unicode="8" horiz-adv-x="595" 
d="M59 198c0 114 92 180 119 197c-49 32 -85 75 -85 140c0 94 71 180 213 180c130 0 215 -74 215 -182c0 -95 -70 -172 -91 -192c57 -33 100 -77 100 -150c0 -110 -96 -203 -233 -203c-126 0 -238 82 -238 210zM373 369c17 17 78 79 78 159c0 77 -61 123 -146 123
c-90 0 -142 -52 -142 -115c0 -93 113 -122 210 -167zM131 203c0 -91 82 -151 165 -151s163 57 163 138c0 96 -123 124 -225 173c-24 -15 -103 -69 -103 -160z" />
    <glyph glyph-name="nine" unicode="9" horiz-adv-x="589" 
d="M89 17l27 61c22 -12 62 -25 102 -25c147 0 221 145 234 282h-2c-35 -50 -106 -82 -178 -82c-129 0 -219 94 -219 228c0 145 98 234 221 234c152 0 253 -140 253 -330c0 -176 -91 -397 -309 -397c-43 0 -88 9 -129 29zM282 315c95 0 171 63 171 120c0 94 -73 214 -178 214
c-96 0 -152 -71 -152 -168c0 -100 63 -166 159 -166z" />
    <glyph glyph-name="colon" unicode=":" horiz-adv-x="227" 
d="M74 423v80h78v-80h-78zM74 0v80h78v-80h-78z" />
    <glyph glyph-name="semicolon" unicode=";" horiz-adv-x="281" 
d="M116 423v80h77v-80h-77zM66 -97l49 179h75l-66 -179h-58z" />
    <glyph glyph-name="less" unicode="&#x3c;" horiz-adv-x="568" 
d="M45 259v50l452 202v-67l-368 -159v-2l368 -159v-67z" />
    <glyph glyph-name="equal" unicode="=" horiz-adv-x="568" 
d="M51 342v58h466v-58h-466zM51 168v58h466v-58h-466z" />
    <glyph glyph-name="greater" unicode="&#x3e;" horiz-adv-x="568" 
d="M71 57v67l367 159v2l-367 159v67l451 -202v-50z" />
    <glyph glyph-name="question" unicode="?" horiz-adv-x="450" 
d="M157 184v45c0 159 174 174 174 307c0 64 -54 115 -131 115c-42 0 -87 -17 -120 -42l-38 50c36 32 99 57 161 57c114 0 200 -73 200 -177c0 -166 -179 -180 -179 -312v-43h-67zM151 0v79h79v-79h-79z" />
    <glyph glyph-name="at" unicode="@" horiz-adv-x="778" 
d="M60 242c0 204 159 368 355 368c182 0 245 -93 245 -190v-315h71v-56h-269c-115 0 -199 88 -199 192c0 103 83 192 199 192h130c-2 62 -54 118 -172 118c-164 0 -291 -141 -291 -309c0 -170 125 -306 296 -306v-60c-208 0 -365 162 -365 366zM333 242
c0 -76 58 -137 135 -137h124v275h-122c-79 0 -137 -63 -137 -138z" />
    <glyph glyph-name="A" unicode="A" horiz-adv-x="632" 
d="M21 0l258 703h74l258 -703h-73l-81 224h-283l-80 -224h-73zM195 284h241l-92 255c-12 33 -27 92 -27 92h-2s-15 -59 -27 -92z" />
    <glyph glyph-name="B" unicode="B" horiz-adv-x="616" 
d="M101 0v703h240c110 0 190 -67 190 -177c0 -73 -35 -126 -89 -153v-2c72 -20 118 -90 118 -174c0 -125 -93 -197 -211 -197h-248zM170 398h171c71 0 119 50 119 123c0 72 -46 120 -121 120h-169v-243zM170 62h180c85 0 138 53 138 137s-57 139 -139 139h-179v-276z" />
    <glyph glyph-name="C" unicode="C" horiz-adv-x="718" 
d="M55 356c0 204 147 359 353 359c89 0 187 -27 254 -91l-37 -51c-55 48 -139 77 -215 77c-171 0 -283 -128 -283 -293c0 -167 112 -304 286 -304c83 0 167 34 227 93l40 -49c-59 -58 -145 -109 -269 -109c-214 0 -356 163 -356 368z" />
    <glyph glyph-name="D" unicode="D" horiz-adv-x="738" 
d="M101 0v703h226c212 0 353 -129 353 -351c0 -223 -141 -352 -353 -352h-226zM170 62h150c173 0 288 101 288 290c0 187 -115 289 -288 289h-150v-579z" />
    <glyph glyph-name="E" unicode="E" horiz-adv-x="560" 
d="M101 0v703h395v-62h-326v-256h267v-62h-267v-261h345v-62h-414z" />
    <glyph glyph-name="F" unicode="F" horiz-adv-x="506" 
d="M101 0v703h369v-62h-300v-264h258v-62h-258v-315h-69z" />
    <glyph glyph-name="G" unicode="G" horiz-adv-x="758" 
d="M55 352c0 203 153 363 355 363c88 0 181 -26 250 -82l-38 -53c-49 41 -134 70 -209 70c-171 0 -286 -131 -286 -297c0 -173 119 -300 280 -300c84 0 166 40 221 102v119h-120v62h185v-336h-63v53c0 15 1 30 1 30h-2c-50 -55 -136 -95 -229 -95c-193 0 -345 155 -345 364z
" />
    <glyph glyph-name="H" unicode="H" horiz-adv-x="747" 
d="M101 0v703h69v-320h407v320h70v-703h-70v321h-407v-321h-69z" />
    <glyph glyph-name="I" unicode="I" horiz-adv-x="271" 
d="M101 0v703h69v-703h-69z" />
    <glyph glyph-name="J" unicode="J" horiz-adv-x="520" 
d="M32 197v28h69v-26c0 -77 38 -146 127 -146c65 0 129 37 129 144v444h-172v62h241v-506c0 -152 -100 -209 -197 -209s-197 58 -197 209z" />
    <glyph glyph-name="K" unicode="K" horiz-adv-x="591" 
d="M101 0v703h69v-305h118l190 305h79l-211 -332v-2l225 -369h-81l-202 336h-118v-336h-69z" />
    <glyph glyph-name="L" unicode="L" horiz-adv-x="517" 
d="M101 0v703h69v-641h326v-62h-395z" />
    <glyph glyph-name="M" unicode="M" horiz-adv-x="842" 
d="M74 0l56 703h71l185 -413c16 -36 34 -86 34 -86h2s18 50 34 86l185 413h71l56 -703h-69l-39 492c-3 38 -2 98 -2 98h-2s-21 -62 -37 -98l-166 -361h-64l-165 361c-16 35 -38 100 -38 100h-2s1 -62 -2 -100l-39 -492h-69z" />
    <glyph glyph-name="N" unicode="N" horiz-adv-x="751" 
d="M101 0v703h67l359 -506c24 -35 58 -95 58 -95h2s-6 58 -6 95v506h69v-703h-67l-359 506c-24 35 -58 95 -58 95h-2s6 -58 6 -95v-506h-69z" />
    <glyph glyph-name="O" unicode="O" horiz-adv-x="825" 
d="M54 357c0 201 153 358 358 358c206 0 358 -157 358 -358c0 -207 -152 -369 -358 -369c-205 0 -358 162 -358 369zM126 357c0 -172 122 -304 286 -304c165 0 286 132 286 304c0 166 -121 293 -286 293c-164 0 -286 -127 -286 -293z" />
    <glyph glyph-name="P" unicode="P" horiz-adv-x="597" 
d="M101 0v703h243c125 0 217 -82 217 -212c0 -131 -92 -215 -217 -215h-174v-276h-69zM170 338h165c94 0 155 57 155 153c0 95 -61 150 -154 150h-166v-303z" />
    <glyph glyph-name="Q" unicode="Q" horiz-adv-x="825" 
d="M55 356c0 202 153 359 357 359c208 0 359 -157 359 -359c0 -93 -32 -179 -88 -242l87 -87l-42 -44l-85 88c-63 -53 -142 -83 -231 -83c-206 0 -357 163 -357 368zM127 356c0 -170 124 -303 285 -303c67 0 133 23 182 65l-87 88l42 43l85 -87c41 51 65 121 65 194
c0 168 -124 294 -287 294c-161 0 -285 -126 -285 -294z" />
    <glyph glyph-name="R" unicode="R" horiz-adv-x="617" 
d="M101 0v703h213c67 0 100 -7 129 -20c63 -30 104 -91 104 -176c0 -95 -54 -172 -134 -194v-2s8 -9 19 -28l153 -283h-80l-158 296h-177v-296h-69zM170 358h167c85 0 139 59 139 147c0 56 -27 102 -74 123c-20 9 -42 13 -92 13h-140v-283z" />
    <glyph glyph-name="S" unicode="S" horiz-adv-x="534" 
d="M47 78l41 53c44 -43 112 -77 182 -77c83 0 142 47 142 120c0 177 -350 135 -350 353c0 115 97 188 221 188c66 0 138 -23 186 -68l-34 -58c-38 36 -99 60 -155 60c-80 0 -147 -44 -147 -118c0 -169 350 -124 350 -350c0 -108 -79 -193 -215 -193c-81 0 -163 32 -221 90z
" />
    <glyph glyph-name="T" unicode="T" horiz-adv-x="607" 
d="M269 0v641h-252v62h574v-62h-253v-641h-69z" />
    <glyph glyph-name="U" unicode="U" horiz-adv-x="723" 
d="M93 245v458h69v-457c0 -121 79 -193 199 -193c121 0 200 72 200 195v455h70v-458c0 -156 -110 -257 -269 -257s-269 101 -269 257z" />
    <glyph glyph-name="V" unicode="V" horiz-adv-x="632" 
d="M279 0l-260 703h74l195 -534c12 -36 27 -90 27 -90h2s14 54 27 90l195 534h74l-260 -703h-74z" />
    <glyph glyph-name="W" unicode="W" horiz-adv-x="927" 
d="M217 0l-182 703h73l136 -546c9 -36 16 -75 16 -75h2s7 38 18 75l150 546h66l150 -546c10 -37 17 -75 17 -75h2s6 39 15 75l143 546h72l-188 -703h-82l-136 495c-13 45 -25 105 -25 105h-3s-12 -60 -25 -105l-136 -495h-83z" />
    <glyph glyph-name="X" unicode="X" horiz-adv-x="576" 
d="M19 0l224 367l-205 336h81l123 -208c21 -36 46 -81 46 -81h2s21 45 43 81l124 208h81l-206 -336l225 -367h-79l-147 243c-21 37 -44 78 -44 78h-2s-21 -42 -43 -79l-144 -242h-79z" />
    <glyph glyph-name="Y" unicode="Y" horiz-adv-x="579" 
d="M255 0v302l-238 401h79l149 -255c21 -37 43 -84 43 -84h2s22 47 43 84l149 255h79l-237 -401v-302h-69z" />
    <glyph glyph-name="Z" unicode="Z" horiz-adv-x="579" 
d="M35 0v49l364 528c25 38 49 64 49 64v2s-17 -2 -52 -2h-341v62h479v-49l-364 -528c-25 -38 -49 -64 -49 -64v-2s17 2 52 2h364v-62h-502z" />
    <glyph glyph-name="bracketleft" unicode="[" horiz-adv-x="282" 
d="M92 -95v825h136v-56h-73v-713h73v-56h-136z" />
    <glyph glyph-name="backslash" unicode="\" horiz-adv-x="402" 
d="M296 -42l-254 784h64l254 -784h-64z" />
    <glyph glyph-name="bracketright" unicode="]" horiz-adv-x="282" 
d="M54 -39h73v713h-73v56h136v-825h-136v56z" />
    <glyph glyph-name="asciicircum" unicode="^" horiz-adv-x="606" 
d="M73 250l199 453h46l199 -453h-66l-156 370l-156 -370h-66z" />
    <glyph glyph-name="underscore" unicode="_" horiz-adv-x="589" 
d="M37 0h516v-58h-516v58z" />
    <glyph glyph-name="grave" unicode="`" horiz-adv-x="504" 
d="M264 752l-86 119h79l69 -119h-62z" />
    <glyph glyph-name="a" unicode="a" horiz-adv-x="517" 
d="M37 135c0 165 210 175 306 175h30v14c0 97 -53 130 -124 130c-51 0 -102 -18 -143 -48l-31 52c40 34 111 57 178 57c121 0 188 -67 188 -193v-322h-65v59c0 25 3 42 3 42h-2c-26 -61 -89 -113 -170 -113c-85 0 -170 50 -170 147zM106 141c0 -47 38 -96 113 -96
c97 0 154 100 154 188v23h-29c-78 0 -238 -3 -238 -115z" />
    <glyph glyph-name="b" unicode="b" horiz-adv-x="589" 
d="M81 0v703h68v-248c0 -24 -3 -42 -3 -42h2c30 62 95 102 172 102c136 0 219 -108 219 -263c0 -160 -94 -264 -227 -264c-71 0 -135 40 -167 103h-2s3 -17 3 -41v-50h-65zM147 250c0 -101 53 -201 160 -201c89 0 163 74 163 202c0 123 -66 202 -160 202
c-84 0 -163 -60 -163 -203z" />
    <glyph glyph-name="c" unicode="c" horiz-adv-x="542" 
d="M47 251c0 155 116 264 264 264c66 0 139 -23 184 -72l-35 -51c-35 36 -91 62 -147 62c-110 0 -196 -83 -196 -203c0 -118 86 -201 198 -201c58 0 121 25 161 69l31 -51c-44 -49 -119 -80 -196 -80c-149 0 -264 107 -264 263z" />
    <glyph glyph-name="d" unicode="d" horiz-adv-x="589" 
d="M49 252c0 159 94 263 227 263c70 0 134 -38 165 -99h2s-3 17 -3 38v249h68v-703h-66v57c0 22 3 36 3 36h-2c-28 -57 -88 -105 -175 -105c-134 0 -219 108 -219 264zM119 252c0 -124 66 -203 160 -203c84 0 162 60 162 204c0 101 -52 200 -159 200
c-89 0 -163 -73 -163 -201z" />
    <glyph glyph-name="e" unicode="e" horiz-adv-x="553" 
d="M47 251c0 165 113 264 249 264c139 0 210 -107 210 -232c0 -11 -1 -23 -2 -34h-386c3 -128 91 -199 195 -199c55 0 112 23 153 60l31 -52c-47 -43 -120 -70 -186 -70c-150 0 -264 108 -264 263zM121 303h316c-4 105 -68 156 -143 156c-84 0 -157 -55 -173 -156z" />
    <glyph glyph-name="f" unicode="f" horiz-adv-x="322" 
d="M100 0v442h-63v57h63v23c0 165 118 186 174 186c12 0 21 -1 31 -3v-60c-4 1 -13 2 -24 2c-39 0 -112 -14 -112 -126v-22h128v-57h-128v-442h-69z" />
    <glyph glyph-name="g" unicode="g" horiz-adv-x="582" 
d="M120 -114c39 -20 90 -34 137 -34c98 0 175 45 175 157v50c0 19 4 37 4 37h-2c-30 -57 -82 -93 -160 -93c-135 0 -224 107 -224 258s83 254 218 254c67 0 136 -26 167 -88h2s-2 6 -2 17v59h66v-491c0 -160 -118 -222 -242 -222c-57 0 -115 15 -164 41zM119 262
c0 -121 66 -198 165 -198c80 0 150 49 150 197c0 147 -70 193 -159 193c-98 0 -156 -72 -156 -192z" />
    <glyph glyph-name="h" unicode="h" horiz-adv-x="594" 
d="M81 0v703h68v-276c0 -23 -3 -41 -3 -41h2c19 47 87 129 201 129c125 0 169 -71 169 -195v-320h-68v302c0 79 -13 149 -110 149c-106 0 -191 -87 -191 -208v-243h-68z" />
    <glyph glyph-name="i" unicode="i" horiz-adv-x="230" 
d="M78 618v85h74v-85h-74zM81 0v503h68v-503h-68z" />
    <glyph glyph-name="j" unicode="j" horiz-adv-x="230" 
d="M78 618v85h74v-85h-74zM81 -16v519h68v-521c0 -168 -118 -188 -175 -188c-10 0 -19 1 -29 3v60c4 -1 12 -2 22 -2c38 0 114 14 114 129z" />
    <glyph glyph-name="k" unicode="k" horiz-adv-x="496" 
d="M81 0v703h68v-392h81l150 192h82l-175 -219v-2l193 -282h-82l-167 251h-82v-251h-68z" />
    <glyph glyph-name="l" unicode="l" horiz-adv-x="246" 
d="M81 119v584h68v-569c0 -66 31 -76 57 -76c4 0 10 0 16 1v-61c-6 -1 -14 -2 -25 -2c-41 0 -116 13 -116 123z" />
    <glyph glyph-name="m" unicode="m" horiz-adv-x="916" 
d="M81 0v503h67v-79c0 -22 -4 -40 -4 -40h2c25 68 106 131 185 131c93 0 141 -44 155 -126h2c28 64 101 126 185 126c122 0 167 -71 167 -195v-320h-68v303c0 83 -17 149 -108 149c-101 0 -169 -105 -169 -209v-243h-68v303c0 76 -11 149 -106 149
c-102 0 -172 -107 -172 -209v-243h-68z" />
    <glyph glyph-name="n" unicode="n" horiz-adv-x="594" 
d="M81 0v503h67v-79c0 -22 -4 -40 -4 -40h2c19 46 85 131 203 131c125 0 169 -71 169 -195v-320h-68v302c0 79 -13 149 -110 149c-107 0 -191 -88 -191 -205v-246h-68z" />
    <glyph glyph-name="o" unicode="o" horiz-adv-x="624" 
d="M47 254c0 149 118 261 265 261s266 -112 266 -261c0 -152 -119 -266 -266 -266s-265 114 -265 266zM117 254c0 -118 87 -204 195 -204s196 86 196 204c0 114 -88 200 -196 200s-195 -86 -195 -200z" />
    <glyph glyph-name="p" unicode="p" horiz-adv-x="589" 
d="M81 -200v703h65v-53c0 -22 -3 -39 -3 -39h2c31 65 97 104 175 104c136 0 219 -108 219 -263c0 -160 -94 -264 -225 -264c-71 0 -133 37 -166 100h-2s3 -18 3 -44v-244h-68zM147 250c0 -101 57 -201 160 -201c89 0 163 74 163 202c0 123 -66 202 -160 202
c-84 0 -163 -60 -163 -203z" />
    <glyph glyph-name="q" unicode="q" horiz-adv-x="589" 
d="M49 252c0 159 94 263 227 263c71 0 135 -38 167 -101h2s-3 16 -3 38v51h66v-703h-68v246c0 26 3 44 3 44h-2c-25 -49 -80 -102 -173 -102c-134 0 -219 108 -219 264zM119 252c0 -124 66 -203 160 -203c84 0 162 60 162 204c0 101 -52 200 -159 200
c-89 0 -163 -73 -163 -201z" />
    <glyph glyph-name="r" unicode="r" horiz-adv-x="357" 
d="M81 0v503h67v-93c0 -22 -4 -40 -4 -40h2c25 76 83 138 161 138c9 0 19 -1 27 -3v-67c-3 1 -15 2 -25 2c-113 0 -160 -127 -160 -227v-213h-68z" />
    <glyph glyph-name="s" unicode="s" horiz-adv-x="438" 
d="M37 61l36 48c38 -39 97 -61 152 -61c56 0 101 28 101 81c0 112 -268 81 -268 246c0 92 79 140 171 140c55 0 114 -16 155 -55l-32 -51c-29 29 -81 46 -126 46c-53 0 -101 -23 -101 -78c0 -115 269 -81 269 -247c0 -83 -71 -142 -170 -142c-67 0 -139 23 -187 73z" />
    <glyph glyph-name="t" unicode="t" horiz-adv-x="325" 
d="M99 183v259h-66v57h67v143h67v-143h127v-57h-127v-252c0 -117 75 -133 114 -133c7 0 14 0 23 2v-61c-6 -1 -16 -2 -29 -2c-58 0 -176 19 -176 187z" />
    <glyph glyph-name="u" unicode="u" horiz-adv-x="588" 
d="M75 183v320h69v-302c0 -79 12 -149 109 -149c115 0 186 101 186 210v241h68v-503h-67v79c0 22 4 40 4 40h-2c-19 -49 -87 -131 -198 -131c-119 0 -169 64 -169 195z" />
    <glyph glyph-name="v" unicode="v" horiz-adv-x="511" 
d="M219 0l-194 503h73l139 -369c9 -25 17 -61 17 -61h2s9 36 18 61l139 369h72l-192 -503h-74z" />
    <glyph glyph-name="w" unicode="w" horiz-adv-x="825" 
d="M199 0l-170 503h73l121 -374c8 -25 15 -54 15 -54h2s8 29 16 54l123 372h68l123 -372c8 -25 16 -54 16 -54h2s6 28 15 54l121 374h72l-169 -503h-75l-123 358c-8 25 -15 55 -15 55h-2s-8 -30 -16 -55l-122 -358h-75z" />
    <glyph glyph-name="x" unicode="x" horiz-adv-x="479" 
d="M20 0l176 262l-162 241h80l108 -169c8 -13 17 -29 17 -29h2s9 16 17 29l108 169h79l-162 -241l177 -262h-80l-122 189c-9 13 -17 28 -17 28h-2s-8 -14 -17 -28l-123 -189h-79z" />
    <glyph glyph-name="y" unicode="y" horiz-adv-x="526" 
d="M45 -126c0 0 28 -23 60 -23c44 0 76 36 96 82l30 72l-209 498h75l147 -367c10 -25 19 -53 19 -53h2s7 28 17 53l145 367h73l-248 -608c-26 -64 -77 -105 -144 -105c-52 0 -89 30 -89 30z" />
    <glyph glyph-name="z" unicode="z" horiz-adv-x="498" 
d="M37 0v44l281 353c19 24 40 46 40 46v2s-17 -2 -50 -2h-259v60h401v-45l-281 -352c-19 -25 -41 -46 -41 -46v-2s17 2 50 2h282v-60h-423z" />
    <glyph glyph-name="braceleft" unicode="{" horiz-adv-x="340" 
d="M129 83v95c0 58 -28 103 -85 114v62c54 11 85 53 85 115v82c0 165 109 179 149 179h15v-56h-9c-25 0 -92 -9 -92 -125v-98c0 -56 -29 -105 -80 -127v-2c47 -18 80 -61 80 -127v-110c0 -116 67 -125 92 -125h9v-56s-6 -1 -15 -1c-40 0 -149 14 -149 180z" />
    <glyph glyph-name="bar" unicode="|" horiz-adv-x="244" 
d="M90 -157v945h63v-945h-63z" />
    <glyph glyph-name="braceright" unicode="}" horiz-adv-x="340" 
d="M47 -40h9c24 0 92 9 92 125v110c0 60 28 108 80 127v2c-44 17 -80 64 -80 127v98c0 116 -68 125 -92 125h-9v56h15c40 0 149 -14 149 -179v-82c0 -58 28 -105 85 -115v-62c-56 -9 -85 -57 -85 -114v-95c0 -166 -109 -180 -149 -180c-10 0 -15 1 -15 1v56z" />
    <glyph glyph-name="asciitilde" unicode="~" horiz-adv-x="602" 
d="M74 209c0 110 51 155 126 155c110 0 115 -104 200 -104c60 0 71 63 71 100h58c0 -109 -51 -155 -126 -155c-110 0 -114 104 -200 104c-59 0 -70 -63 -70 -100h-59z" />
    <glyph glyph-name="exclamdown" unicode="&#xa1;" horiz-adv-x="240" 
d="M151 318l3 -519h-70l3 519h64zM157 502v-79h-78v79h78z" />
    <glyph glyph-name="cent" unicode="&#xa2;" horiz-adv-x="568" 
d="M267 -13v85c-137 15 -210 134 -210 280c0 145 73 264 210 279v84h56v-84c87 -10 150 -67 186 -148l-63 -24c-29 63 -76 107 -149 107c-116 0 -170 -94 -170 -214c0 -122 54 -215 170 -215c73 0 120 44 149 107l63 -24c-35 -77 -96 -140 -186 -148v-85h-56z" />
    <glyph glyph-name="sterling" unicode="&#xa3;" horiz-adv-x="568" 
d="M49 0v62h63v264h-44v55h44v149c0 105 86 185 206 185c58 0 115 -22 157 -57l-43 -50c-28 24 -74 42 -113 42c-88 0 -137 -57 -137 -124v-145h191v-55h-191v-264h339v-62h-472z" />
    <glyph glyph-name="yen" unicode="&#xa5;" horiz-adv-x="568" 
d="M86 211v51h163v40l-28 48h-135v51h107l-176 302h79l144 -250c21 -40 43 -89 43 -89h2s21 49 43 89l144 250h79l-176 -302h105v-51h-133l-28 -48v-40h161v-51h-161v-211h-70v211h-163z" />
    <glyph glyph-name="section" unicode="&#xa7;" horiz-adv-x="415" 
d="M142 85l-69 434c-2 12 -3 24 -3 35c0 92 68 161 172 161c40 0 86 -16 116 -42l-35 -47c-22 17 -53 29 -81 29c-61 0 -110 -39 -110 -107c0 -10 1 -20 4 -30l66 -433h-60zM57 -20l35 48c19 -16 52 -30 82 -30c60 0 109 40 109 109c0 10 -1 21 -4 32l-65 429h60l68 -434
c2 -13 3 -24 3 -35c0 -93 -69 -161 -172 -161c-42 0 -84 15 -116 42z" />
    <glyph glyph-name="dieresis" unicode="&#xa8;" horiz-adv-x="504" 
d="M297 785v86h62v-86h-62zM146 785v86h61v-86h-61z" />
    <glyph glyph-name="copyright" unicode="&#xa9;" horiz-adv-x="829" 
d="M60 352c0 202 158 363 353 363c199 0 357 -161 357 -363c0 -203 -158 -364 -357 -364c-195 0 -353 161 -353 364zM118 352c0 -175 129 -310 295 -310c169 0 299 135 299 310c0 173 -130 309 -299 309c-166 0 -295 -136 -295 -309zM217 350c0 106 74 206 206 206
c67 0 129 -37 163 -93l-46 -31c-23 37 -67 69 -115 69c-97 0 -149 -73 -149 -150s51 -150 149 -150c47 0 90 29 115 69l46 -31c-30 -50 -94 -93 -163 -93c-133 0 -206 99 -206 204z" />
    <glyph glyph-name="ordfeminine" unicode="&#xaa;" horiz-adv-x="425" 
d="M190 382c-53 0 -110 31 -110 95c0 108 137 111 192 111h12v4c0 55 -30 74 -70 74c-30 0 -61 -12 -85 -28l-25 38c30 24 76 37 115 37c78 0 120 -43 120 -123v-202h-53v49h-2c-15 -28 -50 -55 -94 -55zM198 429c54 0 86 57 86 106v9h-13c-41 0 -134 -2 -134 -63
c0 -27 20 -52 61 -52zM79 264v46h263v-46h-263z" />
    <glyph glyph-name="guillemotleft" unicode="&#xab;" horiz-adv-x="526" 
d="M230 282l164 206h74l-164 -206l164 -205h-74zM214 77l-164 205l164 206h74l-164 -206l164 -205h-74z" />
    <glyph glyph-name="logicalnot" unicode="&#xac;" horiz-adv-x="627" 
d="M81 342v58h467v-242h-61v184h-406z" />
    <glyph glyph-name="registered" unicode="&#xae;" horiz-adv-x="829" 
d="M60 352c0 202 158 363 353 363c199 0 357 -161 357 -363c0 -203 -158 -364 -357 -364c-195 0 -353 161 -353 364zM118 352c0 -175 129 -310 295 -310c169 0 299 135 299 310c0 173 -130 309 -299 309c-166 0 -295 -136 -295 -309zM294 157v390h139c70 0 118 -46 118 -116
c0 -58 -37 -94 -74 -103v-2s4 -5 13 -22l76 -147h-63l-77 158h-75v-158h-57zM351 359h73c42 0 69 28 69 72s-27 69 -69 69h-73v-141z" />
    <glyph glyph-name="macron" unicode="&#xaf;" horiz-adv-x="504" 
d="M129 785v55h246v-55h-246z" />
    <glyph glyph-name="degree" unicode="&#xb0;" horiz-adv-x="398" 
d="M199 436c-78 0 -140 62 -140 139c0 76 62 139 140 139c77 0 141 -63 141 -139c0 -77 -64 -139 -141 -139zM199 492c46 0 81 37 81 83c0 45 -35 83 -81 83s-81 -38 -81 -83c0 -46 35 -83 81 -83z" />
    <glyph glyph-name="plusminus" unicode="&#xb1;" horiz-adv-x="568" 
d="M23 255v58h231v255h61v-255h230v-58h-230v-255h-61v255h-231zM41 -104h486v-58h-486v58z" />
    <glyph glyph-name="twosuperior" unicode="&#xb2;" 
d="M51 423c-2 11 -3 22 -3 31c0 166 217 174 217 286c0 42 -34 77 -82 77c-37 0 -68 -23 -90 -49l-35 35c24 36 74 66 126 66c85 0 137 -56 137 -127c0 -148 -209 -155 -214 -269h222v-50h-278z" />
    <glyph glyph-name="threesuperior" unicode="&#xb3;" 
d="M181 413c-52 0 -110 21 -143 66l35 38c18 -26 58 -52 107 -52c46 0 93 37 93 89c0 54 -50 84 -98 84h-33l-14 30l99 116c11 12 25 25 25 25v2s-18 -3 -37 -3h-153v51h262v-37l-119 -139c57 -6 125 -41 125 -129c0 -77 -65 -141 -149 -141z" />
    <glyph glyph-name="acute" unicode="&#xb4;" horiz-adv-x="504" 
d="M178 752l69 119h79l-87 -119h-61z" />
    <glyph glyph-name="mu" unicode="&#xb5;" horiz-adv-x="589" 
d="M145 30c0 0 7 -51 7 -76v-154h-63v703h68v-302c0 -79 13 -149 109 -149c116 0 186 101 186 210v241h68v-503h-66v77c0 20 2 38 2 38h-2s-49 -127 -198 -127c-37 0 -84 10 -109 42h-2z" />
    <glyph glyph-name="mu" unicode="&#x3bc;" horiz-adv-x="589" 
d="M145 30c0 0 7 -51 7 -76v-154h-63v703h68v-302c0 -79 13 -149 109 -149c116 0 186 101 186 210v241h68v-503h-66v77c0 20 2 38 2 38h-2s-49 -127 -198 -127c-37 0 -84 10 -109 42h-2z" />
    <glyph glyph-name="paragraph" unicode="&#xb6;" horiz-adv-x="568" 
d="M279 -50v291c-129 0 -239 102 -239 232c0 129 109 230 238 230h239v-62h-181v-691h-57zM398 -50v631h58v-631h-58z" />
    <glyph glyph-name="periodcentered" unicode="&#xb7;" horiz-adv-x="229" 
d="M74 247v83h80v-83h-80z" />
    <glyph glyph-name="cedilla" unicode="&#xb8;" horiz-adv-x="504" 
d="M200 -91l26 111l40 -7v-8l-11 -60c41 -6 70 -31 70 -71c0 -58 -47 -79 -96 -79c-17 0 -34 1 -50 5v48c10 -4 29 -6 42 -6c26 0 51 7 51 34c0 22 -22 34 -57 34c-8 0 -15 -1 -15 -1z" />
    <glyph glyph-name="onesuperior" unicode="&#xb9;" 
d="M78 423v50h95v289c0 13 1 24 1 24h-1s-4 -8 -21 -24l-40 -39l-35 37l99 99h52v-386h92v-50h-242z" />
    <glyph glyph-name="ordmasculine" unicode="&#xba;" horiz-adv-x="486" 
d="M242 383c-92 0 -167 72 -167 167c0 93 75 164 167 164s167 -71 167 -164c0 -95 -75 -167 -167 -167zM242 434c62 0 112 49 112 116c0 66 -50 114 -112 114s-112 -48 -112 -114c0 -67 50 -116 112 -116zM92 264v46h303v-46h-303z" />
    <glyph glyph-name="guillemotright" unicode="&#xbb;" horiz-adv-x="526" 
d="M237 77l164 205l-164 206h74l164 -206l-164 -205h-74zM58 77l164 205l-164 206h74l164 -206l-164 -205h-74z" />
    <glyph glyph-name="onequarter" unicode="&#xbc;" horiz-adv-x="931" 
d="M768 0v114h-211v38l212 284h54v-272h65v-50h-65v-114h-55zM625 164h143v136c0 27 4 62 4 62h-2s-16 -27 -33 -49l-112 -147v-2zM314 0h-59l336 703h58zM62 268v50h95v289c0 13 1 24 1 24h-1s-4 -8 -21 -24l-40 -39l-35 37l99 99h52v-386h92v-50h-242z" />
    <glyph glyph-name="onehalf" unicode="&#xbd;" horiz-adv-x="920" 
d="M588 0c-2 11 -3 22 -3 31c0 166 217 174 217 286c0 42 -34 77 -82 77c-37 0 -68 -23 -90 -49l-35 35c24 36 74 66 126 66c85 0 137 -56 137 -127c0 -148 -209 -155 -214 -269h222v-50h-278zM314 0h-59l336 703h58zM62 268v50h95v289c0 13 1 24 1 24h-1s-4 -8 -21 -24
l-40 -39l-35 37l99 99h52v-386h92v-50h-242z" />
    <glyph glyph-name="threequarters" unicode="&#xbe;" horiz-adv-x="951" 
d="M788 0v114h-211v38l212 284h54v-272h65v-50h-65v-114h-55zM645 164h143v136c0 27 4 62 4 62h-2s-16 -27 -33 -49l-112 -147v-2zM190 258c-52 0 -110 21 -143 66l35 38c18 -26 58 -52 107 -52c46 0 93 37 93 89c0 54 -50 84 -98 84h-33l-14 30l99 116c11 12 25 25 25 25v2
s-18 -3 -37 -3h-153v51h262v-37l-119 -139c57 -6 125 -41 125 -129c0 -77 -65 -141 -149 -141zM333 0h-59l336 703h58z" />
    <glyph glyph-name="questiondown" unicode="&#xbf;" horiz-adv-x="440" 
d="M287 318v-45c0 -159 -174 -174 -174 -307c0 -64 54 -115 131 -115c42 0 87 17 120 42l38 -50c-36 -32 -99 -57 -161 -57c-114 0 -200 73 -200 177c0 166 179 180 179 312v43h67zM293 502v-79h-79v79h79z" />
    <glyph glyph-name="Agrave" unicode="&#xc0;" horiz-adv-x="632" 
d="M21 0l258 703h74l258 -703h-73l-81 224h-283l-80 -224h-73zM195 284h241l-92 255c-12 33 -27 92 -27 92h-2s-15 -59 -27 -92zM285 752l-86 119h79l69 -119h-62z" />
    <glyph glyph-name="Aacute" unicode="&#xc1;" horiz-adv-x="632" 
d="M21 0l258 703h74l258 -703h-73l-81 224h-283l-80 -224h-73zM195 284h241l-92 255c-12 33 -27 92 -27 92h-2s-15 -59 -27 -92zM283 752l69 119h79l-87 -119h-61z" />
    <glyph glyph-name="Acircumflex" unicode="&#xc2;" horiz-adv-x="632" 
d="M21 0l258 703h74l258 -703h-73l-81 224h-283l-80 -224h-73zM195 284h241l-92 255c-12 33 -27 92 -27 92h-2s-15 -59 -27 -92zM195 752l83 119h75l84 -119h-66l-54 80h-2l-54 -80h-66z" />
    <glyph glyph-name="Atilde" unicode="&#xc3;" horiz-adv-x="632" 
d="M21 0l258 703h74l258 -703h-73l-81 224h-283l-80 -224h-73zM195 284h241l-92 255c-12 33 -27 92 -27 92h-2s-15 -59 -27 -92zM160 755c0 77 31 116 92 116c67 0 81 -71 126 -71c33 0 40 43 40 68h54c0 -76 -31 -116 -92 -116c-67 0 -81 71 -126 71c-33 0 -39 -42 -39 -68
h-55z" />
    <glyph glyph-name="Adieresis" unicode="&#xc4;" horiz-adv-x="632" 
d="M21 0l258 703h74l258 -703h-73l-81 224h-283l-80 -224h-73zM195 284h241l-92 255c-12 33 -27 92 -27 92h-2s-15 -59 -27 -92zM361 785v86h62v-86h-62zM210 785v86h61v-86h-61z" />
    <glyph glyph-name="Aring" unicode="&#xc5;" horiz-adv-x="632" 
d="M21 0l258 703h74l258 -703h-73l-81 224h-283l-80 -224h-73zM195 284h241l-92 255c-12 33 -27 92 -27 92h-2s-15 -59 -27 -92zM316 742c-42 0 -76 28 -76 70s34 71 76 71c40 0 75 -29 75 -71s-35 -70 -75 -70zM316 779c19 0 32 14 32 33c0 20 -13 34 -32 34
c-20 0 -33 -14 -33 -34c0 -19 13 -33 33 -33z" />
    <glyph glyph-name="AE" unicode="&#xc6;" horiz-adv-x="850" 
d="M17 0l289 703h481v-62h-327v-256h267v-62h-267v-261h345v-62h-414v324h-171l-130 -324h-73zM245 384h146v257h-41z" />
    <glyph glyph-name="Ccedilla" unicode="&#xc7;" horiz-adv-x="719" 
d="M359 -91l19 80c-196 16 -323 172 -323 367c0 204 147 359 353 359c89 0 187 -27 254 -91l-37 -51c-55 48 -139 77 -215 77c-171 0 -283 -128 -283 -293c0 -167 112 -304 286 -304c83 0 167 34 227 93l40 -49c-57 -56 -140 -106 -258 -109l-8 -43c41 -6 70 -31 70 -71
c0 -58 -47 -79 -96 -79c-17 0 -34 1 -50 5v48c10 -4 29 -6 42 -6c26 0 51 7 51 34c0 22 -22 34 -57 34c-8 0 -15 -1 -15 -1z" />
    <glyph glyph-name="Egrave" unicode="&#xc8;" horiz-adv-x="560" 
d="M101 0v703h395v-62h-326v-256h267v-62h-267v-261h345v-62h-414zM279 752l-86 119h79l69 -119h-62z" />
    <glyph glyph-name="Eacute" unicode="&#xc9;" horiz-adv-x="560" 
d="M277 752l69 119h79l-87 -119h-61zM101 0v703h395v-62h-326v-256h267v-62h-267v-261h345v-62h-414z" />
    <glyph glyph-name="Ecircumflex" unicode="&#xca;" horiz-adv-x="560" 
d="M189 752l83 119h75l84 -119h-66l-54 80h-2l-54 -80h-66zM101 0v703h395v-62h-326v-256h267v-62h-267v-261h345v-62h-414z" />
    <glyph glyph-name="Edieresis" unicode="&#xcb;" horiz-adv-x="560" 
d="M355 785v86h62v-86h-62zM204 785v86h61v-86h-61zM101 0v703h395v-62h-326v-256h267v-62h-267v-261h345v-62h-414z" />
    <glyph glyph-name="Igrave" unicode="&#xcc;" horiz-adv-x="271" 
d="M101 0v703h69v-703h-69zM106 752l-86 119h79l69 -119h-62z" />
    <glyph glyph-name="Iacute" unicode="&#xcd;" horiz-adv-x="271" 
d="M101 0v703h69v-703h-69zM104 752l69 119h79l-87 -119h-61z" />
    <glyph glyph-name="Icircumflex" unicode="&#xce;" horiz-adv-x="271" 
d="M101 0v703h69v-703h-69zM16 752l83 119h75l84 -119h-66l-54 80h-2l-54 -80h-66z" />
    <glyph glyph-name="Idieresis" unicode="&#xcf;" horiz-adv-x="271" 
d="M101 0v703h69v-703h-69zM182 785v86h62v-86h-62zM31 785v86h61v-86h-61z" />
    <glyph glyph-name="Eth" unicode="&#xd0;" horiz-adv-x="744" 
d="M107 0v323h-60v60h60v320h226c212 0 353 -129 353 -351c0 -223 -141 -352 -353 -352h-226zM176 62h150c173 0 288 101 288 290c0 187 -115 289 -288 289h-150v-258h167v-60h-167v-261z" />
    <glyph glyph-name="Ntilde" unicode="&#xd1;" horiz-adv-x="751" 
d="M101 0v703h67l359 -506c24 -35 58 -95 58 -95h2s-6 58 -6 95v506h69v-703h-67l-359 506c-24 35 -58 95 -58 95h-2s6 -58 6 -95v-506h-69zM219 755c0 77 31 116 92 116c67 0 81 -71 126 -71c33 0 40 43 40 68h54c0 -76 -31 -116 -92 -116c-67 0 -81 71 -126 71
c-33 0 -39 -42 -39 -68h-55z" />
    <glyph glyph-name="Ograve" unicode="&#xd2;" horiz-adv-x="825" 
d="M54 357c0 201 153 358 358 358c206 0 358 -157 358 -358c0 -207 -152 -369 -358 -369c-205 0 -358 162 -358 369zM126 357c0 -172 122 -304 286 -304c165 0 286 132 286 304c0 166 -121 293 -286 293c-164 0 -286 -127 -286 -293zM381 752l-86 119h79l69 -119h-62z" />
    <glyph glyph-name="Oacute" unicode="&#xd3;" horiz-adv-x="825" 
d="M379 752l69 119h79l-87 -119h-61zM54 357c0 201 153 358 358 358c206 0 358 -157 358 -358c0 -207 -152 -369 -358 -369c-205 0 -358 162 -358 369zM126 357c0 -172 122 -304 286 -304c165 0 286 132 286 304c0 166 -121 293 -286 293c-164 0 -286 -127 -286 -293z" />
    <glyph glyph-name="Ocircumflex" unicode="&#xd4;" horiz-adv-x="825" 
d="M291 752l83 119h75l84 -119h-66l-54 80h-2l-54 -80h-66zM54 357c0 201 153 358 358 358c206 0 358 -157 358 -358c0 -207 -152 -369 -358 -369c-205 0 -358 162 -358 369zM126 357c0 -172 122 -304 286 -304c165 0 286 132 286 304c0 166 -121 293 -286 293
c-164 0 -286 -127 -286 -293z" />
    <glyph glyph-name="Otilde" unicode="&#xd5;" horiz-adv-x="825" 
d="M54 357c0 201 153 358 358 358c206 0 358 -157 358 -358c0 -207 -152 -369 -358 -369c-205 0 -358 162 -358 369zM126 357c0 -172 122 -304 286 -304c165 0 286 132 286 304c0 166 -121 293 -286 293c-164 0 -286 -127 -286 -293zM256 755c0 77 31 116 92 116
c67 0 81 -71 126 -71c33 0 40 43 40 68h54c0 -76 -31 -116 -92 -116c-67 0 -81 71 -126 71c-33 0 -39 -42 -39 -68h-55z" />
    <glyph glyph-name="Odieresis" unicode="&#xd6;" horiz-adv-x="825" 
d="M457 785v86h62v-86h-62zM306 785v86h61v-86h-61zM54 357c0 201 153 358 358 358c206 0 358 -157 358 -358c0 -207 -152 -369 -358 -369c-205 0 -358 162 -358 369zM126 357c0 -172 122 -304 286 -304c165 0 286 132 286 304c0 166 -121 293 -286 293
c-164 0 -286 -127 -286 -293z" />
    <glyph glyph-name="multiply" unicode="&#xd7;" horiz-adv-x="568" 
d="M28 41l216 243l-216 243l42 41l214 -240l213 240l43 -41l-217 -243l217 -243l-43 -41l-213 240l-214 -240z" />
    <glyph glyph-name="Oslash" unicode="&#xd8;" horiz-adv-x="824" 
d="M131 5l49 69c-77 67 -126 168 -126 282c0 203 159 359 358 359c70 0 134 -20 189 -54l48 67l41 -30l-47 -66c78 -65 127 -162 127 -276c0 -206 -158 -368 -358 -368c-71 0 -135 20 -191 56l-49 -68zM221 131l341 476c-43 28 -94 43 -150 43c-158 0 -286 -126 -286 -294
c0 -92 39 -173 95 -225zM259 98c44 -29 97 -45 153 -45c159 0 286 131 286 302c0 91 -37 169 -96 222z" />
    <glyph glyph-name="Ugrave" unicode="&#xd9;" horiz-adv-x="723" 
d="M93 245v458h69v-457c0 -121 79 -193 199 -193c121 0 200 72 200 195v455h70v-458c0 -156 -110 -257 -269 -257s-269 101 -269 257zM330 752l-86 119h79l69 -119h-62z" />
    <glyph glyph-name="Uacute" unicode="&#xda;" horiz-adv-x="723" 
d="M328 752l69 119h79l-87 -119h-61zM93 245v458h69v-457c0 -121 79 -193 199 -193c121 0 200 72 200 195v455h70v-458c0 -156 -110 -257 -269 -257s-269 101 -269 257z" />
    <glyph glyph-name="Ucircumflex" unicode="&#xdb;" horiz-adv-x="723" 
d="M240 752l83 119h75l84 -119h-66l-54 80h-2l-54 -80h-66zM93 245v458h69v-457c0 -121 79 -193 199 -193c121 0 200 72 200 195v455h70v-458c0 -156 -110 -257 -269 -257s-269 101 -269 257z" />
    <glyph glyph-name="Udieresis" unicode="&#xdc;" horiz-adv-x="723" 
d="M406 785v86h62v-86h-62zM255 785v86h61v-86h-61zM93 245v458h69v-457c0 -121 79 -193 199 -193c121 0 200 72 200 195v455h70v-458c0 -156 -110 -257 -269 -257s-269 101 -269 257z" />
    <glyph glyph-name="Yacute" unicode="&#xdd;" horiz-adv-x="579" 
d="M255 0v302l-238 401h79l149 -255c21 -37 43 -84 43 -84h2s22 47 43 84l149 255h79l-237 -401v-302h-69zM256 752l69 119h79l-87 -119h-61z" />
    <glyph glyph-name="Thorn" unicode="&#xde;" horiz-adv-x="600" 
d="M101 0v703h69v-125h174c125 0 217 -82 217 -213c0 -130 -92 -214 -219 -214h-172v-151h-69zM170 213h165c94 0 155 57 155 152c0 96 -61 151 -154 151h-166v-303z" />
    <glyph glyph-name="germandbls" unicode="&#xdf;" horiz-adv-x="574" 
d="M81 0v531c0 120 101 184 202 184c107 0 174 -70 174 -149c0 -103 -111 -134 -111 -197c0 -68 196 -106 196 -233c0 -96 -78 -143 -162 -143c-50 0 -104 8 -148 32v65c39 -23 95 -35 143 -35c51 0 97 25 97 83c0 94 -196 123 -196 229c0 87 112 117 112 198
c0 42 -36 89 -108 89c-65 0 -131 -44 -131 -128v-526h-68z" />
    <glyph glyph-name="agrave" unicode="&#xe0;" horiz-adv-x="517" 
d="M37 135c0 165 210 175 306 175h30v14c0 97 -53 130 -124 130c-51 0 -102 -18 -143 -48l-31 52c40 34 111 57 178 57c121 0 188 -67 188 -193v-322h-65v59c0 25 3 42 3 42h-2c-26 -61 -89 -113 -170 -113c-85 0 -170 50 -170 147zM106 141c0 -47 38 -96 113 -96
c97 0 154 100 154 188v23h-29c-78 0 -238 -3 -238 -115zM225 585l-86 119h79l69 -119h-62z" />
    <glyph glyph-name="aacute" unicode="&#xe1;" horiz-adv-x="517" 
d="M37 135c0 165 210 175 306 175h30v14c0 97 -53 130 -124 130c-51 0 -102 -18 -143 -48l-31 52c40 34 111 57 178 57c121 0 188 -67 188 -193v-322h-65v59c0 25 3 42 3 42h-2c-26 -61 -89 -113 -170 -113c-85 0 -170 50 -170 147zM106 141c0 -47 38 -96 113 -96
c97 0 154 100 154 188v23h-29c-78 0 -238 -3 -238 -115zM221 585l69 119h79l-87 -119h-61z" />
    <glyph glyph-name="acircumflex" unicode="&#xe2;" horiz-adv-x="517" 
d="M37 135c0 165 210 175 306 175h30v14c0 97 -53 130 -124 130c-51 0 -102 -18 -143 -48l-31 52c40 34 111 57 178 57c121 0 188 -67 188 -193v-322h-65v59c0 25 3 42 3 42h-2c-26 -61 -89 -113 -170 -113c-85 0 -170 50 -170 147zM106 141c0 -47 38 -96 113 -96
c97 0 154 100 154 188v23h-29c-78 0 -238 -3 -238 -115zM133 585l83 119h75l84 -119h-66l-54 80h-2l-54 -80h-66z" />
    <glyph glyph-name="atilde" unicode="&#xe3;" horiz-adv-x="517" 
d="M37 135c0 165 210 175 306 175h30v14c0 97 -53 130 -124 130c-51 0 -102 -18 -143 -48l-31 52c40 34 111 57 178 57c121 0 188 -67 188 -193v-322h-65v59c0 25 3 42 3 42h-2c-26 -61 -89 -113 -170 -113c-85 0 -170 50 -170 147zM106 141c0 -47 38 -96 113 -96
c97 0 154 100 154 188v23h-29c-78 0 -238 -3 -238 -115zM98 588c0 77 31 116 92 116c67 0 81 -71 126 -71c33 0 40 43 40 68h54c0 -76 -31 -116 -92 -116c-67 0 -81 71 -126 71c-33 0 -39 -42 -39 -68h-55z" />
    <glyph glyph-name="adieresis" unicode="&#xe4;" horiz-adv-x="517" 
d="M37 135c0 165 210 175 306 175h30v14c0 97 -53 130 -124 130c-51 0 -102 -18 -143 -48l-31 52c40 34 111 57 178 57c121 0 188 -67 188 -193v-322h-65v59c0 25 3 42 3 42h-2c-26 -61 -89 -113 -170 -113c-85 0 -170 50 -170 147zM106 141c0 -47 38 -96 113 -96
c97 0 154 100 154 188v23h-29c-78 0 -238 -3 -238 -115zM299 618v86h62v-86h-62zM148 618v86h61v-86h-61z" />
    <glyph glyph-name="aring" unicode="&#xe5;" horiz-adv-x="517" 
d="M37 135c0 165 210 175 306 175h30v14c0 97 -53 130 -124 130c-51 0 -102 -18 -143 -48l-31 52c40 34 111 57 178 57c121 0 188 -67 188 -193v-322h-65v59c0 25 3 42 3 42h-2c-26 -61 -89 -113 -170 -113c-85 0 -170 50 -170 147zM106 141c0 -47 38 -96 113 -96
c97 0 154 100 154 188v23h-29c-78 0 -238 -3 -238 -115zM254 575c-42 0 -76 28 -76 70s34 71 76 71c40 0 75 -29 75 -71s-35 -70 -75 -70zM254 612c19 0 32 14 32 33c0 20 -13 34 -32 34c-20 0 -33 -14 -33 -34c0 -19 13 -33 33 -33z" />
    <glyph glyph-name="ae" unicode="&#xe6;" horiz-adv-x="866" 
d="M38 137c0 164 190 169 302 169h33v18c0 97 -52 130 -128 130c-50 0 -99 -18 -139 -48l-32 51c41 36 111 58 175 58c100 0 149 -41 170 -104h2c41 69 108 104 190 104c135 0 209 -104 209 -229c0 -11 -2 -23 -3 -34h-378c3 -132 83 -202 188 -202c54 0 112 22 152 60
l31 -52c-44 -42 -119 -70 -186 -70c-103 0 -184 53 -221 140h-2c-8 -26 -56 -140 -190 -140c-92 0 -173 52 -173 149zM443 306h307c-4 104 -71 151 -142 151c-84 0 -149 -51 -165 -151zM108 141c0 -49 38 -96 112 -96c97 0 154 101 154 189v18h-59c-85 0 -207 -9 -207 -111z
" />
    <glyph glyph-name="ccedilla" unicode="&#xe7;" horiz-adv-x="544" 
d="M257 -91l19 81c-132 15 -229 117 -229 261c0 155 116 264 264 264c66 0 139 -23 184 -72l-35 -51c-35 36 -91 62 -147 62c-110 0 -196 -83 -196 -203c0 -118 86 -201 198 -201c58 0 121 25 161 69l31 -51c-43 -47 -113 -77 -187 -80l-8 -43c41 -6 70 -31 70 -71
c0 -58 -47 -79 -96 -79c-17 0 -34 1 -50 5v48c10 -4 29 -6 42 -6c26 0 51 7 51 34c0 22 -22 34 -57 34c-8 0 -15 -1 -15 -1z" />
    <glyph glyph-name="egrave" unicode="&#xe8;" horiz-adv-x="553" 
d="M47 251c0 165 113 264 249 264c139 0 210 -107 210 -232c0 -11 -1 -23 -2 -34h-386c3 -128 91 -199 195 -199c55 0 112 23 153 60l31 -52c-47 -43 -120 -70 -186 -70c-150 0 -264 108 -264 263zM121 303h316c-4 105 -68 156 -143 156c-84 0 -157 -55 -173 -156zM266 585
l-86 119h79l69 -119h-62z" />
    <glyph glyph-name="eacute" unicode="&#xe9;" horiz-adv-x="553" 
d="M263 585l69 119h79l-87 -119h-61zM47 251c0 165 113 264 249 264c139 0 210 -107 210 -232c0 -11 -1 -23 -2 -34h-386c3 -128 91 -199 195 -199c55 0 112 23 153 60l31 -52c-47 -43 -120 -70 -186 -70c-150 0 -264 108 -264 263zM121 303h316c-4 105 -68 156 -143 156
c-84 0 -157 -55 -173 -156z" />
    <glyph glyph-name="ecircumflex" unicode="&#xea;" horiz-adv-x="553" 
d="M175 585l83 119h75l84 -119h-66l-54 80h-2l-54 -80h-66zM47 251c0 165 113 264 249 264c139 0 210 -107 210 -232c0 -11 -1 -23 -2 -34h-386c3 -128 91 -199 195 -199c55 0 112 23 153 60l31 -52c-47 -43 -120 -70 -186 -70c-150 0 -264 108 -264 263zM121 303h316
c-4 105 -68 156 -143 156c-84 0 -157 -55 -173 -156z" />
    <glyph glyph-name="edieresis" unicode="&#xeb;" horiz-adv-x="553" 
d="M341 618v86h62v-86h-62zM190 618v86h61v-86h-61zM47 251c0 165 113 264 249 264c139 0 210 -107 210 -232c0 -11 -1 -23 -2 -34h-386c3 -128 91 -199 195 -199c55 0 112 23 153 60l31 -52c-47 -43 -120 -70 -186 -70c-150 0 -264 108 -264 263zM121 303h316
c-4 105 -68 156 -143 156c-84 0 -157 -55 -173 -156z" />
    <glyph glyph-name="igrave" unicode="&#xec;" horiz-adv-x="230" 
d="M81 0v503h68v-503h-68zM86 585l-86 119h79l69 -119h-62z" />
    <glyph glyph-name="iacute" unicode="&#xed;" horiz-adv-x="230" 
d="M84 585l69 119h79l-87 -119h-61zM81 0v503h68v-503h-68z" />
    <glyph glyph-name="icircumflex" unicode="&#xee;" horiz-adv-x="230" 
d="M-4 585l83 119h75l84 -119h-66l-54 80h-2l-54 -80h-66zM81 0v503h68v-503h-68z" />
    <glyph glyph-name="idieresis" unicode="&#xef;" horiz-adv-x="230" 
d="M162 618v86h62v-86h-62zM11 618v86h61v-86h-61zM81 0v503h68v-503h-68z" />
    <glyph glyph-name="eth" unicode="&#xf0;" horiz-adv-x="579" 
d="M49 232c0 120 82 235 239 235c96 0 144 -55 144 -55h2c-24 69 -67 121 -124 160l-176 -80l-14 48l136 63c-43 22 -91 39 -142 51l19 57c65 -15 135 -39 197 -76l131 59l13 -48l-97 -45c86 -68 150 -176 150 -329c0 -133 -72 -284 -247 -284c-147 0 -231 121 -231 244z
M119 231c0 -92 58 -182 163 -182c124 0 176 115 176 212c0 85 -65 148 -163 148c-120 0 -176 -89 -176 -178z" />
    <glyph glyph-name="ntilde" unicode="&#xf1;" horiz-adv-x="594" 
d="M81 0v503h67v-79c0 -22 -4 -40 -4 -40h2c19 46 85 131 203 131c125 0 169 -71 169 -195v-320h-68v302c0 79 -13 149 -110 149c-107 0 -191 -88 -191 -205v-246h-68zM153 588c0 77 31 116 92 116c67 0 81 -71 126 -71c33 0 40 43 40 68h54c0 -76 -31 -116 -92 -116
c-67 0 -81 71 -126 71c-33 0 -39 -42 -39 -68h-55z" />
    <glyph glyph-name="ograve" unicode="&#xf2;" horiz-adv-x="624" 
d="M47 254c0 149 118 261 265 261s266 -112 266 -261c0 -152 -119 -266 -266 -266s-265 114 -265 266zM117 254c0 -118 87 -204 195 -204s196 86 196 204c0 114 -88 200 -196 200s-195 -86 -195 -200zM281 585l-86 119h79l69 -119h-62z" />
    <glyph glyph-name="oacute" unicode="&#xf3;" horiz-adv-x="624" 
d="M279 585l69 119h79l-87 -119h-61zM47 254c0 149 118 261 265 261s266 -112 266 -261c0 -152 -119 -266 -266 -266s-265 114 -265 266zM117 254c0 -118 87 -204 195 -204s196 86 196 204c0 114 -88 200 -196 200s-195 -86 -195 -200z" />
    <glyph glyph-name="ocircumflex" unicode="&#xf4;" horiz-adv-x="624" 
d="M191 585l83 119h75l84 -119h-66l-54 80h-2l-54 -80h-66zM47 254c0 149 118 261 265 261s266 -112 266 -261c0 -152 -119 -266 -266 -266s-265 114 -265 266zM117 254c0 -118 87 -204 195 -204s196 86 196 204c0 114 -88 200 -196 200s-195 -86 -195 -200z" />
    <glyph glyph-name="otilde" unicode="&#xf5;" horiz-adv-x="624" 
d="M47 254c0 149 118 261 265 261s266 -112 266 -261c0 -152 -119 -266 -266 -266s-265 114 -265 266zM117 254c0 -118 87 -204 195 -204s196 86 196 204c0 114 -88 200 -196 200s-195 -86 -195 -200zM156 588c0 77 31 116 92 116c67 0 81 -71 126 -71c33 0 40 43 40 68h54
c0 -76 -31 -116 -92 -116c-67 0 -81 71 -126 71c-33 0 -39 -42 -39 -68h-55z" />
    <glyph glyph-name="odieresis" unicode="&#xf6;" horiz-adv-x="624" 
d="M357 618v86h62v-86h-62zM206 618v86h61v-86h-61zM47 254c0 149 118 261 265 261s266 -112 266 -261c0 -152 -119 -266 -266 -266s-265 114 -265 266zM117 254c0 -118 87 -204 195 -204s196 86 196 204c0 114 -88 200 -196 200s-195 -86 -195 -200z" />
    <glyph glyph-name="divide" unicode="&#xf7;" horiz-adv-x="568" 
d="M246 433v74h75v-74h-75zM39 255v58h490v-58h-490zM246 61v74h75v-74h-75z" />
    <glyph glyph-name="oslash" unicode="&#xf8;" horiz-adv-x="625" 
d="M105 -3l37 52c-58 47 -95 120 -95 205c0 149 119 261 266 261c49 0 96 -13 136 -36l39 53l41 -29l-39 -54c54 -47 89 -116 89 -195c0 -152 -119 -266 -266 -266c-48 0 -91 11 -129 33l-38 -54zM180 103l232 323c-29 17 -63 28 -99 28c-108 0 -196 -86 -196 -200
c0 -62 25 -115 63 -151zM221 73c27 -15 58 -23 92 -23c108 0 196 86 196 204c0 56 -22 105 -58 140z" />
    <glyph glyph-name="ugrave" unicode="&#xf9;" horiz-adv-x="588" 
d="M75 183v320h69v-302c0 -79 12 -149 109 -149c115 0 186 101 186 210v241h68v-503h-67v79c0 22 4 40 4 40h-2c-19 -49 -87 -131 -198 -131c-119 0 -169 64 -169 195zM262 585l-86 119h79l69 -119h-62z" />
    <glyph glyph-name="uacute" unicode="&#xfa;" horiz-adv-x="588" 
d="M258 585l69 119h79l-87 -119h-61zM75 183v320h69v-302c0 -79 12 -149 109 -149c115 0 186 101 186 210v241h68v-503h-67v79c0 22 4 40 4 40h-2c-19 -49 -87 -131 -198 -131c-119 0 -169 64 -169 195z" />
    <glyph glyph-name="ucircumflex" unicode="&#xfb;" horiz-adv-x="588" 
d="M170 585l83 119h75l84 -119h-66l-54 80h-2l-54 -80h-66zM75 183v320h69v-302c0 -79 12 -149 109 -149c115 0 186 101 186 210v241h68v-503h-67v79c0 22 4 40 4 40h-2c-19 -49 -87 -131 -198 -131c-119 0 -169 64 -169 195z" />
    <glyph glyph-name="udieresis" unicode="&#xfc;" horiz-adv-x="588" 
d="M336 618v86h62v-86h-62zM185 618v86h61v-86h-61zM75 183v320h69v-302c0 -79 12 -149 109 -149c115 0 186 101 186 210v241h68v-503h-67v79c0 22 4 40 4 40h-2c-19 -49 -87 -131 -198 -131c-119 0 -169 64 -169 195z" />
    <glyph glyph-name="yacute" unicode="&#xfd;" horiz-adv-x="526" 
d="M45 -126c0 0 28 -23 60 -23c44 0 76 36 96 82l30 72l-209 498h75l147 -367c10 -25 19 -53 19 -53h2s7 28 17 53l145 367h73l-248 -608c-26 -64 -77 -105 -144 -105c-52 0 -89 30 -89 30zM231 584l69 119h79l-87 -119h-61z" />
    <glyph glyph-name="thorn" unicode="&#xfe;" horiz-adv-x="588" 
d="M81 -200v903h68v-244c0 -23 -1 -40 -1 -40h2c25 54 87 96 169 96c136 0 220 -109 220 -263c0 -158 -93 -264 -224 -264c-67 0 -136 34 -166 96h-2s2 -18 2 -44v-240h-68zM147 251c0 -108 59 -202 161 -202c90 0 162 77 162 203c0 121 -66 202 -159 202
c-85 0 -164 -59 -164 -203z" />
    <glyph glyph-name="ydieresis" unicode="&#xff;" horiz-adv-x="526" 
d="M45 -126c0 0 28 -23 60 -23c44 0 76 36 96 82l30 72l-209 498h75l147 -367c10 -25 19 -53 19 -53h2s7 28 17 53l145 367h73l-248 -608c-26 -64 -77 -105 -144 -105c-52 0 -89 30 -89 30zM308 617v86h62v-86h-62zM157 617v86h61v-86h-61z" />
    <glyph glyph-name="Amacron" unicode="&#x100;" horiz-adv-x="632" 
d="M21 0l258 703h74l258 -703h-73l-81 224h-283l-80 -224h-73zM195 284h241l-92 255c-12 33 -27 92 -27 92h-2s-15 -59 -27 -92zM193 785v55h246v-55h-246z" />
    <glyph glyph-name="amacron" unicode="&#x101;" horiz-adv-x="517" 
d="M37 135c0 165 210 175 306 175h30v14c0 97 -53 130 -124 130c-51 0 -102 -18 -143 -48l-31 52c40 34 111 57 178 57c121 0 188 -67 188 -193v-322h-65v59c0 25 3 42 3 42h-2c-26 -61 -89 -113 -170 -113c-85 0 -170 50 -170 147zM106 141c0 -47 38 -96 113 -96
c97 0 154 100 154 188v23h-29c-78 0 -238 -3 -238 -115zM131 618v55h246v-55h-246z" />
    <glyph glyph-name="Abreve" unicode="&#x102;" horiz-adv-x="632" 
d="M21 0l258 703h74l258 -703h-73l-81 224h-283l-80 -224h-73zM195 284h241l-92 255c-12 33 -27 92 -27 92h-2s-15 -59 -27 -92zM316 749c-60 0 -116 36 -116 107v15h55v-14c0 -43 28 -61 61 -61c30 0 60 18 60 62v13h55v-15c0 -71 -56 -107 -115 -107z" />
    <glyph glyph-name="abreve" unicode="&#x103;" horiz-adv-x="517" 
d="M37 135c0 165 210 175 306 175h30v14c0 97 -53 130 -124 130c-51 0 -102 -18 -143 -48l-31 52c40 34 111 57 178 57c121 0 188 -67 188 -193v-322h-65v59c0 25 3 42 3 42h-2c-26 -61 -89 -113 -170 -113c-85 0 -170 50 -170 147zM106 141c0 -47 38 -96 113 -96
c97 0 154 100 154 188v23h-29c-78 0 -238 -3 -238 -115zM254 582c-60 0 -116 36 -116 107v15h55v-14c0 -43 28 -61 61 -61c30 0 60 18 60 62v13h55v-15c0 -71 -56 -107 -115 -107z" />
    <glyph glyph-name="Aogonek" unicode="&#x104;" horiz-adv-x="632" 
d="M21 0l258 703h74l258 -703c-22 -17 -73 -59 -73 -99c0 -45 62 -50 62 -50l-15 -56s-110 7 -110 92c0 51 38 91 66 113h-3l-81 224h-283l-80 -224h-73zM195 284h241l-92 255c-12 33 -27 92 -27 92h-2s-15 -59 -27 -92z" />
    <glyph glyph-name="aogonek" unicode="&#x105;" horiz-adv-x="517" 
d="M37 135c0 165 210 175 306 175h30v14c0 97 -53 130 -124 130c-51 0 -102 -18 -143 -48l-31 52c40 34 111 57 178 57c121 0 188 -67 188 -193v-322c-22 -17 -73 -59 -73 -99c0 -45 62 -50 62 -50l-15 -56s-110 7 -110 92c0 51 42 91 71 113v59c0 25 3 42 3 42h-2
c-26 -61 -89 -113 -170 -113c-85 0 -170 50 -170 147zM106 141c0 -47 38 -96 113 -96c97 0 154 100 154 188v23h-29c-78 0 -238 -3 -238 -115z" />
    <glyph glyph-name="Cacute" unicode="&#x106;" horiz-adv-x="718" 
d="M369 752l69 119h79l-87 -119h-61zM55 356c0 204 147 359 353 359c89 0 187 -27 254 -91l-37 -51c-55 48 -139 77 -215 77c-171 0 -283 -128 -283 -293c0 -167 112 -304 286 -304c83 0 167 34 227 93l40 -49c-59 -58 -145 -109 -269 -109c-214 0 -356 163 -356 368z" />
    <glyph glyph-name="cacute" unicode="&#x107;" horiz-adv-x="542" 
d="M260 585l69 119h79l-87 -119h-61zM47 251c0 155 116 264 264 264c66 0 139 -23 184 -72l-35 -51c-35 36 -91 62 -147 62c-110 0 -196 -83 -196 -203c0 -118 86 -201 198 -201c58 0 121 25 161 69l31 -51c-44 -49 -119 -80 -196 -80c-149 0 -264 107 -264 263z" />
    <glyph glyph-name="Ccircumflex" unicode="&#x108;" horiz-adv-x="718" 
d="M281 752l83 119h75l84 -119h-66l-54 80h-2l-54 -80h-66zM55 356c0 204 147 359 353 359c89 0 187 -27 254 -91l-37 -51c-55 48 -139 77 -215 77c-171 0 -283 -128 -283 -293c0 -167 112 -304 286 -304c83 0 167 34 227 93l40 -49c-59 -58 -145 -109 -269 -109
c-214 0 -356 163 -356 368z" />
    <glyph glyph-name="ccircumflex" unicode="&#x109;" horiz-adv-x="542" 
d="M171 585l83 119h75l84 -119h-66l-54 80h-2l-54 -80h-66zM47 251c0 155 116 264 264 264c66 0 139 -23 184 -72l-35 -51c-35 36 -91 62 -147 62c-110 0 -196 -83 -196 -203c0 -118 86 -201 198 -201c58 0 121 25 161 69l31 -51c-44 -49 -119 -80 -196 -80
c-149 0 -264 107 -264 263z" />
    <glyph glyph-name="Cdotaccent" unicode="&#x10a;" horiz-adv-x="718" 
d="M55 356c0 204 147 359 353 359c89 0 187 -27 254 -91l-37 -51c-55 48 -139 77 -215 77c-171 0 -283 -128 -283 -293c0 -167 112 -304 286 -304c83 0 167 34 227 93l40 -49c-59 -58 -145 -109 -269 -109c-214 0 -356 163 -356 368zM369 786v85h65v-85h-65z" />
    <glyph glyph-name="cdotaccent" unicode="&#x10b;" horiz-adv-x="542" 
d="M47 251c0 155 116 264 264 264c66 0 139 -23 184 -72l-35 -51c-35 36 -91 62 -147 62c-110 0 -196 -83 -196 -203c0 -118 86 -201 198 -201c58 0 121 25 161 69l31 -51c-44 -49 -119 -80 -196 -80c-149 0 -264 107 -264 263zM260 619v85h65v-85h-65z" />
    <glyph glyph-name="Ccaron" unicode="&#x10c;" horiz-adv-x="718" 
d="M364 752l-83 119h66l54 -80h2l54 80h66l-84 -119h-75zM55 356c0 204 147 359 353 359c89 0 187 -27 254 -91l-37 -51c-55 48 -139 77 -215 77c-171 0 -283 -128 -283 -293c0 -167 112 -304 286 -304c83 0 167 34 227 93l40 -49c-59 -58 -145 -109 -269 -109
c-214 0 -356 163 -356 368z" />
    <glyph glyph-name="ccaron" unicode="&#x10d;" horiz-adv-x="542" 
d="M254 585l-83 119h66l54 -80h2l54 80h66l-84 -119h-75zM47 251c0 155 116 264 264 264c66 0 139 -23 184 -72l-35 -51c-35 36 -91 62 -147 62c-110 0 -196 -83 -196 -203c0 -118 86 -201 198 -201c58 0 121 25 161 69l31 -51c-44 -49 -119 -80 -196 -80
c-149 0 -264 107 -264 263z" />
    <glyph glyph-name="Dcaron" unicode="&#x10e;" horiz-adv-x="738" 
d="M303 752l-83 119h66l54 -80h2l54 80h66l-84 -119h-75zM101 0v703h226c212 0 353 -129 353 -351c0 -223 -141 -352 -353 -352h-226zM170 62h150c173 0 288 101 288 290c0 187 -115 289 -288 289h-150v-579z" />
    <glyph glyph-name="dcaron" unicode="&#x10f;" horiz-adv-x="593" 
d="M570 702h65c4 -18 6 -33 6 -49c0 -30 -8 -57 -23 -90h-56c12 30 19 55 19 81c0 18 -3 36 -11 58zM49 252c0 159 94 263 227 263c70 0 134 -38 165 -99h2s-3 17 -3 38v249h68v-703h-66v57c0 22 3 36 3 36h-2c-28 -57 -88 -105 -175 -105c-134 0 -219 108 -219 264z
M119 252c0 -124 66 -203 160 -203c84 0 162 60 162 204c0 101 -52 200 -159 200c-89 0 -163 -73 -163 -201z" />
    <glyph glyph-name="Dcroat" unicode="&#x110;" horiz-adv-x="744" 
d="M107 0v323h-60v60h60v320h226c212 0 353 -129 353 -351c0 -223 -141 -352 -353 -352h-226zM176 62h150c173 0 288 101 288 290c0 187 -115 289 -288 289h-150v-258h167v-60h-167v-261z" />
    <glyph glyph-name="dcroat" unicode="&#x111;" horiz-adv-x="589" 
d="M49 252c0 159 94 263 227 263c67 0 132 -34 163 -95h2s-1 17 -1 38v108h-132v51h132v86h68v-86h79v-51h-79v-566h-66v53c0 22 2 37 2 37h-2c-26 -55 -87 -102 -174 -102c-134 0 -219 108 -219 264zM119 252c0 -124 66 -203 160 -203c84 0 162 60 162 204
c0 101 -52 201 -159 201c-89 0 -163 -74 -163 -202z" />
    <glyph glyph-name="Emacron" unicode="&#x112;" horiz-adv-x="560" 
d="M101 0v703h395v-62h-326v-256h267v-62h-267v-261h345v-62h-414zM187 785v55h246v-55h-246z" />
    <glyph glyph-name="emacron" unicode="&#x113;" horiz-adv-x="553" 
d="M47 251c0 165 113 264 249 264c139 0 210 -107 210 -232c0 -11 -1 -23 -2 -34h-386c3 -128 91 -199 195 -199c55 0 112 23 153 60l31 -52c-47 -43 -120 -70 -186 -70c-150 0 -264 108 -264 263zM121 303h316c-4 105 -68 156 -143 156c-84 0 -157 -55 -173 -156zM173 618
v55h246v-55h-246z" />
    <glyph glyph-name="Ebreve" unicode="&#x114;" horiz-adv-x="560" 
d="M101 0v703h395v-62h-326v-256h267v-62h-267v-261h345v-62h-414zM310 749c-60 0 -116 36 -116 107v15h55v-14c0 -43 28 -61 61 -61c30 0 60 18 60 62v13h55v-15c0 -71 -56 -107 -115 -107z" />
    <glyph glyph-name="ebreve" unicode="&#x115;" horiz-adv-x="553" 
d="M47 251c0 165 113 264 249 264c139 0 210 -107 210 -232c0 -11 -1 -23 -2 -34h-386c3 -128 91 -199 195 -199c55 0 112 23 153 60l31 -52c-47 -43 -120 -70 -186 -70c-150 0 -264 108 -264 263zM121 303h316c-4 105 -68 156 -143 156c-84 0 -157 -55 -173 -156zM296 582
c-60 0 -116 36 -116 107v15h55v-14c0 -43 28 -61 61 -61c30 0 60 18 60 62v13h55v-15c0 -71 -56 -107 -115 -107z" />
    <glyph glyph-name="Edotaccent" unicode="&#x116;" horiz-adv-x="560" 
d="M101 0v703h395v-62h-326v-256h267v-62h-267v-261h345v-62h-414zM277 786v85h65v-85h-65z" />
    <glyph glyph-name="edotaccent" unicode="&#x117;" horiz-adv-x="553" 
d="M47 251c0 165 113 264 249 264c139 0 210 -107 210 -232c0 -11 -1 -23 -2 -34h-386c3 -128 91 -199 195 -199c55 0 112 23 153 60l31 -52c-47 -43 -120 -70 -186 -70c-150 0 -264 108 -264 263zM121 303h316c-4 105 -68 156 -143 156c-84 0 -157 -55 -173 -156zM263 619
v85h65v-85h-65z" />
    <glyph glyph-name="Eogonek" unicode="&#x118;" horiz-adv-x="560" 
d="M101 0v703h395v-62h-326v-256h267v-62h-267v-261h345v-62c-22 -17 -73 -59 -73 -99c0 -45 62 -50 62 -50l-16 -56s-109 7 -109 92c0 53 45 93 73 113h-351z" />
    <glyph glyph-name="eogonek" unicode="&#x119;" horiz-adv-x="553" 
d="M47 251c0 165 113 264 249 264c139 0 210 -107 210 -232c0 -13 -2 -34 -2 -34h-386c3 -128 91 -199 195 -199c56 0 110 23 153 60l31 -51c-42 -41 -145 -88 -145 -158c0 -45 62 -50 62 -50l-15 -56s-110 7 -110 92c0 44 28 79 58 105c-11 -2 -24 -4 -36 -4
c-150 0 -264 108 -264 263zM121 303h316c-4 105 -67 156 -143 156c-84 0 -157 -56 -173 -156z" />
    <glyph glyph-name="Ecaron" unicode="&#x11a;" horiz-adv-x="560" 
d="M272 752l-83 119h66l54 -80h2l54 80h66l-84 -119h-75zM101 0v703h395v-62h-326v-256h267v-62h-267v-261h345v-62h-414z" />
    <glyph glyph-name="ecaron" unicode="&#x11b;" horiz-adv-x="553" 
d="M258 585l-83 119h66l54 -80h2l54 80h66l-84 -119h-75zM47 251c0 165 113 264 249 264c139 0 210 -107 210 -232c0 -11 -1 -23 -2 -34h-386c3 -128 91 -199 195 -199c55 0 112 23 153 60l31 -52c-47 -43 -120 -70 -186 -70c-150 0 -264 108 -264 263zM121 303h316
c-4 105 -68 156 -143 156c-84 0 -157 -55 -173 -156z" />
    <glyph glyph-name="Gcircumflex" unicode="&#x11c;" horiz-adv-x="758" 
d="M277 752l83 119h75l84 -119h-66l-54 80h-2l-54 -80h-66zM55 352c0 203 153 363 355 363c88 0 181 -26 250 -82l-38 -53c-49 41 -134 70 -209 70c-171 0 -286 -131 -286 -297c0 -173 119 -300 280 -300c84 0 166 40 221 102v119h-120v62h185v-336h-63v53c0 15 1 30 1 30
h-2c-50 -55 -136 -95 -229 -95c-193 0 -345 155 -345 364z" />
    <glyph glyph-name="gcircumflex" unicode="&#x11d;" horiz-adv-x="582" 
d="M163 585l83 119h75l84 -119h-66l-54 80h-2l-54 -80h-66zM120 -114c39 -20 90 -34 137 -34c98 0 175 45 175 157v50c0 19 4 37 4 37h-2c-30 -57 -82 -93 -160 -93c-135 0 -224 107 -224 258s83 254 218 254c67 0 136 -26 167 -88h2s-2 6 -2 17v59h66v-491
c0 -160 -118 -222 -242 -222c-57 0 -115 15 -164 41zM119 262c0 -121 66 -198 165 -198c80 0 150 49 150 197c0 147 -70 193 -159 193c-98 0 -156 -72 -156 -192z" />
    <glyph glyph-name="Gbreve" unicode="&#x11e;" horiz-adv-x="758" 
d="M55 352c0 203 153 363 355 363c88 0 181 -26 250 -82l-38 -53c-49 41 -134 70 -209 70c-171 0 -286 -131 -286 -297c0 -173 119 -300 280 -300c84 0 166 40 221 102v119h-120v62h185v-336h-63v53c0 15 1 30 1 30h-2c-50 -55 -136 -95 -229 -95c-193 0 -345 155 -345 364z
M399 749c-60 0 -116 36 -116 107v15h55v-14c0 -43 28 -61 61 -61c30 0 60 18 60 62v13h55v-15c0 -71 -56 -107 -115 -107z" />
    <glyph glyph-name="gbreve" unicode="&#x11f;" horiz-adv-x="582" 
d="M120 -114c39 -20 90 -34 137 -34c98 0 175 45 175 157v50c0 19 4 37 4 37h-2c-30 -57 -82 -93 -160 -93c-135 0 -224 107 -224 258s83 254 218 254c67 0 136 -26 167 -88h2s-2 6 -2 17v59h66v-491c0 -160 -118 -222 -242 -222c-57 0 -115 15 -164 41zM119 262
c0 -121 66 -198 165 -198c80 0 150 49 150 197c0 147 -70 193 -159 193c-98 0 -156 -72 -156 -192zM284 582c-60 0 -116 36 -116 107v15h55v-14c0 -43 28 -61 61 -61c30 0 60 18 60 62v13h55v-15c0 -71 -56 -107 -115 -107z" />
    <glyph glyph-name="Gdotaccent" unicode="&#x120;" horiz-adv-x="758" 
d="M55 352c0 203 153 363 355 363c88 0 181 -26 250 -82l-38 -53c-49 41 -134 70 -209 70c-171 0 -286 -131 -286 -297c0 -173 119 -300 280 -300c84 0 166 40 221 102v119h-120v62h185v-336h-63v53c0 15 1 30 1 30h-2c-50 -55 -136 -95 -229 -95c-193 0 -345 155 -345 364z
M366 786v85h65v-85h-65z" />
    <glyph glyph-name="gdotaccent" unicode="&#x121;" horiz-adv-x="582" 
d="M120 -114c39 -20 90 -34 137 -34c98 0 175 45 175 157v50c0 19 4 37 4 37h-2c-30 -57 -82 -93 -160 -93c-135 0 -224 107 -224 258s83 254 218 254c67 0 136 -26 167 -88h2s-2 6 -2 17v59h66v-491c0 -160 -118 -222 -242 -222c-57 0 -115 15 -164 41zM119 262
c0 -121 66 -198 165 -198c80 0 150 49 150 197c0 147 -70 193 -159 193c-98 0 -156 -72 -156 -192zM251 619v85h65v-85h-65z" />
    <glyph glyph-name="Gcommaaccent" unicode="&#x122;" horiz-adv-x="758" 
d="M366 -63h65c4 -18 6 -33 6 -49c0 -30 -8 -57 -23 -90h-56c12 30 19 55 19 81c0 18 -3 36 -11 58zM55 352c0 203 153 363 355 363c88 0 181 -26 250 -82l-38 -53c-49 41 -134 70 -209 70c-171 0 -286 -131 -286 -297c0 -173 119 -300 280 -300c84 0 166 40 221 102v119
h-120v62h185v-336h-63v53c0 15 1 30 1 30h-2c-50 -55 -136 -95 -229 -95c-193 0 -345 155 -345 364z" />
    <glyph glyph-name="gcommaaccent" unicode="&#x123;" horiz-adv-x="582" 
d="M318 565h-65c-4 17 -6 32 -6 48c0 30 8 57 23 90h56c-12 -30 -19 -55 -19 -81c0 -18 3 -36 11 -57zM120 -114c39 -20 90 -34 137 -34c98 0 175 45 175 157v50c0 19 4 37 4 37h-2c-30 -57 -82 -93 -160 -93c-135 0 -224 107 -224 258s83 254 218 254c67 0 136 -26 167 -88
h2s-2 6 -2 17v59h66v-491c0 -160 -118 -222 -242 -222c-57 0 -115 15 -164 41zM119 262c0 -121 66 -198 165 -198c80 0 150 49 150 197c0 147 -70 193 -159 193c-98 0 -156 -72 -156 -192z" />
    <glyph glyph-name="Hcircumflex" unicode="&#x124;" horiz-adv-x="747" 
d="M252 752l83 119h75l84 -119h-66l-54 80h-2l-54 -80h-66zM101 0v703h69v-320h407v320h70v-703h-70v321h-407v-321h-69z" />
    <glyph glyph-name="hcircumflex" unicode="&#x125;" horiz-adv-x="594" 
d="M-4 752l83 119h75l84 -119h-66l-54 80h-2l-54 -80h-66zM81 0v703h68v-276c0 -23 -3 -41 -3 -41h2c19 47 87 129 201 129c125 0 169 -71 169 -195v-320h-68v302c0 79 -13 149 -110 149c-106 0 -191 -87 -191 -208v-243h-68z" />
    <glyph glyph-name="Hbar" unicode="&#x126;" horiz-adv-x="758" 
d="M107 0v512h-65v53h65v138h70v-138h404v138h70v-138h65v-53h-65v-512h-70v321h-404v-321h-70zM177 383h404v129h-404v-129z" />
    <glyph glyph-name="hbar" unicode="&#x127;" horiz-adv-x="594" 
d="M81 0v566h-76v51h76v86h68v-86h134v-51h-134v-135c0 -23 -2 -41 -2 -41h2c20 47 86 125 200 125c125 0 169 -71 169 -195v-320h-68v302c0 79 -13 149 -110 149c-111 0 -191 -94 -191 -205v-246h-68z" />
    <glyph glyph-name="Itilde" unicode="&#x128;" horiz-adv-x="271" 
d="M101 0v703h69v-703h-69zM-19 755c0 77 31 116 92 116c67 0 81 -71 126 -71c33 0 40 43 40 68h54c0 -76 -31 -116 -92 -116c-67 0 -81 71 -126 71c-33 0 -39 -42 -39 -68h-55z" />
    <glyph glyph-name="itilde" unicode="&#x129;" horiz-adv-x="230" 
d="M81 0v503h68v-503h-68zM-39 588c0 77 31 116 92 116c67 0 81 -71 126 -71c33 0 40 43 40 68h54c0 -76 -31 -116 -92 -116c-67 0 -81 71 -126 71c-33 0 -39 -42 -39 -68h-55z" />
    <glyph glyph-name="Imacron" unicode="&#x12a;" horiz-adv-x="271" 
d="M101 0v703h69v-703h-69zM14 785v55h246v-55h-246z" />
    <glyph glyph-name="imacron" unicode="&#x12b;" horiz-adv-x="230" 
d="M81 0v503h68v-503h-68zM-7 618v55h246v-55h-246z" />
    <glyph glyph-name="Ibreve" unicode="&#x12c;" horiz-adv-x="271" 
d="M101 0v703h69v-703h-69zM137 749c-60 0 -116 36 -116 107v15h55v-14c0 -43 28 -61 61 -61c30 0 60 18 60 62v13h55v-15c0 -71 -56 -107 -115 -107z" />
    <glyph glyph-name="ibreve" unicode="&#x12d;" horiz-adv-x="230" 
d="M81 0v503h68v-503h-68zM117 582c-60 0 -116 36 -116 107v15h55v-14c0 -43 28 -61 61 -61c30 0 60 18 60 62v13h55v-15c0 -71 -56 -107 -115 -107z" />
    <glyph glyph-name="Iogonek" unicode="&#x12e;" horiz-adv-x="271" 
d="M101 0v703h69v-703c-22 -17 -73 -59 -73 -99c0 -45 62 -50 62 -50l-15 -56s-110 7 -110 92c0 48 40 90 70 113h-3z" />
    <glyph glyph-name="iogonek" unicode="&#x12f;" horiz-adv-x="231" 
d="M81 0v503h68v-502l1 -1c-22 -17 -73 -59 -73 -99c0 -45 62 -50 62 -50l-15 -56s-110 7 -110 93c0 49 42 90 72 112h-5zM78 618v85h74v-85h-74z" />
    <glyph glyph-name="Idotaccent" unicode="&#x130;" horiz-adv-x="271" 
d="M101 0v703h69v-703h-69zM104 786v85h65v-85h-65z" />
    <glyph glyph-name="dotlessi" unicode="&#x131;" horiz-adv-x="230" 
d="M81 0v503h68v-503h-68z" />
    <glyph glyph-name="IJ" unicode="&#x132;" horiz-adv-x="581" 
d="M271 -5v65c63 0 146 23 146 168v475h70v-475c0 -195 -117 -233 -216 -233zM101 0v703h69v-703h-69z" />
    <glyph glyph-name="ij" unicode="&#x133;" horiz-adv-x="461" 
d="M78 618v85h74v-85h-74zM81 0v503h68v-503h-68zM308 618v85h74v-85h-74zM311 -16v519h68v-521c0 -168 -118 -188 -175 -188c-10 0 -19 1 -29 3v60c4 -1 12 -2 22 -2c38 0 114 14 114 129z" />
    <glyph glyph-name="Jcircumflex" unicode="&#x134;" horiz-adv-x="520" 
d="M184 752l83 119h75l84 -119h-66l-54 80h-2l-54 -80h-66zM32 197v28h69v-26c0 -77 38 -146 127 -146c65 0 129 37 129 144v444h-172v62h241v-506c0 -152 -100 -209 -197 -209s-197 58 -197 209z" />
    <glyph glyph-name="jcircumflex" unicode="&#x135;" horiz-adv-x="230" 
d="M-8 584l84 119h72l84 -119h-65l-54 81h-2l-54 -81h-65zM81 -16v519h68v-521c0 -168 -118 -188 -175 -188c-10 0 -19 1 -29 3v60c6 -1 13 -2 22 -2c38 0 114 14 114 129z" />
    <glyph glyph-name="Kcommaaccent" unicode="&#x136;" horiz-adv-x="591" 
d="M275 -63h65c4 -18 6 -33 6 -49c0 -30 -8 -57 -23 -90h-56c12 30 19 55 19 81c0 18 -3 36 -11 58zM101 0v703h69v-305h118l190 305h79l-211 -332v-2l225 -369h-81l-202 336h-118v-336h-69z" />
    <glyph glyph-name="kcommaaccent" unicode="&#x137;" horiz-adv-x="496" 
d="M226 -63h65c4 -18 6 -33 6 -49c0 -30 -8 -57 -23 -90h-56c12 30 19 55 19 81c0 18 -3 36 -11 58zM81 0v703h68v-392h81l150 192h82l-175 -219v-2l193 -282h-82l-167 251h-82v-251h-68z" />
    <glyph glyph-name="kgreenlandic" unicode="&#x138;" horiz-adv-x="494" 
d="M81 0v503h68v-206h79l159 206h83l-183 -233v-2l184 -268h-84l-158 238h-80v-238h-68z" />
    <glyph glyph-name="Lacute" unicode="&#x139;" horiz-adv-x="517" 
d="M104 752l69 119h79l-87 -119h-61zM101 0v703h69v-641h326v-62h-395z" />
    <glyph glyph-name="lacute" unicode="&#x13a;" horiz-adv-x="246" 
d="M85 752l69 119h79l-87 -119h-61zM81 119v584h68v-569c0 -66 31 -76 57 -76c4 0 10 0 16 1v-61c-6 -1 -14 -2 -25 -2c-41 0 -116 13 -116 123z" />
    <glyph glyph-name="Lcommaaccent" unicode="&#x13b;" horiz-adv-x="517" 
d="M271 -63h65c4 -18 6 -33 6 -49c0 -30 -8 -57 -23 -90h-56c12 30 19 55 19 81c0 18 -3 36 -11 58zM101 0v703h69v-641h326v-62h-395z" />
    <glyph glyph-name="lcommaaccent" unicode="&#x13c;" horiz-adv-x="246" 
d="M116 -63h65c4 -18 6 -33 6 -49c0 -30 -8 -57 -23 -90h-56c12 30 19 55 19 81c0 18 -3 36 -11 58zM81 119v584h68v-569c0 -66 31 -76 57 -76c4 0 10 0 16 1v-61c-6 -1 -14 -2 -25 -2c-41 0 -116 13 -116 123z" />
    <glyph glyph-name="Lcaron" unicode="&#x13d;" horiz-adv-x="517" 
d="M261 702h65c4 -18 6 -33 6 -49c0 -30 -8 -57 -23 -90h-56c12 30 19 55 19 81c0 18 -3 36 -11 58zM101 0v703h69v-641h326v-62h-395z" />
    <glyph glyph-name="lcaron" unicode="&#x13e;" horiz-adv-x="250" 
d="M213 702h65c4 -18 6 -33 6 -49c0 -30 -8 -57 -23 -90h-56c12 30 19 55 19 81c0 18 -3 36 -11 58zM81 119v584h68v-569c0 -66 31 -76 57 -76c4 0 10 0 16 1v-61c-6 -1 -14 -2 -25 -2c-41 0 -116 13 -116 123z" />
    <glyph glyph-name="Ldot" unicode="&#x13f;" horiz-adv-x="517" 
d="M101 0v703h69v-641h326v-62h-395zM294 330v83h80v-83h-80z" />
    <glyph glyph-name="ldot" unicode="&#x140;" horiz-adv-x="285" 
d="M81 119v584h68v-569c0 -66 31 -76 57 -76c4 0 10 0 16 1v-61c-6 -1 -14 -2 -25 -2c-41 0 -116 13 -116 123zM217 330v83h80v-83h-80z" />
    <glyph glyph-name="Lslash" unicode="&#x141;" horiz-adv-x="522" 
d="M106 0v337l-62 -35v70l62 36v295h69v-255l113 65v-71l-113 -65v-315h326v-62h-395z" />
    <glyph glyph-name="lslash" unicode="&#x142;" horiz-adv-x="268" 
d="M16 306v70l81 47v280h68v-241l87 51v-71l-87 -51v-257c0 -66 31 -76 57 -76c8 0 16 1 16 1v-61s-12 -2 -25 -2c-42 0 -116 13 -116 123v233z" />
    <glyph glyph-name="Nacute" unicode="&#x143;" horiz-adv-x="751" 
d="M342 752l69 119h79l-87 -119h-61zM101 0v703h67l359 -506c24 -35 58 -95 58 -95h2s-6 58 -6 95v506h69v-703h-67l-359 506c-24 35 -58 95 -58 95h-2s6 -58 6 -95v-506h-69z" />
    <glyph glyph-name="nacute" unicode="&#x144;" horiz-adv-x="594" 
d="M276 585l69 119h79l-87 -119h-61zM81 0v503h67v-79c0 -22 -4 -40 -4 -40h2c19 46 85 131 203 131c125 0 169 -71 169 -195v-320h-68v302c0 79 -13 149 -110 149c-107 0 -191 -88 -191 -205v-246h-68z" />
    <glyph glyph-name="Ncommaaccent" unicode="&#x145;" horiz-adv-x="751" 
d="M341 -63h65c4 -18 6 -33 6 -49c0 -30 -8 -57 -23 -90h-56c12 30 19 55 19 81c0 18 -3 36 -11 58zM101 0v703h67l359 -506c24 -35 58 -95 58 -95h2s-6 58 -6 95v506h69v-703h-67l-359 506c-24 35 -58 95 -58 95h-2s6 -58 6 -95v-506h-69z" />
    <glyph glyph-name="ncommaaccent" unicode="&#x146;" horiz-adv-x="594" 
d="M265 -63h65c4 -18 6 -33 6 -49c0 -30 -8 -57 -23 -90h-56c12 30 19 55 19 81c0 18 -3 36 -11 58zM81 0v503h67v-79c0 -22 -4 -40 -4 -40h2c19 46 85 131 203 131c125 0 169 -71 169 -195v-320h-68v302c0 79 -13 149 -110 149c-107 0 -191 -88 -191 -205v-246h-68z" />
    <glyph glyph-name="Ncaron" unicode="&#x147;" horiz-adv-x="751" 
d="M337 752l-83 119h66l54 -80h2l54 80h66l-84 -119h-75zM101 0v703h67l359 -506c24 -35 58 -95 58 -95h2s-6 58 -6 95v506h69v-703h-67l-359 506c-24 35 -58 95 -58 95h-2s6 -58 6 -95v-506h-69z" />
    <glyph glyph-name="ncaron" unicode="&#x148;" horiz-adv-x="594" 
d="M271 585l-83 119h66l54 -80h2l54 80h66l-84 -119h-75zM81 0v503h67v-79c0 -22 -4 -40 -4 -40h2c19 46 85 131 203 131c125 0 169 -71 169 -195v-320h-68v302c0 79 -13 149 -110 149c-107 0 -191 -88 -191 -205v-246h-68z" />
    <glyph glyph-name="napostrophe" unicode="&#x149;" horiz-adv-x="594" 
d="M19 702h65c4 -18 6 -33 6 -49c0 -30 -8 -57 -23 -90h-56c12 30 19 55 19 81c0 18 -3 36 -11 58zM81 0v503h67v-79c0 -22 -4 -40 -4 -40h2c19 46 85 131 203 131c125 0 169 -71 169 -195v-320h-68v302c0 79 -13 149 -110 149c-107 0 -191 -88 -191 -205v-246h-68z" />
    <glyph glyph-name="Eng" unicode="&#x14a;" horiz-adv-x="751" 
d="M101 0v703h67l359 -506c24 -35 58 -95 58 -95h2s-6 58 -6 95v506h69v-691c0 -166 -109 -217 -208 -217v65c61 0 135 36 137 145l-355 501c-24 35 -58 95 -58 95h-2s6 -58 6 -95v-506h-69z" />
    <glyph glyph-name="eng" unicode="&#x14b;" horiz-adv-x="594" 
d="M81 0v503h67v-80c0 -19 -2 -35 -2 -35h2c19 46 83 127 201 127c125 0 169 -71 169 -195v-343c0 -167 -119 -187 -176 -187c-17 0 -29 3 -29 3v59s9 -1 22 -1c39 0 115 14 115 129v322c0 79 -13 149 -110 149c-112 0 -191 -94 -191 -205v-246h-68z" />
    <glyph glyph-name="Omacron" unicode="&#x14c;" horiz-adv-x="825" 
d="M289 785v55h246v-55h-246zM54 357c0 201 153 358 358 358c206 0 358 -157 358 -358c0 -207 -152 -369 -358 -369c-205 0 -358 162 -358 369zM126 357c0 -172 122 -304 286 -304c165 0 286 132 286 304c0 166 -121 293 -286 293c-164 0 -286 -127 -286 -293z" />
    <glyph glyph-name="omacron" unicode="&#x14d;" horiz-adv-x="624" 
d="M189 618v55h246v-55h-246zM47 254c0 149 118 261 265 261s266 -112 266 -261c0 -152 -119 -266 -266 -266s-265 114 -265 266zM117 254c0 -118 87 -204 195 -204s196 86 196 204c0 114 -88 200 -196 200s-195 -86 -195 -200z" />
    <glyph glyph-name="Obreve" unicode="&#x14e;" horiz-adv-x="825" 
d="M54 357c0 201 153 358 358 358c206 0 358 -157 358 -358c0 -207 -152 -369 -358 -369c-205 0 -358 162 -358 369zM126 357c0 -172 122 -304 286 -304c165 0 286 132 286 304c0 166 -121 293 -286 293c-164 0 -286 -127 -286 -293zM412 749c-60 0 -116 36 -116 107v15h55
v-14c0 -43 28 -61 61 -61c30 0 60 18 60 62v13h55v-15c0 -71 -56 -107 -115 -107z" />
    <glyph glyph-name="obreve" unicode="&#x14f;" horiz-adv-x="624" 
d="M47 254c0 149 118 261 265 261s266 -112 266 -261c0 -152 -119 -266 -266 -266s-265 114 -265 266zM117 254c0 -118 87 -204 195 -204s196 86 196 204c0 114 -88 200 -196 200s-195 -86 -195 -200zM312 582c-60 0 -116 36 -116 107v15h55v-14c0 -43 28 -61 61 -61
c30 0 60 18 60 62v13h55v-15c0 -71 -56 -107 -115 -107z" />
    <glyph glyph-name="Ohungarumlaut" unicode="&#x150;" horiz-adv-x="825" 
d="M433 752l70 119h77l-87 -119h-60zM299 752l65 119h68l-68 -119h-65zM54 357c0 201 153 358 358 358c206 0 358 -157 358 -358c0 -207 -152 -369 -358 -369c-205 0 -358 162 -358 369zM126 357c0 -172 122 -304 286 -304c165 0 286 132 286 304c0 166 -121 293 -286 293
c-164 0 -286 -127 -286 -293z" />
    <glyph glyph-name="ohungarumlaut" unicode="&#x151;" horiz-adv-x="624" 
d="M333 585l70 119h77l-87 -119h-60zM199 585l65 119h68l-68 -119h-65zM47 254c0 149 118 261 265 261s266 -112 266 -261c0 -152 -119 -266 -266 -266s-265 114 -265 266zM117 254c0 -118 87 -204 195 -204s196 86 196 204c0 114 -88 200 -196 200s-195 -86 -195 -200z" />
    <glyph glyph-name="OE" unicode="&#x152;" horiz-adv-x="943" 
d="M55 352c0 202 151 360 359 360c40 0 87 -9 119 -9h347v-62h-327v-256h267v-62h-267v-261h345v-62h-365c-31 0 -79 -10 -119 -10c-208 0 -359 159 -359 362zM127 352c0 -169 115 -299 287 -299c38 0 70 8 70 8v581s-32 8 -70 8c-172 0 -287 -130 -287 -298z" />
    <glyph glyph-name="oe" unicode="&#x153;" horiz-adv-x="1013" 
d="M47 251c0 159 121 264 264 264c101 0 185 -52 227 -135h2c39 86 119 135 215 135c140 0 211 -107 211 -232c0 -13 -2 -34 -2 -34h-386c6 -131 94 -199 195 -199c56 0 111 23 153 60l31 -52c-47 -43 -119 -70 -187 -70c-105 0 -188 53 -229 137h-2
c-42 -85 -126 -137 -228 -137c-143 0 -264 103 -264 263zM581 303h315c-4 104 -67 155 -142 155c-84 0 -157 -55 -173 -155zM117 251c0 -122 89 -201 195 -201s196 79 196 204c0 122 -92 200 -196 200c-106 0 -195 -82 -195 -203z" />
    <glyph glyph-name="Racute" unicode="&#x154;" horiz-adv-x="617" 
d="M268 752l69 119h79l-87 -119h-61zM101 0v703h213c67 0 100 -7 129 -20c63 -30 104 -91 104 -176c0 -95 -54 -172 -134 -194v-2s8 -9 19 -28l153 -283h-80l-158 296h-177v-296h-69zM170 358h167c85 0 139 59 139 147c0 56 -27 102 -74 123c-20 9 -42 13 -92 13h-140v-283z
" />
    <glyph glyph-name="racute" unicode="&#x155;" horiz-adv-x="357" 
d="M181 584l69 119h79l-87 -119h-61zM81 0v503h67v-93c0 -22 -4 -40 -4 -40h2c25 76 83 138 161 138c9 0 19 -1 27 -3v-67c-3 1 -15 2 -25 2c-113 0 -160 -127 -160 -227v-213h-68z" />
    <glyph glyph-name="Rcommaaccent" unicode="&#x156;" horiz-adv-x="617" 
d="M287 -63h65c4 -18 6 -33 6 -49c0 -30 -8 -57 -23 -90h-56c12 30 19 55 19 81c0 18 -3 36 -11 58zM101 0v703h213c67 0 100 -7 129 -20c63 -30 104 -91 104 -176c0 -95 -54 -172 -134 -194v-2s8 -9 19 -28l153 -283h-80l-158 296h-177v-296h-69zM170 358h167
c85 0 139 59 139 147c0 56 -27 102 -74 123c-20 9 -42 13 -92 13h-140v-283z" />
    <glyph glyph-name="rcommaaccent" unicode="&#x157;" horiz-adv-x="357" 
d="M84 -63h65c4 -18 6 -33 6 -49c0 -30 -8 -57 -23 -90h-56c12 30 19 55 19 81c0 18 -3 36 -11 58zM81 0v503h67v-93c0 -22 -4 -40 -4 -40h2c25 76 83 138 161 138c9 0 19 -1 27 -3v-67c-3 1 -15 2 -25 2c-113 0 -160 -127 -160 -227v-213h-68z" />
    <glyph glyph-name="Rcaron" unicode="&#x158;" horiz-adv-x="617" 
d="M263 752l-83 119h66l54 -80h2l54 80h66l-84 -119h-75zM101 0v703h213c67 0 100 -7 129 -20c63 -30 104 -91 104 -176c0 -95 -54 -172 -134 -194v-2s8 -9 19 -28l153 -283h-80l-158 296h-177v-296h-69zM170 358h167c85 0 139 59 139 147c0 56 -27 102 -74 123
c-20 9 -42 13 -92 13h-140v-283z" />
    <glyph glyph-name="rcaron" unicode="&#x159;" horiz-adv-x="357" 
d="M177 584l-83 119h66l54 -80h2l54 80h66l-84 -119h-75zM81 0v503h67v-93c0 -22 -4 -40 -4 -40h2c25 76 83 138 161 138c9 0 19 -1 27 -3v-67c-3 1 -15 2 -25 2c-113 0 -160 -127 -160 -227v-213h-68z" />
    <glyph glyph-name="Sacute" unicode="&#x15a;" horiz-adv-x="534" 
d="M236 752l69 119h79l-87 -119h-61zM47 78l41 53c44 -43 112 -77 182 -77c83 0 142 47 142 120c0 177 -350 135 -350 353c0 115 97 188 221 188c66 0 138 -23 186 -68l-34 -58c-38 36 -99 60 -155 60c-80 0 -147 -44 -147 -118c0 -169 350 -124 350 -350
c0 -108 -79 -193 -215 -193c-81 0 -163 32 -221 90z" />
    <glyph glyph-name="sacute" unicode="&#x15b;" horiz-adv-x="438" 
d="M189 585l69 119h79l-87 -119h-61zM37 61l36 48c38 -39 97 -61 152 -61c56 0 101 28 101 81c0 112 -268 81 -268 246c0 92 79 140 171 140c55 0 114 -16 155 -55l-32 -51c-29 29 -81 46 -126 46c-53 0 -101 -23 -101 -78c0 -115 269 -81 269 -247
c0 -83 -71 -142 -170 -142c-67 0 -139 23 -187 73z" />
    <glyph glyph-name="Scircumflex" unicode="&#x15c;" horiz-adv-x="534" 
d="M148 752l83 119h75l84 -119h-66l-54 80h-2l-54 -80h-66zM47 78l41 53c44 -43 112 -77 182 -77c83 0 142 47 142 120c0 177 -350 135 -350 353c0 115 97 188 221 188c66 0 138 -23 186 -68l-34 -58c-38 36 -99 60 -155 60c-80 0 -147 -44 -147 -118
c0 -169 350 -124 350 -350c0 -108 -79 -193 -215 -193c-81 0 -163 32 -221 90z" />
    <glyph glyph-name="scircumflex" unicode="&#x15d;" horiz-adv-x="438" 
d="M102 585l83 119h75l84 -119h-66l-54 80h-2l-54 -80h-66zM37 61l36 48c38 -39 97 -61 152 -61c56 0 101 28 101 81c0 112 -268 81 -268 246c0 92 79 140 171 140c55 0 114 -16 155 -55l-32 -51c-29 29 -81 46 -126 46c-53 0 -101 -23 -101 -78c0 -115 269 -81 269 -247
c0 -83 -71 -142 -170 -142c-67 0 -139 23 -187 73z" />
    <glyph glyph-name="Scedilla" unicode="&#x15e;" horiz-adv-x="535" 
d="M227 -91l18 80c-73 6 -146 36 -198 89l41 53c44 -43 112 -77 182 -77c83 0 142 47 142 120c0 177 -350 135 -350 353c0 115 97 188 221 188c66 0 138 -23 186 -68l-34 -58c-38 36 -99 60 -155 60c-80 0 -147 -44 -147 -118c0 -169 350 -124 350 -350
c0 -102 -71 -184 -193 -192l-8 -44c41 -6 70 -31 70 -71c0 -58 -47 -79 -96 -79c-17 0 -34 1 -50 5v48c10 -4 29 -6 42 -6c26 0 51 7 51 34c0 22 -22 34 -57 34c-8 0 -15 -1 -15 -1z" />
    <glyph glyph-name="scedilla" unicode="&#x15f;" horiz-adv-x="440" 
d="M179 -91l19 80c-59 6 -119 28 -160 72l36 48c38 -39 97 -61 152 -61c56 0 101 28 101 81c0 112 -268 81 -268 246c0 92 79 140 171 140c55 0 114 -16 155 -55l-32 -51c-29 29 -81 46 -126 46c-53 0 -101 -23 -101 -78c0 -115 269 -81 269 -247c0 -78 -63 -135 -153 -141
l-8 -44c41 -6 70 -31 70 -71c0 -58 -47 -79 -96 -79c-17 0 -34 1 -50 5v48c10 -4 29 -6 42 -6c26 0 51 7 51 34c0 22 -22 34 -57 34c-8 0 -15 -1 -15 -1z" />
    <glyph glyph-name="Scaron" unicode="&#x160;" horiz-adv-x="534" 
d="M231 752l-83 119h66l54 -80h2l54 80h66l-84 -119h-75zM47 78l41 53c44 -43 112 -77 182 -77c83 0 142 47 142 120c0 177 -350 135 -350 353c0 115 97 188 221 188c66 0 138 -23 186 -68l-34 -58c-38 36 -99 60 -155 60c-80 0 -147 -44 -147 -118
c0 -169 350 -124 350 -350c0 -108 -79 -193 -215 -193c-81 0 -163 32 -221 90z" />
    <glyph glyph-name="scaron" unicode="&#x161;" horiz-adv-x="438" 
d="M185 585l-83 119h66l54 -80h2l54 80h66l-84 -119h-75zM37 61l36 48c38 -39 97 -61 152 -61c56 0 101 28 101 81c0 112 -268 81 -268 246c0 92 79 140 171 140c55 0 114 -16 155 -55l-32 -51c-29 29 -81 46 -126 46c-53 0 -101 -23 -101 -78c0 -115 269 -81 269 -247
c0 -83 -71 -142 -170 -142c-67 0 -139 23 -187 73z" />
    <glyph glyph-name="Tcommaaccent" unicode="&#x162;" horiz-adv-x="607" 
d="M269 0v641h-252v62h574v-62h-253v-641h-14l-10 -55c41 -6 70 -31 70 -71c0 -58 -47 -79 -96 -79c-17 0 -34 1 -50 5v48c10 -4 29 -6 42 -6c26 0 51 7 51 34c0 22 -22 34 -57 34c-8 0 -15 -1 -15 -1l21 91h-11z" />
    <glyph glyph-name="tcommaaccent" unicode="&#x163;" horiz-adv-x="325" 
d="M153 -91l25 109c-42 24 -79 71 -79 165v259h-66v57h67v143h67v-143h127v-57h-127v-252c0 -117 75 -133 114 -133c7 0 14 0 23 2v-61c-6 -1 -16 -2 -29 -2c-16 0 -36 1 -57 6l-10 -57c41 -6 70 -31 70 -71c0 -58 -47 -79 -96 -79c-17 0 -34 1 -50 5v48c10 -4 29 -6 42 -6
c26 0 51 7 51 34c0 22 -22 34 -57 34c-8 0 -15 -1 -15 -1z" />
    <glyph glyph-name="Tcaron" unicode="&#x164;" horiz-adv-x="607" 
d="M265 752l-83 119h66l54 -80h2l54 80h66l-84 -119h-75zM269 0v641h-252v62h574v-62h-253v-641h-69z" />
    <glyph glyph-name="tcaron" unicode="&#x165;" horiz-adv-x="325" 
d="M234 702h65c4 -18 6 -33 6 -49c0 -29 -8 -56 -23 -89h-56c12 30 19 55 19 80c0 18 -3 36 -11 58zM99 183v259h-66v57h67v143h67v-143h127v-57h-127v-252c0 -117 75 -133 114 -133c7 0 14 0 23 2v-61c-6 -1 -16 -2 -29 -2c-58 0 -176 19 -176 187z" />
    <glyph glyph-name="Tbar" unicode="&#x166;" horiz-adv-x="617" 
d="M274 0v324h-161v57h161v260h-252v62h574v-62h-253v-260h166v-57h-166v-324h-69z" />
    <glyph glyph-name="tbar" unicode="&#x167;" horiz-adv-x="330" 
d="M33 278v53h69v111h-66v57h66v143h67v-143h127v-57h-127v-111h125v-53h-125v-90c0 -115 75 -131 114 -131c14 0 23 2 23 2v-61s-12 -2 -29 -2c-58 0 -175 19 -175 187v95h-69z" />
    <glyph glyph-name="Utilde" unicode="&#x168;" horiz-adv-x="723" 
d="M93 245v458h69v-457c0 -121 79 -193 199 -193c121 0 200 72 200 195v455h70v-458c0 -156 -110 -257 -269 -257s-269 101 -269 257zM205 755c0 77 31 116 92 116c67 0 81 -71 126 -71c33 0 40 43 40 68h54c0 -76 -31 -116 -92 -116c-67 0 -81 71 -126 71
c-33 0 -39 -42 -39 -68h-55z" />
    <glyph glyph-name="utilde" unicode="&#x169;" horiz-adv-x="588" 
d="M75 183v320h69v-302c0 -79 12 -149 109 -149c115 0 186 101 186 210v241h68v-503h-67v79c0 22 4 40 4 40h-2c-19 -49 -87 -131 -198 -131c-119 0 -169 64 -169 195zM135 588c0 77 31 116 92 116c67 0 81 -71 126 -71c33 0 40 43 40 68h54c0 -76 -31 -116 -92 -116
c-67 0 -81 71 -126 71c-33 0 -39 -42 -39 -68h-55z" />
    <glyph glyph-name="Umacron" unicode="&#x16a;" horiz-adv-x="723" 
d="M93 245v458h69v-457c0 -121 79 -193 199 -193c121 0 200 72 200 195v455h70v-458c0 -156 -110 -257 -269 -257s-269 101 -269 257zM238 785v55h246v-55h-246z" />
    <glyph glyph-name="umacron" unicode="&#x16b;" horiz-adv-x="588" 
d="M75 183v320h69v-302c0 -79 12 -149 109 -149c115 0 186 101 186 210v241h68v-503h-67v79c0 22 4 40 4 40h-2c-19 -49 -87 -131 -198 -131c-119 0 -169 64 -169 195zM168 618v55h246v-55h-246z" />
    <glyph glyph-name="Ubreve" unicode="&#x16c;" horiz-adv-x="723" 
d="M93 245v458h69v-457c0 -121 79 -193 199 -193c121 0 200 72 200 195v455h70v-458c0 -156 -110 -257 -269 -257s-269 101 -269 257zM361 749c-60 0 -116 36 -116 107v15h55v-14c0 -43 28 -61 61 -61c30 0 60 18 60 62v13h55v-15c0 -71 -56 -107 -115 -107z" />
    <glyph glyph-name="ubreve" unicode="&#x16d;" horiz-adv-x="588" 
d="M75 183v320h69v-302c0 -79 12 -149 109 -149c115 0 186 101 186 210v241h68v-503h-67v79c0 22 4 40 4 40h-2c-19 -49 -87 -131 -198 -131c-119 0 -169 64 -169 195zM291 582c-60 0 -116 36 -116 107v15h55v-14c0 -43 28 -61 61 -61c30 0 60 18 60 62v13h55v-15
c0 -71 -56 -107 -115 -107z" />
    <glyph glyph-name="Uring" unicode="&#x16e;" horiz-adv-x="723" 
d="M361 742c-42 0 -76 28 -76 70s34 71 76 71c40 0 75 -29 75 -71s-35 -70 -75 -70zM361 779c19 0 32 14 32 33c0 20 -13 34 -32 34c-20 0 -33 -14 -33 -34c0 -19 13 -33 33 -33zM93 245v458h69v-457c0 -121 79 -193 199 -193c121 0 200 72 200 195v455h70v-458
c0 -156 -110 -257 -269 -257s-269 101 -269 257z" />
    <glyph glyph-name="uring" unicode="&#x16f;" horiz-adv-x="588" 
d="M291 575c-42 0 -76 28 -76 70s34 71 76 71c40 0 75 -29 75 -71s-35 -70 -75 -70zM291 612c19 0 32 14 32 33c0 20 -13 34 -32 34c-20 0 -33 -14 -33 -34c0 -19 13 -33 33 -33zM75 183v320h69v-302c0 -79 12 -149 109 -149c115 0 186 101 186 210v241h68v-503h-67v79
c0 22 4 40 4 40h-2c-19 -49 -87 -131 -198 -131c-119 0 -169 64 -169 195z" />
    <glyph glyph-name="Uhungarumlaut" unicode="&#x170;" horiz-adv-x="723" 
d="M93 245v458h69v-457c0 -121 79 -193 199 -193c121 0 200 72 200 195v455h70v-458c0 -156 -110 -257 -269 -257s-269 101 -269 257zM382 752l70 119h77l-87 -119h-60zM248 752l65 119h68l-68 -119h-65z" />
    <glyph glyph-name="uhungarumlaut" unicode="&#x171;" horiz-adv-x="588" 
d="M75 183v320h69v-302c0 -79 12 -149 109 -149c115 0 186 101 186 210v241h68v-503h-67v79c0 22 4 40 4 40h-2c-19 -49 -87 -131 -198 -131c-119 0 -169 64 -169 195zM312 585l70 119h77l-87 -119h-60zM178 585l65 119h68l-68 -119h-65z" />
    <glyph glyph-name="Uogonek" unicode="&#x172;" horiz-adv-x="723" 
d="M93 245v458h69v-457c0 -121 79 -193 200 -193c120 0 200 72 200 195v455h69v-458c0 -128 -68 -186 -132 -228c-54 -36 -105 -69 -105 -116c0 -45 62 -50 62 -50l-16 -56s-110 7 -110 92c0 43 27 78 54 102c0 0 -16 -1 -24 -1c-150 0 -267 95 -267 257z" />
    <glyph glyph-name="uogonek" unicode="&#x173;" horiz-adv-x="588" 
d="M75 183v320h69v-302c0 -79 12 -149 109 -149c115 0 186 101 186 210v241h68v-503c-22 -17 -73 -59 -73 -99c0 -45 62 -50 62 -50l-15 -56s-110 7 -110 92c0 51 42 91 72 113h-3v79c0 22 4 40 4 40h-2c-19 -49 -87 -131 -198 -131c-119 0 -169 64 -169 195z" />
    <glyph glyph-name="Wcircumflex" unicode="&#x174;" horiz-adv-x="927" 
d="M350 752l83 119h75l84 -119h-66l-54 80h-2l-54 -80h-66zM217 0l-182 703h73l136 -546c9 -36 16 -75 16 -75h2s7 38 18 75l150 546h66l150 -546c10 -37 17 -75 17 -75h2s6 39 15 75l143 546h72l-188 -703h-82l-136 495c-13 45 -25 105 -25 105h-3s-12 -60 -25 -105
l-136 -495h-83z" />
    <glyph glyph-name="wcircumflex" unicode="&#x175;" horiz-adv-x="825" 
d="M291 585l83 119h75l84 -119h-66l-54 80h-2l-54 -80h-66zM199 0l-170 503h73l121 -374c8 -25 15 -54 15 -54h2s8 29 16 54l123 372h68l123 -372c8 -25 16 -54 16 -54h2s6 28 15 54l121 374h72l-169 -503h-75l-123 358c-8 25 -15 55 -15 55h-2s-8 -30 -16 -55l-122 -358
h-75z" />
    <glyph glyph-name="Ycircumflex" unicode="&#x176;" horiz-adv-x="579" 
d="M255 0v302l-238 401h79l149 -255c21 -37 43 -84 43 -84h2s22 47 43 84l149 255h79l-237 -401v-302h-69zM168 752l83 119h75l84 -119h-66l-54 80h-2l-54 -80h-66z" />
    <glyph glyph-name="ycircumflex" unicode="&#x177;" horiz-adv-x="526" 
d="M45 -126c0 0 28 -23 60 -23c44 0 76 36 96 82l30 72l-209 498h75l147 -367c10 -25 19 -53 19 -53h2s7 28 17 53l145 367h73l-248 -608c-26 -64 -77 -105 -144 -105c-52 0 -89 30 -89 30zM143 584l83 119h75l84 -119h-66l-54 80h-2l-54 -80h-66z" />
    <glyph glyph-name="Ydieresis" unicode="&#x178;" horiz-adv-x="579" 
d="M255 0v302l-238 401h79l149 -255c21 -37 43 -84 43 -84h2s22 47 43 84l149 255h79l-237 -401v-302h-69zM329 785v86h62v-86h-62zM178 785v86h61v-86h-61z" />
    <glyph glyph-name="Zacute" unicode="&#x179;" horiz-adv-x="579" 
d="M268 752l69 119h79l-87 -119h-61zM35 0v49l364 528c25 38 49 64 49 64v2s-17 -2 -52 -2h-341v62h479v-49l-364 -528c-25 -38 -49 -64 -49 -64v-2s17 2 52 2h364v-62h-502z" />
    <glyph glyph-name="zacute" unicode="&#x17a;" horiz-adv-x="498" 
d="M214 585l69 119h79l-87 -119h-61zM37 0v44l281 353c19 24 40 46 40 46v2s-17 -2 -50 -2h-259v60h401v-45l-281 -352c-19 -25 -41 -46 -41 -46v-2s17 2 50 2h282v-60h-423z" />
    <glyph glyph-name="Zdotaccent" unicode="&#x17b;" horiz-adv-x="579" 
d="M35 0v49l364 528c25 38 49 64 49 64v2s-17 -2 -52 -2h-341v62h479v-49l-364 -528c-25 -38 -49 -64 -49 -64v-2s17 2 52 2h364v-62h-502zM268 786v85h65v-85h-65z" />
    <glyph glyph-name="zdotaccent" unicode="&#x17c;" horiz-adv-x="498" 
d="M37 0v44l281 353c19 24 40 46 40 46v2s-17 -2 -50 -2h-259v60h401v-45l-281 -352c-19 -25 -41 -46 -41 -46v-2s17 2 50 2h282v-60h-423zM216 619v85h65v-85h-65z" />
    <glyph glyph-name="Zcaron" unicode="&#x17d;" horiz-adv-x="579" 
d="M262 752l-83 119h66l54 -80h2l54 80h66l-84 -119h-75zM35 0v49l364 528c25 38 49 64 49 64v2s-17 -2 -52 -2h-341v62h479v-49l-364 -528c-25 -38 -49 -64 -49 -64v-2s17 2 52 2h364v-62h-502z" />
    <glyph glyph-name="zcaron" unicode="&#x17e;" horiz-adv-x="498" 
d="M210 585l-83 119h66l54 -80h2l54 80h66l-84 -119h-75zM37 0v44l281 353c19 24 40 46 40 46v2s-17 -2 -50 -2h-259v60h401v-45l-281 -352c-19 -25 -41 -46 -41 -46v-2s17 2 50 2h282v-60h-423z" />
    <glyph glyph-name="longs" unicode="&#x17f;" horiz-adv-x="270" 
d="M100 0v442h-63v57h63v23c0 165 118 186 174 186c19 0 31 -3 31 -3v-60s-9 2 -24 2c-39 0 -112 -14 -112 -126v-521h-69z" />
    <glyph glyph-name="florin" unicode="&#x192;" horiz-adv-x="568" 
d="M34 -40c0 0 33 -5 64 -5c39 0 113 14 123 128l24 282h-89v57h94l10 107c14 165 134 186 191 186c40 0 82 -7 82 -7v-60s-45 7 -81 7c-39 0 -112 -15 -123 -129l-10 -104h125v-57h-130l-25 -285c-15 -166 -133 -186 -189 -186c-36 0 -66 6 -66 6v60z" />
    <glyph glyph-name="Scommaaccent" unicode="&#x218;" horiz-adv-x="534" 
d="M232 -63h65c4 -18 6 -33 6 -49c0 -30 -8 -57 -23 -90h-56c12 30 19 55 19 81c0 18 -3 36 -11 58zM47 78l41 53c44 -43 112 -77 182 -77c83 0 142 47 142 120c0 177 -350 135 -350 353c0 115 97 188 221 188c66 0 138 -23 186 -68l-34 -58c-38 36 -99 60 -155 60
c-80 0 -147 -44 -147 -118c0 -169 350 -124 350 -350c0 -108 -79 -193 -215 -193c-81 0 -163 32 -221 90z" />
    <glyph glyph-name="scommaaccent" unicode="&#x219;" horiz-adv-x="438" 
d="M187 -63h65c4 -18 6 -33 6 -49c0 -30 -8 -57 -23 -90h-56c12 30 19 55 19 81c0 18 -3 36 -11 58zM37 61l36 48c38 -39 97 -61 152 -61c56 0 101 28 101 81c0 112 -268 81 -268 246c0 92 79 140 171 140c55 0 114 -16 155 -55l-32 -51c-29 29 -81 46 -126 46
c-53 0 -101 -23 -101 -78c0 -115 269 -81 269 -247c0 -83 -71 -142 -170 -142c-67 0 -139 23 -187 73z" />
    <glyph glyph-name="uni021A" unicode="&#x21a;" horiz-adv-x="607" 
d="M269 -63h65c4 -18 6 -33 6 -49c0 -30 -8 -57 -23 -90h-56c12 30 19 55 19 81c0 18 -3 36 -11 58zM269 0v641h-252v62h574v-62h-253v-641h-69z" />
    <glyph glyph-name="uni021B" unicode="&#x21b;" horiz-adv-x="325" 
d="M169 -63h65c4 -18 6 -33 6 -49c0 -30 -8 -57 -23 -90h-56c12 30 19 55 19 81c0 18 -3 36 -11 58zM99 183v259h-66v57h67v143h67v-143h127v-57h-127v-252c0 -117 75 -133 114 -133c7 0 14 0 23 2v-61c-6 -1 -16 -2 -29 -2c-58 0 -176 19 -176 187z" />
    <glyph glyph-name="circumflex" unicode="&#x2c6;" horiz-adv-x="504" 
d="M131 752l83 119h75l84 -119h-66l-54 80h-2l-54 -80h-66z" />
    <glyph glyph-name="caron" unicode="&#x2c7;" horiz-adv-x="504" 
d="M214 752l-83 119h66l54 -80h2l54 80h66l-84 -119h-75z" />
    <glyph glyph-name="breve" unicode="&#x2d8;" horiz-adv-x="505" 
d="M253 749c-60 0 -116 36 -116 107v15h55v-14c0 -43 28 -61 61 -61c30 0 60 18 60 62v13h55v-15c0 -71 -56 -107 -115 -107z" />
    <glyph glyph-name="dotaccent" unicode="&#x2d9;" horiz-adv-x="505" 
d="M220 786v85h65v-85h-65z" />
    <glyph glyph-name="ring" unicode="&#x2da;" horiz-adv-x="505" 
d="M253 742c-42 0 -76 28 -76 70s34 71 76 71c40 0 75 -29 75 -71s-35 -70 -75 -70zM253 779c19 0 32 14 32 33c0 20 -13 34 -32 34c-20 0 -33 -14 -33 -34c0 -19 13 -33 33 -33z" />
    <glyph glyph-name="ogonek" unicode="&#x2db;" horiz-adv-x="504" 
d="M179 -113c0 80 98 135 98 135l49 -13s-84 -57 -84 -108c0 -45 62 -50 62 -50l-15 -56s-110 7 -110 92z" />
    <glyph glyph-name="tilde" unicode="&#x2dc;" horiz-adv-x="504" 
d="M96 755c0 77 31 116 92 116c67 0 81 -71 126 -71c33 0 40 43 40 68h54c0 -76 -31 -116 -92 -116c-67 0 -81 71 -126 71c-33 0 -39 -42 -39 -68h-55z" />
    <glyph glyph-name="hungarumlaut" unicode="&#x2dd;" horiz-adv-x="504" 
d="M246 752l70 119h77l-87 -119h-60zM112 752l65 119h68l-68 -119h-65z" />
    <glyph glyph-name="uni1E9E" unicode="&#x1e9e;" horiz-adv-x="666" 
d="M95 0v516c0 106 81 187 188 187h304v-48l-157 -223c-16 -23 -26 -35 -26 -35v-2h31c104 -4 181 -93 181 -195c0 -110 -89 -200 -200 -200h-161v62h156c79 0 134 63 134 138s-55 137 -132 137h-90v49l135 196c30 45 45 59 45 59v2s-7 -2 -43 -2h-172
c-73 0 -123 -55 -123 -124v-517h-70z" />
    <glyph glyph-name="endash" unicode="&#x2013;" horiz-adv-x="649" 
d="M75 255v58h500v-58h-500z" />
    <glyph glyph-name="emdash" unicode="&#x2014;" horiz-adv-x="849" 
d="M75 255v58h700v-58h-700z" />
    <glyph glyph-name="quoteleft" unicode="&#x2018;" horiz-adv-x="238" 
d="M67 541l57 171h54l-39 -171h-72z" />
    <glyph glyph-name="quoteright" unicode="&#x2019;" horiz-adv-x="234" 
d="M70 541l39 171h72l-56 -171h-55z" />
    <glyph glyph-name="quotesinglbase" unicode="&#x201a;" horiz-adv-x="250" 
d="M59 -90l39 172h70l-56 -172h-53z" />
    <glyph glyph-name="quotedblleft" unicode="&#x201c;" horiz-adv-x="358" 
d="M187 541l56 171h55l-39 -171h-72zM67 541l57 171h54l-39 -171h-72z" />
    <glyph glyph-name="quotedblright" unicode="&#x201d;" horiz-adv-x="353" 
d="M190 541l38 171h72l-56 -171h-54zM70 541l39 171h72l-56 -171h-55z" />
    <glyph glyph-name="quotedblbase" unicode="&#x201e;" horiz-adv-x="369" 
d="M177 -90l39 172h71l-56 -172h-54zM59 -90l39 172h70l-56 -172h-53z" />
    <glyph glyph-name="dagger" unicode="&#x2020;" horiz-adv-x="401" 
d="M165 -50v495h-117v58h117v200h67v-200h121v-58h-121v-495h-67z" />
    <glyph glyph-name="daggerdbl" unicode="&#x2021;" horiz-adv-x="427" 
d="M61 179v58h117v208h-117v58h117v200h67v-200h121v-58h-121v-208h121v-58h-121v-229h-67v229h-117z" />
    <glyph glyph-name="bullet" unicode="&#x2022;" horiz-adv-x="459" 
d="M230 148c-79 0 -143 64 -143 143s64 143 143 143s142 -64 142 -143s-63 -143 -142 -143z" />
    <glyph glyph-name="ellipsis" unicode="&#x2026;" horiz-adv-x="699" 
d="M544 0v83h81v-83h-81zM309 0v83h80v-83h-80zM74 0v83h80v-83h-80z" />
    <glyph glyph-name="perthousand" unicode="&#x2030;" horiz-adv-x="1048" 
d="M196 437c-78 0 -140 62 -140 139c0 76 62 139 140 139s141 -63 141 -139c0 -77 -63 -139 -141 -139zM62 0l535 703h72l-535 -703h-72zM196 493c46 0 81 37 81 83c0 45 -35 83 -81 83s-81 -38 -81 -83c0 -46 35 -83 81 -83zM730 126c0 77 63 140 140 140
c78 0 141 -63 141 -140c0 -76 -63 -138 -141 -138c-77 0 -140 62 -140 138zM394 126c0 77 62 140 140 140c77 0 141 -63 141 -140c0 -76 -64 -138 -141 -138c-78 0 -140 62 -140 138zM790 127c0 -46 34 -83 80 -83s82 37 82 83c0 45 -36 83 -82 83s-80 -38 -80 -83zM453 127
c0 -46 35 -83 81 -83s81 37 81 83c0 45 -35 83 -81 83s-81 -38 -81 -83z" />
    <glyph glyph-name="guilsinglleft" unicode="&#x2039;" horiz-adv-x="346" 
d="M214 77l-164 205l164 206h74l-164 -206l164 -205h-74z" />
    <glyph glyph-name="guilsinglright" unicode="&#x203a;" horiz-adv-x="346" 
d="M58 77l164 205l-164 206h74l164 -206l-164 -205h-74z" />
    <glyph glyph-name="fraction" unicode="&#x2044;" horiz-adv-x="159" 
d="M-58 0h-59l336 703h58z" />
    <glyph glyph-name="Euro" unicode="&#x20ac;" horiz-adv-x="568" 
d="M27 266v51h54c-3 18 -3 57 1 81h-55v51h64c39 155 171 266 336 266c31 0 63 -4 94 -12l-16 -65c-23 7 -52 11 -79 11c-129 0 -227 -81 -261 -200h306l-11 -51h-306c-4 -25 -4 -55 -1 -81h292l-9 -51h-272c30 -125 132 -211 263 -211c29 0 62 4 89 13l16 -65
c-28 -9 -70 -15 -105 -15c-171 0 -303 115 -338 278h-62z" />
    <glyph glyph-name="trademark" unicode="&#x2122;" horiz-adv-x="980" 
d="M470 265l35 438h51l116 -251c8 -19 14 -41 14 -41h2s5 22 13 41l116 251h51l35 -438h-56l-24 297c-1 15 1 29 1 29h-2l-112 -244h-47l-112 244h-2s2 -14 1 -29l-24 -297h-56zM220 265v386h-156v52h369v-52h-157v-386h-56z" />
    <glyph glyph-name="minus" unicode="&#x2212;" horiz-adv-x="568" 
d="M31 255v58h506v-58h-506z" />
    <glyph glyph-name="infinity" unicode="&#x221e;" horiz-adv-x="470" 
d="M235 176c-95 0 -173 78 -173 173c0 96 78 172 173 172c96 0 173 -76 173 -172c0 -95 -77 -173 -173 -173z" />
    <glyph glyph-name="approxequal" unicode="&#x2248;" horiz-adv-x="568" 
d="M72 321l-33 44c33 33 86 69 146 69c94 0 127 -70 198 -70c43 0 86 27 113 56l33 -44c-32 -33 -86 -69 -146 -69c-94 0 -127 70 -198 70c-43 0 -86 -28 -113 -56zM72 148l-33 43c33 33 86 69 146 69c94 0 127 -70 198 -70c43 0 86 27 113 56l33 -44
c-32 -33 -86 -69 -146 -69c-94 0 -127 70 -198 70c-43 0 -86 -27 -113 -55z" />
    <glyph glyph-name="notequal" unicode="&#x2260;" horiz-adv-x="568" 
d="M107 83l62 85h-119v58h159l86 116h-245v58h286l85 116l42 -29l-65 -87h118v-58h-158l-86 -116h244v-58h-284l-84 -114z" />
    <glyph glyph-name="lessequal" unicode="&#x2264;" horiz-adv-x="568" 
d="M51 259v50l452 202v-67l-368 -159v-2l368 -159v-67zM52 -104h451v-58h-451v58z" />
    <glyph glyph-name="greaterequal" unicode="&#x2265;" horiz-adv-x="568" 
d="M65 57v67l367 159v2l-367 159v67l452 -202v-50zM64 -104h451v-58h-451v58z" />
    <glyph glyph-name="commaaccent" unicode="&#xf6c3;" horiz-adv-x="335" 
d="M135 -63h65c4 -18 6 -33 6 -49c0 -30 -8 -57 -23 -90h-56c12 30 19 55 19 81c0 18 -3 36 -11 58z" />
    <glyph glyph-name="apple" unicode="&#xf8ff;" horiz-adv-x="1130" 
d="M168 -5v152l-126 72v278l126 71v151l265 142l134 -71l132 71l265 -142v-151l124 -71v-278l-124 -72v-152l-265 -141l-132 71l-134 -71zM208 30l238 -126l121 66l118 -66l238 126v139l114 64v249l-114 66v136l-238 126l-118 -64l-121 64l-238 -126v-136l-114 -66v-249
l114 -64v-139zM242 64v121l-99 60v225l99 58v123l215 114l110 -59l107 59l214 -114v-123l100 -58v-225l-100 -60v-121l-214 -114l-107 58l-110 -58zM447 91h43v228h228v40h-228v192h199c23 0 29 -8 29 -29v-42h42v54c0 39 -15 57 -58 57h-320v-40h65v-460z" />
    <glyph glyph-name="zero.tnum" horiz-adv-x="568" 
d="M284 -12c-182 0 -242 161 -242 364c0 202 60 363 242 363c183 0 243 -161 243 -363c0 -203 -60 -364 -243 -364zM284 53c134 0 171 130 171 299c0 167 -37 297 -171 297c-133 0 -170 -130 -170 -297c0 -169 37 -299 170 -299z" />
    <glyph glyph-name="one.tnum" horiz-adv-x="568" 
d="M104 0v62h158v516c0 20 1 39 1 39h-2s-7 -14 -35 -42l-75 -74l-44 44l159 158h64v-641h155v-62h-381z" />
    <glyph glyph-name="two.tnum" horiz-adv-x="568" 
d="M63 0c-2 16 -4 31 -4 45c0 247 361 279 361 469c0 77 -58 135 -146 135c-66 0 -124 -41 -158 -96l-51 35c39 71 118 127 213 127c133 0 214 -87 214 -197c0 -236 -355 -269 -357 -456h368v-62h-440z" />
    <glyph glyph-name="three.tnum" horiz-adv-x="568" 
d="M51 84l43 53c39 -43 107 -82 180 -82c84 0 160 61 160 151c0 99 -85 150 -176 150h-49l-17 41l176 206c19 22 37 39 37 39v2s-20 -3 -57 -3h-264v62h411v-46l-209 -242c88 -4 219 -55 219 -207c0 -120 -98 -220 -231 -220c-82 0 -165 36 -223 96z" />
    <glyph glyph-name="four.tnum" horiz-adv-x="568" 
d="M21 195v45l345 463h75v-448h100v-60h-100v-195h-69v195h-351zM104 255h268v295c0 30 4 67 4 67h-2s-17 -29 -35 -54l-235 -306v-2z" />
    <glyph glyph-name="five.tnum" horiz-adv-x="568" 
d="M59 87l45 49c27 -39 79 -81 158 -81c97 0 175 68 175 164s-77 166 -178 166c-43 0 -93 -15 -128 -39l-44 16l38 341h340v-62h-279l-21 -180c-3 -25 -6 -40 -6 -40h2c19 12 65 27 106 27c141 0 242 -103 242 -229c0 -130 -107 -231 -244 -231c-81 0 -159 36 -206 99z" />
    <glyph glyph-name="six.tnum" horiz-adv-x="568" 
d="M51 317c0 177 91 398 308 398c45 0 90 -9 130 -29l-26 -61c-26 15 -68 24 -104 24c-145 0 -220 -145 -232 -281h2c34 50 105 82 178 82c128 0 218 -93 218 -230c0 -142 -97 -232 -220 -232c-153 0 -254 141 -254 329zM309 53c88 0 146 72 146 169c0 101 -63 166 -159 166
c-86 0 -170 -52 -170 -128c0 -72 62 -207 183 -207z" />
    <glyph glyph-name="seven.tnum" horiz-adv-x="568" 
d="M123 0l284 576c19 38 38 65 38 65v2s-17 -2 -52 -2h-329v62h457v-48l-326 -655h-72z" />
    <glyph glyph-name="eight.tnum" horiz-adv-x="568" 
d="M45 198c0 114 92 180 119 197c-49 32 -85 75 -85 140c0 94 71 180 213 180c130 0 215 -74 215 -182c0 -95 -70 -172 -91 -192c57 -33 100 -77 100 -150c0 -110 -96 -203 -233 -203c-126 0 -238 82 -238 210zM359 369c17 17 78 79 78 159c0 77 -61 123 -146 123
c-90 0 -142 -52 -142 -115c0 -93 113 -122 210 -167zM117 203c0 -91 82 -151 165 -151s163 57 163 138c0 96 -123 124 -225 173c-24 -15 -103 -69 -103 -160z" />
    <glyph glyph-name="nine.tnum" horiz-adv-x="568" 
d="M78 17l27 61c22 -12 62 -25 102 -25c147 0 221 145 234 282h-2c-35 -50 -106 -82 -178 -82c-129 0 -219 94 -219 228c0 145 98 234 221 234c152 0 253 -140 253 -330c0 -176 -91 -397 -309 -397c-43 0 -88 9 -129 29zM271 315c95 0 171 63 171 120c0 94 -73 214 -178 214
c-96 0 -152 -71 -152 -168c0 -100 63 -166 159 -166z" />
    <glyph glyph-name="hyphen.case" horiz-adv-x="432" 
d="M74 318v61h284v-61h-284z" />
    <glyph glyph-name="parenleft.case" horiz-adv-x="278" 
d="M170 -65c-69 120 -112 274 -112 432c0 144 41 276 112 393h64c-73 -122 -113 -253 -113 -394c0 -149 37 -296 113 -431h-64z" />
    <glyph glyph-name="parenright.case" horiz-adv-x="278" 
d="M44 -65c75 135 113 282 113 431c0 141 -41 272 -113 394h63c72 -117 113 -249 113 -393c0 -158 -43 -312 -113 -432h-63z" />
    <glyph glyph-name="bracketleft.case" horiz-adv-x="282" 
d="M92 -65v825h136v-56h-73v-713h73v-56h-136z" />
    <glyph glyph-name="bracketright.case" horiz-adv-x="282" 
d="M54 -9h73v713h-73v56h136v-825h-136v56z" />
    <glyph glyph-name="braceleft.case" horiz-adv-x="340" 
d="M129 113v95c0 58 -28 103 -85 114v62c54 11 85 53 85 115v82c0 165 109 179 149 179h15v-56h-9c-25 0 -92 -9 -92 -125v-98c0 -56 -29 -105 -80 -127v-2c47 -18 80 -61 80 -127v-110c0 -116 67 -125 92 -125h9v-56s-6 -1 -15 -1c-40 0 -149 14 -149 180z" />
    <glyph glyph-name="braceright.case" horiz-adv-x="340" 
d="M47 -10h9c24 0 92 9 92 125v110c0 60 28 108 80 127v2c-44 17 -80 64 -80 127v98c0 116 -68 125 -92 125h-9v56h15c40 0 149 -14 149 -179v-82c0 -58 28 -105 85 -115v-62c-56 -9 -85 -57 -85 -114v-95c0 -166 -109 -180 -149 -180c-10 0 -15 1 -15 1v56z" />
    <glyph glyph-name="at.case" horiz-adv-x="778" 
d="M60 350c0 204 159 368 355 368c182 0 245 -93 245 -190v-315h71v-56h-269c-115 0 -199 88 -199 192c0 103 83 192 199 192h130c-2 62 -54 118 -172 118c-164 0 -291 -141 -291 -309c0 -170 125 -306 296 -306v-60c-208 0 -365 162 -365 366zM333 350
c0 -76 58 -137 135 -137h124v275h-122c-79 0 -137 -63 -137 -138z" />
    <glyph glyph-name="guillemotleft.case" horiz-adv-x="526" 
d="M394 137l-164 205l164 206h74l-164 -206l164 -205h-74zM214 137l-164 205l164 206h74l-164 -206l164 -205h-74z" />
    <glyph glyph-name="guillemotright.case" horiz-adv-x="526" 
d="M238 137l164 205l-164 206h74l164 -206l-164 -205h-74zM58 137l164 205l-164 206h74l164 -206l-164 -205h-74z" />
    <glyph glyph-name="guilsinglleft.case" horiz-adv-x="347" 
d="M214 137l-164 205l164 206h74l-164 -206l164 -205h-74z" />
    <glyph glyph-name="guilsinglright.case" horiz-adv-x="347" 
d="M58 137l164 205l-164 206h74l164 -206l-164 -205h-74z" />
    <glyph glyph-name="endash.case" horiz-adv-x="648" 
d="M74 315v58h500v-58h-500z" />
    <glyph glyph-name="emdash.case" horiz-adv-x="848" 
d="M74 315v58h700v-58h-700z" />
    <glyph glyph-name="periodcentered.case" horiz-adv-x="226" 
d="M74 306v80h77v-80h-77z" />
    <glyph glyph-name="questiondown.case" horiz-adv-x="450" 
d="M292 518v-45c0 -159 -174 -174 -174 -307c0 -64 54 -115 131 -115c42 0 87 17 120 42l38 -50c-36 -32 -99 -57 -161 -57c-114 0 -200 73 -200 177c0 166 179 180 179 312v43h67zM298 702v-79h-79v79h79z" />
    <glyph glyph-name="exclamdown.case" horiz-adv-x="260" 
d="M162 518l3 -519h-70l3 519h64zM168 702v-79h-78v79h78z" />
    <glyph glyph-name="bullet.case" horiz-adv-x="457" 
d="M229 208c-79 0 -143 64 -143 143s64 143 143 143s142 -64 142 -143s-63 -143 -142 -143z" />
    <glyph glyph-name="zero.p_osf" horiz-adv-x="584" 
d="M57 270c0 142 76 285 235 285s235 -143 235 -285s-75 -282 -235 -282s-235 141 -235 282zM127 272c0 -111 53 -222 165 -222s165 111 165 221c0 111 -53 223 -165 223s-165 -112 -165 -222z" />
    <glyph glyph-name="one.p_osf" horiz-adv-x="468" 
d="M71 0v60h156v360c0 27 1 53 1 53h-2s-16 -13 -39 -27l-104 -63l-32 48l180 112h63v-483h139v-60h-362z" />
    <glyph glyph-name="two.p_osf" horiz-adv-x="535" 
d="M64 0v49c208 139 322 234 322 331c0 79 -62 113 -134 113c-60 0 -116 -35 -157 -78l-39 47c39 47 118 93 204 93c129 0 196 -83 196 -167c0 -117 -94 -208 -284 -328v-2s20 2 57 2h253v-60h-418z" />
    <glyph glyph-name="three.p_osf" horiz-adv-x="530" 
d="M40 -38l41 47c31 -34 87 -75 165 -75c83 0 160 53 160 142c0 96 -88 140 -176 140h-49l-17 41l172 193c17 20 35 33 35 33v2s-20 -2 -57 -2h-232v60h384v-42l-210 -229c87 -4 220 -46 220 -193c0 -123 -99 -207 -230 -207c-75 0 -153 31 -206 90z" />
    <glyph glyph-name="four.p_osf" horiz-adv-x="585" 
d="M34 37v45l330 461h74v-446h108v-60h-108v-153h-68v153h-336zM116 97h254v295c0 30 4 67 4 67h-2s-17 -34 -35 -59z" />
    <glyph glyph-name="five.p_osf" horiz-adv-x="535" 
d="M48 -28l42 44c34 -45 95 -74 154 -74c88 0 174 53 174 153c0 99 -84 151 -171 151c-73 0 -128 -35 -128 -35l-42 15l37 317h329v-60h-270l-20 -165c-2 -22 -6 -37 -6 -37h2s46 24 109 24c123 0 230 -74 230 -207c0 -135 -106 -217 -240 -217c-75 0 -153 31 -200 91z" />
    <glyph glyph-name="six.p_osf" horiz-adv-x="588" 
d="M62 290c0 168 90 381 306 381c43 0 89 -9 129 -27l-26 -57c-26 13 -67 23 -102 23c-146 0 -222 -139 -234 -271h2c35 52 106 81 179 81c127 0 218 -86 218 -211c0 -137 -98 -221 -220 -221c-152 0 -252 127 -252 302zM135 248c0 -87 71 -198 178 -198
c96 0 151 66 151 159c0 91 -63 152 -159 152c-94 0 -170 -60 -170 -113z" />
    <glyph glyph-name="seven.p_osf" horiz-adv-x="507" 
d="M100 -116l271 539c18 36 35 60 35 60v2s-17 -2 -52 -2h-314v60h443v-45l-311 -614h-72z" />
    <glyph glyph-name="eight.p_osf" horiz-adv-x="584" 
d="M59 189c0 101 92 164 119 180c-51 31 -87 72 -87 135c0 86 70 167 207 167c127 0 210 -69 210 -171c0 -91 -73 -163 -89 -179c57 -32 101 -73 101 -142c0 -103 -96 -191 -228 -191c-125 0 -233 76 -233 201zM362 349c15 13 78 69 78 148c0 71 -60 113 -143 113
c-86 0 -138 -47 -138 -107c0 -85 107 -113 203 -154zM128 192c0 -89 80 -143 164 -143c80 0 158 53 158 130c0 87 -117 114 -216 160c-20 -12 -106 -62 -106 -147z" />
    <glyph glyph-name="nine.p_osf" horiz-adv-x="571" 
d="M110 -44c26 -14 70 -22 102 -22c146 0 222 138 234 270h-2c-35 -52 -107 -81 -179 -81c-127 0 -218 86 -218 211c0 137 98 221 220 221c152 0 252 -127 252 -302c0 -168 -90 -381 -306 -381c-43 0 -89 8 -129 27zM276 182c94 0 170 59 170 113c0 87 -71 199 -178 199
c-96 0 -151 -67 -151 -159s63 -153 159 -153z" />
    <glyph glyph-name="zero.t_osf" horiz-adv-x="568" 
d="M49 270c0 142 76 285 235 285s235 -143 235 -285s-75 -282 -235 -282s-235 141 -235 282zM119 272c0 -111 53 -222 165 -222s165 111 165 221c0 111 -53 223 -165 223s-165 -112 -165 -222z" />
    <glyph glyph-name="one.t_osf" horiz-adv-x="568" 
d="M120 0v60h156v360c0 27 1 53 1 53h-2s-16 -13 -39 -27l-104 -63l-32 48l180 112h63v-483h139v-60h-362z" />
    <glyph glyph-name="two.t_osf" horiz-adv-x="568" 
d="M80 0v49c208 139 322 234 322 331c0 79 -62 113 -134 113c-60 0 -116 -35 -157 -78l-39 47c39 47 118 93 204 93c129 0 196 -83 196 -167c0 -117 -94 -208 -284 -328v-2s20 2 57 2h253v-60h-418z" />
    <glyph glyph-name="three.t_osf" horiz-adv-x="568" 
d="M59 -38l41 47c31 -34 87 -75 165 -75c83 0 160 53 160 142c0 96 -88 140 -176 140h-49l-17 41l172 193c17 20 35 33 35 33v2s-20 -2 -57 -2h-232v60h384v-42l-210 -229c87 -4 220 -46 220 -193c0 -123 -99 -207 -230 -207c-75 0 -153 31 -206 90z" />
    <glyph glyph-name="four.t_osf" horiz-adv-x="568" 
d="M26 37v45l330 461h74v-446h108v-60h-108v-153h-68v153h-336zM108 97h254v295c0 30 4 67 4 67h-2s-17 -34 -35 -59z" />
    <glyph glyph-name="five.t_osf" horiz-adv-x="568" 
d="M64 -28l42 44c34 -45 95 -74 154 -74c88 0 174 53 174 153c0 99 -84 151 -171 151c-73 0 -128 -35 -128 -35l-42 15l37 317h329v-60h-270l-20 -165c-2 -22 -6 -37 -6 -37h2s46 24 109 24c123 0 230 -74 230 -207c0 -135 -106 -217 -240 -217c-75 0 -153 31 -200 91z" />
    <glyph glyph-name="six.t_osf" horiz-adv-x="568" 
d="M53 290c0 168 90 381 306 381c43 0 89 -9 129 -27l-26 -57c-26 13 -67 23 -102 23c-146 0 -222 -139 -234 -271h2c35 52 106 81 179 81c127 0 218 -86 218 -211c0 -137 -98 -221 -220 -221c-152 0 -252 127 -252 302zM126 248c0 -87 71 -198 178 -198
c96 0 151 66 151 159c0 91 -63 152 -159 152c-94 0 -170 -60 -170 -113z" />
    <glyph glyph-name="seven.t_osf" horiz-adv-x="568" 
d="M130 -116l271 539c18 36 35 60 35 60v2s-17 -2 -52 -2h-314v60h443v-45l-311 -614h-72z" />
    <glyph glyph-name="eight.t_osf" horiz-adv-x="568" 
d="M52 189c0 101 92 164 119 180c-51 31 -87 72 -87 135c0 86 70 167 207 167c127 0 210 -69 210 -171c0 -91 -73 -163 -89 -179c57 -32 101 -73 101 -142c0 -103 -96 -191 -228 -191c-125 0 -233 76 -233 201zM355 349c15 13 78 69 78 148c0 71 -60 113 -143 113
c-86 0 -138 -47 -138 -107c0 -85 107 -113 203 -154zM121 192c0 -89 80 -143 164 -143c80 0 158 53 158 130c0 87 -117 114 -216 160c-20 -12 -106 -62 -106 -147z" />
    <glyph glyph-name="nine.t_osf" horiz-adv-x="568" 
d="M109 -44c26 -14 70 -22 102 -22c146 0 222 138 234 270h-2c-35 -52 -107 -81 -179 -81c-127 0 -218 86 -218 211c0 137 98 221 220 221c152 0 252 -127 252 -302c0 -168 -90 -381 -306 -381c-43 0 -89 8 -129 27zM275 182c94 0 170 59 170 113c0 87 -71 199 -178 199
c-96 0 -151 -67 -151 -159s63 -153 159 -153z" />
    <glyph glyph-name="dollar.osf" horiz-adv-x="506" 
d="M46 85l42 49c35 -44 103 -83 172 -83c66 0 122 34 122 97c0 129 -309 98 -309 281c0 94 73 147 163 157v85h57v-85c51 -5 107 -23 145 -61l-34 -54c-34 34 -90 53 -140 53c-62 0 -120 -26 -120 -94c0 -130 309 -95 309 -282c0 -87 -70 -151 -170 -158v-93h-56v93
c-68 8 -138 43 -181 95z" />
    <glyph glyph-name="cent.osf" horiz-adv-x="553" 
d="M264 -26v83c-124 16 -215 109 -215 241c0 131 91 225 215 241v86h57v-84c61 -5 125 -31 169 -77l-34 -53c-33 42 -95 68 -151 68c-105 0 -187 -74 -187 -180c0 -107 82 -181 187 -181c57 0 113 25 151 68l33 -53c-38 -45 -108 -74 -168 -78v-81h-57z" />
    <glyph glyph-name="sterling.osf" horiz-adv-x="589" 
d="M54 0v60h64v185h-45v52h45v106c0 104 89 184 212 184c57 0 117 -17 164 -52l-38 -52c-32 25 -83 41 -126 41c-91 0 -144 -58 -144 -125v-102h231v-52h-231v-185h339v-60h-471z" />
    <glyph glyph-name="yen.osf" horiz-adv-x="602" 
d="M100 149v51h167v27l-32 53h-135v51h105l-150 246h79l123 -209c21 -37 43 -83 43 -83h2s22 46 43 83l124 209h79l-150 -246h104v-51h-134l-32 -53v-27h166v-51h-166v-149h-69v149h-167z" />
    <glyph glyph-name="florin.osf" horiz-adv-x="496" 
d="M-22 -62c0 0 32 -5 63 -5c39 0 114 14 124 129l22 256h-89v57h94l10 111c14 165 133 186 190 186c40 0 82 -8 82 -8v-60s-45 7 -81 7c-39 0 -113 -14 -123 -128l-11 -108h126v-57h-130l-23 -259c-15 -167 -132 -187 -189 -187c-36 0 -65 6 -65 6v60z" />
    <glyph glyph-name="Euro.osf" horiz-adv-x="605" 
d="M54 203v49h65c-3 21 -3 45 -1 68h-64v49h72c29 117 128 218 305 218c32 0 64 -4 94 -12l-16 -59c-21 6 -54 10 -79 10c-129 0 -204 -71 -231 -157h278l-11 -49h-279c-4 -22 -3 -49 1 -68h267l-10 -49h-243c28 -85 104 -153 230 -153c28 0 59 4 87 13l15 -60
c-31 -10 -66 -15 -103 -15c-169 0 -270 98 -303 215h-74z" />
    <glyph glyph-name="zero.numerator" 
d="M190 258c-115 0 -152 99 -152 228c0 128 37 228 152 228c116 0 153 -100 153 -228c0 -129 -37 -228 -153 -228zM190 310c74 0 96 77 96 176c0 98 -22 176 -96 176s-96 -78 -96 -176c0 -99 22 -176 96 -176z" />
    <glyph glyph-name="one.numerator" 
d="M78 268v50h95v289c0 13 1 24 1 24h-1s-4 -8 -21 -24l-40 -39l-35 37l99 99h52v-386h92v-50h-242z" />
    <glyph glyph-name="two.numerator" 
d="M51 268c-2 11 -3 22 -3 31c0 166 217 174 217 286c0 42 -34 77 -82 77c-37 0 -68 -23 -90 -49l-35 35c24 36 74 66 126 66c85 0 137 -56 137 -127c0 -148 -209 -155 -214 -269h222v-50h-278z" />
    <glyph glyph-name="three.numerator" 
d="M181 258c-52 0 -110 21 -143 66l35 38c18 -26 58 -52 107 -52c46 0 93 37 93 89c0 54 -50 84 -98 84h-33l-14 30l99 116c11 12 25 25 25 25v2s-18 -3 -37 -3h-153v51h262v-37l-119 -139c57 -6 125 -41 125 -129c0 -77 -65 -141 -149 -141z" />
    <glyph glyph-name="four.numerator" 
d="M233 268v114h-211v38l212 284h54v-272h65v-50h-65v-114h-55zM90 432h143v136c0 27 4 62 4 62h-2s-16 -27 -33 -49l-112 -147v-2z" />
    <glyph glyph-name="five.numerator" 
d="M179 258c-54 0 -104 26 -136 69l38 35c19 -31 58 -52 96 -52c55 0 101 41 101 95s-46 96 -102 96c-27 0 -56 -9 -78 -24l-34 13l25 214h218v-51h-172l-9 -78c-2 -23 -6 -37 -6 -37h2c18 7 38 12 61 12c88 0 151 -66 151 -145c0 -80 -66 -147 -155 -147z" />
    <glyph glyph-name="six.numerator" 
d="M201 258c-96 0 -158 84 -158 201c0 112 56 255 191 255c31 0 61 -8 88 -21l-22 -47c-15 8 -44 16 -65 16c-75 0 -120 -73 -131 -154h2c21 24 62 40 95 40c84 0 142 -57 142 -141c0 -94 -62 -149 -142 -149zM201 310c56 0 86 44 86 97c0 57 -37 95 -91 95
c-51 0 -95 -35 -95 -66c0 -55 39 -126 100 -126z" />
    <glyph glyph-name="seven.numerator" 
d="M69 268l174 328c17 32 33 57 33 57v2s-19 -2 -50 -2h-175v51h290v-38l-211 -398h-61z" />
    <glyph glyph-name="eight.numerator" 
d="M190 257c-75 0 -152 46 -152 134c0 64 55 104 74 116c-30 21 -52 49 -52 93c0 74 67 113 135 113c67 0 136 -39 136 -116c0 -60 -49 -108 -57 -116c36 -22 65 -51 65 -99c0 -71 -67 -125 -149 -125zM232 501c12 13 45 49 45 94s-42 67 -83 67s-79 -20 -79 -64
c0 -52 60 -71 117 -97zM190 307c46 0 93 31 93 76c0 55 -71 73 -131 103c-20 -14 -59 -45 -59 -93c0 -54 48 -86 97 -86z" />
    <glyph glyph-name="nine.numerator" 
d="M59 279l21 47c15 -8 43 -16 65 -16c75 0 120 73 132 153h-2c-21 -23 -62 -40 -96 -40c-83 0 -141 58 -141 142c0 93 62 149 142 149c95 0 158 -85 158 -202c0 -111 -56 -254 -192 -254c-26 0 -64 8 -87 21zM184 469c52 0 95 35 95 67c0 55 -39 126 -99 126
c-56 0 -87 -44 -87 -98c0 -56 37 -95 91 -95z" />
    <glyph glyph-name="zerosuperior" unicode="&#x2070;" 
d="M190 413c-115 0 -152 99 -152 228c0 128 37 228 152 228c116 0 153 -100 153 -228c0 -129 -37 -228 -153 -228zM190 465c74 0 96 77 96 176c0 98 -22 176 -96 176s-96 -78 -96 -176c0 -99 22 -176 96 -176z" />
    <glyph glyph-name="foursuperior" unicode="&#x2074;" 
d="M233 423v114h-211v38l212 284h54v-272h65v-50h-65v-114h-55zM90 587h143v136c0 27 4 62 4 62h-2s-16 -27 -33 -49l-112 -147v-2z" />
    <glyph glyph-name="fivesuperior" unicode="&#x2075;" 
d="M179 413c-54 0 -104 26 -136 69l38 35c19 -31 58 -52 96 -52c55 0 101 41 101 95s-46 96 -102 96c-27 0 -56 -9 -78 -24l-34 13l25 214h218v-51h-172l-9 -78c-2 -23 -6 -37 -6 -37h2c18 7 38 12 61 12c88 0 151 -66 151 -145c0 -80 -66 -147 -155 -147z" />
    <glyph glyph-name="sixsuperior" unicode="&#x2076;" 
d="M201 413c-96 0 -158 84 -158 201c0 112 56 255 191 255c31 0 61 -8 88 -21l-22 -47c-15 8 -44 16 -65 16c-75 0 -120 -73 -131 -154h2c21 24 62 40 95 40c84 0 142 -57 142 -141c0 -94 -62 -149 -142 -149zM201 465c56 0 86 44 86 97c0 57 -37 95 -91 95
c-51 0 -95 -35 -95 -66c0 -55 39 -126 100 -126z" />
    <glyph glyph-name="sevensuperior" unicode="&#x2077;" 
d="M69 423l174 328c17 32 33 57 33 57v2s-19 -2 -50 -2h-175v51h290v-38l-211 -398h-61z" />
    <glyph glyph-name="eightsuperior" unicode="&#x2078;" 
d="M190 413c-75 0 -152 46 -152 134c0 64 55 104 74 116c-30 21 -52 49 -52 93c0 74 67 113 135 113c67 0 136 -39 136 -116c0 -60 -49 -108 -57 -116c36 -22 65 -51 65 -99c0 -71 -67 -125 -149 -125zM232 657c12 13 45 49 45 94s-42 67 -83 67s-79 -20 -79 -64
c0 -52 60 -71 117 -97zM190 463c46 0 93 31 93 76c0 55 -71 73 -131 103c-20 -14 -59 -45 -59 -93c0 -54 48 -86 97 -86z" />
    <glyph glyph-name="ninesuperior" unicode="&#x2079;" 
d="M59 434l21 47c15 -8 43 -16 65 -16c75 0 120 73 132 153h-2c-21 -23 -62 -40 -96 -40c-83 0 -141 58 -141 142c0 93 62 149 142 149c95 0 158 -85 158 -202c0 -111 -56 -254 -192 -254c-26 0 -64 8 -87 21zM184 624c52 0 95 35 95 67c0 55 -39 126 -99 126
c-56 0 -87 -44 -87 -98c0 -56 37 -95 91 -95z" />
    <glyph glyph-name="zeroinferior" unicode="&#x2080;" 
d="M190 -167c-115 0 -152 99 -152 228c0 128 37 228 152 228c116 0 153 -100 153 -228c0 -129 -37 -228 -153 -228zM190 -115c74 0 96 77 96 176c0 98 -22 176 -96 176s-96 -78 -96 -176c0 -99 22 -176 96 -176z" />
    <glyph glyph-name="oneinferior" unicode="&#x2081;" 
d="M78 -157v50h95v289c0 13 1 24 1 24h-1s-4 -8 -21 -24l-40 -39l-35 37l99 99h52v-386h92v-50h-242z" />
    <glyph glyph-name="twoinferior" unicode="&#x2082;" 
d="M51 -157c-2 11 -3 22 -3 31c0 166 217 174 217 286c0 42 -34 77 -82 77c-37 0 -68 -23 -90 -49l-35 35c24 36 74 66 126 66c85 0 137 -56 137 -127c0 -148 -209 -155 -214 -269h222v-50h-278z" />
    <glyph glyph-name="threeinferior" unicode="&#x2083;" 
d="M181 -167c-52 0 -110 21 -143 66l35 38c18 -26 58 -52 107 -52c46 0 93 37 93 89c0 54 -50 84 -98 84h-33l-14 30l99 116c11 12 25 25 25 25v2s-18 -3 -37 -3h-153v51h262v-37l-119 -139c57 -6 125 -41 125 -129c0 -77 -65 -141 -149 -141z" />
    <glyph glyph-name="fourinferior" unicode="&#x2084;" 
d="M233 -157v114h-211v38l212 284h54v-272h65v-50h-65v-114h-55zM90 7h143v136c0 27 4 62 4 62h-2s-16 -27 -33 -49l-112 -147v-2z" />
    <glyph glyph-name="fiveinferior" unicode="&#x2085;" 
d="M179 -167c-54 0 -104 26 -136 69l38 35c19 -31 58 -52 96 -52c55 0 101 41 101 95s-46 96 -102 96c-27 0 -56 -9 -78 -24l-34 13l25 214h218v-51h-172l-9 -78c-2 -23 -6 -37 -6 -37h2c18 7 38 12 61 12c88 0 151 -66 151 -145c0 -80 -66 -147 -155 -147z" />
    <glyph glyph-name="sixinferior" unicode="&#x2086;" 
d="M201 -167c-96 0 -158 84 -158 201c0 112 56 255 191 255c31 0 61 -8 88 -21l-22 -47c-15 8 -44 16 -65 16c-75 0 -120 -73 -131 -154h2c21 24 62 40 95 40c84 0 142 -57 142 -141c0 -94 -62 -149 -142 -149zM201 -115c56 0 86 44 86 97c0 57 -37 95 -91 95
c-51 0 -95 -35 -95 -66c0 -55 39 -126 100 -126z" />
    <glyph glyph-name="seveninferior" unicode="&#x2087;" 
d="M69 -157l174 328c17 32 33 57 33 57v2s-19 -2 -50 -2h-175v51h290v-38l-211 -398h-61z" />
    <glyph glyph-name="eightinferior" unicode="&#x2088;" 
d="M190 -166c-75 0 -152 46 -152 134c0 64 55 104 74 116c-30 21 -52 49 -52 93c0 74 67 113 135 113c67 0 136 -39 136 -116c0 -60 -49 -108 -57 -116c36 -22 65 -51 65 -99c0 -71 -67 -125 -149 -125zM232 78c12 13 45 49 45 94s-42 67 -83 67s-79 -20 -79 -64
c0 -52 60 -71 117 -97zM190 -116c46 0 93 31 93 76c0 55 -71 73 -131 103c-20 -14 -59 -45 -59 -93c0 -54 48 -86 97 -86z" />
    <glyph glyph-name="nineinferior" unicode="&#x2089;" 
d="M59 -146l21 47c15 -8 43 -16 65 -16c75 0 120 73 132 153h-2c-21 -23 -62 -40 -96 -40c-83 0 -141 58 -141 142c0 93 62 149 142 149c95 0 158 -85 158 -202c0 -111 -56 -254 -192 -254c-26 0 -64 8 -87 21zM184 44c52 0 95 35 95 67c0 55 -39 126 -99 126
c-56 0 -87 -44 -87 -98c0 -56 37 -95 91 -95z" />
    <glyph glyph-name="zero.denominator" 
d="M190 -10c-115 0 -152 99 -152 228c0 128 37 228 152 228c116 0 153 -100 153 -228c0 -129 -37 -228 -153 -228zM190 42c74 0 96 77 96 176c0 98 -22 176 -96 176s-96 -78 -96 -176c0 -99 22 -176 96 -176z" />
    <glyph glyph-name="one.denominator" 
d="M78 0v50h95v289c0 13 1 24 1 24h-1s-4 -8 -21 -24l-40 -39l-35 37l99 99h52v-386h92v-50h-242z" />
    <glyph glyph-name="two.denominator" 
d="M51 0c-2 11 -3 22 -3 31c0 166 217 174 217 286c0 42 -34 77 -82 77c-37 0 -68 -23 -90 -49l-35 35c24 36 74 66 126 66c85 0 137 -56 137 -127c0 -148 -209 -155 -214 -269h222v-50h-278z" />
    <glyph glyph-name="three.denominator" 
d="M181 -10c-52 0 -110 21 -143 66l35 38c18 -26 58 -52 107 -52c46 0 93 37 93 89c0 54 -50 84 -98 84h-33l-14 30l99 116c11 12 25 25 25 25v2s-18 -3 -37 -3h-153v51h262v-37l-119 -139c57 -6 125 -41 125 -129c0 -77 -65 -141 -149 -141z" />
    <glyph glyph-name="four.denominator" 
d="M233 0v114h-211v38l212 284h54v-272h65v-50h-65v-114h-55zM90 164h143v136c0 27 4 62 4 62h-2s-16 -27 -33 -49l-112 -147v-2z" />
    <glyph glyph-name="five.denominator" 
d="M179 -10c-54 0 -104 26 -136 69l38 35c19 -31 58 -52 96 -52c55 0 101 41 101 95s-46 96 -102 96c-27 0 -56 -9 -78 -24l-34 13l25 214h218v-51h-172l-9 -78c-2 -23 -6 -37 -6 -37h2c18 7 38 12 61 12c88 0 151 -66 151 -145c0 -80 -66 -147 -155 -147z" />
    <glyph glyph-name="six.denominator" 
d="M201 -10c-96 0 -158 84 -158 201c0 112 56 255 191 255c31 0 61 -8 88 -21l-22 -47c-15 8 -44 16 -65 16c-75 0 -120 -73 -131 -154h2c21 24 62 40 95 40c84 0 142 -57 142 -141c0 -94 -62 -149 -142 -149zM201 42c56 0 86 44 86 97c0 57 -37 95 -91 95
c-51 0 -95 -35 -95 -66c0 -55 39 -126 100 -126z" />
    <glyph glyph-name="seven.denominator" 
d="M69 0l174 328c17 32 33 57 33 57v2s-19 -2 -50 -2h-175v51h290v-38l-211 -398h-61z" />
    <glyph glyph-name="eight.denominator" 
d="M190 -10c-75 0 -152 46 -152 134c0 64 55 104 74 116c-30 21 -52 49 -52 93c0 74 67 113 135 113c67 0 136 -39 136 -116c0 -60 -49 -108 -57 -116c36 -22 65 -51 65 -99c0 -71 -67 -125 -149 -125zM232 234c12 13 45 49 45 94s-42 67 -83 67s-79 -20 -79 -64
c0 -52 60 -71 117 -97zM190 40c46 0 93 31 93 76c0 55 -71 73 -131 103c-20 -14 -59 -45 -59 -93c0 -54 48 -86 97 -86z" />
    <glyph glyph-name="nine.denominator" 
d="M59 11l21 47c15 -8 43 -16 65 -16c75 0 120 73 132 153h-2c-21 -23 -62 -40 -96 -40c-83 0 -141 58 -141 142c0 93 62 149 142 149c95 0 158 -85 158 -202c0 -111 -56 -254 -192 -254c-26 0 -64 8 -87 21zM184 201c52 0 95 35 95 67c0 55 -39 126 -99 126
c-56 0 -87 -44 -87 -98c0 -56 37 -95 91 -95z" />
    <glyph glyph-name="thinspace" unicode="&#x2009;" horiz-adv-x="12" 
 />
    <glyph glyph-name="uni00A0" unicode="&#xa0;" horiz-adv-x="250" 
 />
    <glyph glyph-name="uni00AD" unicode="&#xad;" horiz-adv-x="432" 
d="M74 253v62h284v-62h-284z" />
    <glyph glyph-name="cyrbreve" unicode="&#xf6d4;" horiz-adv-x="305" 
d="M152 736c-68 0 -132 43 -132 118v17h59v-15c0 -45 35 -69 73 -69c37 0 74 24 74 70v14h58v-17c0 -75 -64 -118 -132 -118z" />
    <glyph glyph-name="uni0410" unicode="&#x410;" horiz-adv-x="632" 
d="M21 0l258 703h74l258 -703h-73l-81 224h-283l-80 -224h-73zM195 284h241l-92 255c-12 33 -27 92 -27 92h-2s-15 -59 -27 -92z" />
    <glyph glyph-name="uni0411" unicode="&#x411;" horiz-adv-x="594" 
d="M101 0v703h398v-62h-329v-230h168c118 0 208 -70 208 -207c0 -124 -85 -204 -202 -204h-243zM170 62h164c87 0 141 53 141 142c0 90 -58 145 -142 145h-163v-287z" />
    <glyph glyph-name="uni0412" unicode="&#x412;" horiz-adv-x="616" 
d="M101 0v703h240c110 0 190 -67 190 -177c0 -73 -35 -126 -89 -153v-2c72 -20 118 -90 118 -174c0 -125 -93 -197 -211 -197h-248zM170 398h171c71 0 119 50 119 123c0 72 -46 120 -121 120h-169v-243zM170 62h180c85 0 138 53 138 137s-57 139 -139 139h-179v-276z" />
    <glyph glyph-name="uni0413" unicode="&#x413;" horiz-adv-x="485" 
d="M101 0v703h369v-62h-300v-641h-69z" />
    <glyph glyph-name="uni0414" unicode="&#x414;" horiz-adv-x="700" 
d="M150 62h360v579h-250v-77c0 -170 -17 -368 -110 -502zM5 62h71c106 142 117 341 117 504v137h386v-641h79v-202h-65v140h-522v-140h-66v202z" />
    <glyph glyph-name="uni0415" unicode="&#x415;" horiz-adv-x="560" 
d="M101 0v703h395v-62h-326v-256h267v-62h-267v-261h345v-62h-414z" />
    <glyph glyph-name="uni0416" unicode="&#x416;" horiz-adv-x="854" 
d="M22 0l210 369v2l-196 332h78l177 -305h101v305h69v-305h102l177 305h77l-196 -332v-2l211 -369h-79l-190 336h-102v-336h-69v336h-101l-190 -336h-79z" />
    <glyph glyph-name="uni0417" unicode="&#x417;" horiz-adv-x="538" 
d="M32 79l41 50c38 -43 103 -77 171 -77c96 0 167 56 167 147c0 86 -66 135 -149 135h-89v60h71c78 0 144 52 144 130c0 68 -41 128 -141 128c-52 0 -109 -16 -162 -60l-32 54c73 60 148 69 201 69c127 0 205 -73 205 -184c0 -86 -54 -135 -105 -159v-2
c76 -21 129 -82 129 -173c0 -128 -103 -209 -236 -209c-79 0 -165 33 -215 91z" />
    <glyph glyph-name="uni0418" unicode="&#x418;" horiz-adv-x="751" 
d="M101 0v703h69v-506c0 -37 -6 -95 -6 -95h2s37 62 61 97l356 504h67v-703h-69v506c0 37 6 95 6 95h-2s-35 -60 -59 -95l-358 -506h-67z" />
    <glyph glyph-name="uni0419" unicode="&#x419;" horiz-adv-x="751" 
d="M378 736c-68 0 -132 43 -132 118v17h59v-15c0 -45 35 -69 73 -69c37 0 74 24 74 70v14h58v-17c0 -75 -64 -118 -132 -118zM101 0v703h69v-506c0 -37 -6 -95 -6 -95h2s37 62 61 97l356 504h67v-703h-69v506c0 37 6 95 6 95h-2s-35 -60 -59 -95l-358 -506h-67z" />
    <glyph glyph-name="uni041A" unicode="&#x41a;" horiz-adv-x="592" 
d="M101 0v703h69v-305h118l190 305h79l-211 -332v-2l225 -369h-81l-202 336h-118v-336h-69z" />
    <glyph glyph-name="uni041B" unicode="&#x41b;" horiz-adv-x="664" 
d="M11 57c132 18 167 205 167 504v142h386v-703h-70v641h-249v-81c0 -333 -42 -553 -234 -568v65z" />
    <glyph glyph-name="uni041C" unicode="&#x41c;" horiz-adv-x="842" 
d="M74 0l56 703h71l185 -413c16 -36 34 -86 34 -86h2s18 50 34 86l185 413h71l56 -703h-69l-39 492c-3 38 -2 98 -2 98h-2s-21 -62 -37 -98l-166 -361h-64l-165 361c-16 35 -38 100 -38 100h-2s1 -62 -2 -100l-39 -492h-69z" />
    <glyph glyph-name="uni041D" unicode="&#x41d;" horiz-adv-x="747" 
d="M101 0v703h69v-320h407v320h70v-703h-70v321h-407v-321h-69z" />
    <glyph glyph-name="uni041E" unicode="&#x41e;" horiz-adv-x="825" 
d="M54 357c0 201 159 358 358 358c200 0 358 -157 358 -358c0 -207 -158 -369 -358 -369c-199 0 -358 162 -358 369zM126 357c0 -172 128 -304 286 -304c159 0 286 132 286 304c0 166 -127 293 -286 293c-158 0 -286 -127 -286 -293z" />
    <glyph glyph-name="uni041F" unicode="&#x41f;" horiz-adv-x="738" 
d="M101 0v703h536v-703h-69v641h-398v-641h-69z" />
    <glyph glyph-name="uni0420" unicode="&#x420;" horiz-adv-x="596" 
d="M101 0v703h243c125 0 217 -82 217 -212c0 -131 -92 -215 -217 -215h-174v-276h-69zM170 338h165c94 0 155 57 155 153c0 95 -61 150 -154 150h-166v-303z" />
    <glyph glyph-name="uni0421" unicode="&#x421;" horiz-adv-x="718" 
d="M55 356c0 204 147 359 353 359c89 0 187 -27 254 -91l-37 -51c-55 48 -139 77 -215 77c-171 0 -283 -128 -283 -293c0 -167 112 -304 286 -304c83 0 167 34 227 93l40 -49c-59 -58 -145 -109 -269 -109c-214 0 -356 163 -356 368z" />
    <glyph glyph-name="uni0422" unicode="&#x422;" horiz-adv-x="608" 
d="M269 0v641h-252v62h574v-62h-253v-641h-69z" />
    <glyph glyph-name="uni0423" unicode="&#x423;" horiz-adv-x="587" 
d="M83 31l33 53c17 -12 48 -34 82 -34c46 0 66 37 88 95l-279 558h77l193 -392c21 -43 40 -92 40 -92h2s16 49 31 91l146 393h74l-230 -592c-26 -66 -67 -123 -141 -123c-43 0 -82 19 -116 43z" />
    <glyph glyph-name="uni0424" unicode="&#x424;" horiz-adv-x="820" 
d="M44 373c0 180 134 293 331 293v84h70v-84c196 0 331 -113 331 -293c0 -181 -134 -294 -331 -294v-91h-70v91c-197 0 -331 113 -331 294zM445 138c158 0 260 86 260 235c0 148 -102 233 -260 233v-468zM116 373c0 -149 102 -235 259 -235v468c-157 0 -259 -85 -259 -233z
" />
    <glyph glyph-name="uni0425" unicode="&#x425;" horiz-adv-x="576" 
d="M19 0l224 367l-205 336h81l123 -208c21 -36 45 -79 45 -79h2s22 43 44 79l124 208h81l-206 -336l225 -367h-79l-147 243c-21 37 -44 77 -44 77h-2s-21 -41 -43 -78l-144 -242h-79z" />
    <glyph glyph-name="uni0426" unicode="&#x426;" horiz-adv-x="744" 
d="M101 0v703h69v-641h383v641h70v-641h79v-202h-64v140h-537z" />
    <glyph glyph-name="uni0427" unicode="&#x427;" horiz-adv-x="618" 
d="M265 277c-144 0 -209 73 -209 199v227h70v-213c0 -97 42 -149 149 -149c72 0 141 33 173 54v308h70v-703h-70v296c0 14 2 33 2 33h-2c-36 -20 -110 -52 -183 -52z" />
    <glyph glyph-name="uni0428" unicode="&#x428;" horiz-adv-x="993" 
d="M101 0v703h69v-641h292v641h69v-641h292v641h70v-703h-792z" />
    <glyph glyph-name="uni0429" unicode="&#x429;" horiz-adv-x="1019" 
d="M101 0v703h69v-641h292v641h69v-641h292v641h70v-641h86v-202h-65v140h-813z" />
    <glyph glyph-name="uni042A" unicode="&#x42a;" horiz-adv-x="669" 
d="M195 0v641h-185v62h254v-284h160c118 0 209 -72 209 -211c0 -127 -86 -208 -203 -208h-235zM264 62h156c87 0 141 54 141 146c0 93 -58 149 -142 149h-155v-295z" />
    <glyph glyph-name="uni042B" unicode="&#x42b;" horiz-adv-x="813" 
d="M643 0v703h69v-703h-69zM101 0v703h69v-284h158c118 0 208 -72 208 -211c0 -127 -85 -208 -202 -208h-233zM170 62h154c87 0 141 54 141 146c0 93 -58 149 -142 149h-153v-295z" />
    <glyph glyph-name="uni042C" unicode="&#x42c;" horiz-adv-x="575" 
d="M101 0v703h69v-284h160c118 0 209 -72 209 -211c0 -127 -86 -208 -203 -208h-235zM170 62h156c87 0 141 54 141 146c0 93 -58 149 -142 149h-155v-295z" />
    <glyph glyph-name="uni042D" unicode="&#x42d;" horiz-adv-x="717" 
d="M38 95l38 49c50 -53 140 -92 230 -92c155 0 269 118 282 270h-396v60h397c-10 155 -126 269 -282 269c-77 0 -155 -28 -216 -80l-37 52c63 61 162 92 254 92c207 0 354 -156 354 -359c0 -205 -150 -368 -356 -368c-100 0 -201 39 -268 107z" />
    <glyph glyph-name="uni042E" unicode="&#x42e;" horiz-adv-x="1050" 
d="M101 0v703h69v-320h129c12 188 162 332 347 332c194 0 349 -157 349 -358c0 -207 -155 -369 -349 -369c-182 0 -330 143 -345 333h-131v-321h-69zM370 357c0 -171 123 -304 276 -304s277 133 277 304c0 165 -124 292 -277 292s-276 -127 -276 -292z" />
    <glyph glyph-name="uni042F" unicode="&#x42f;" horiz-adv-x="611" 
d="M28 0l167 276c12 19 19 29 19 29v2c-96 28 -142 102 -142 199c0 86 43 148 104 177c29 13 62 20 129 20h206v-703h-70v296h-156l-177 -296h-80zM282 357h159v284h-132c-53 0 -76 -5 -95 -15c-44 -21 -70 -67 -70 -121c0 -89 53 -148 138 -148z" />
    <glyph glyph-name="uni0430" unicode="&#x430;" horiz-adv-x="517" 
d="M37 135c0 165 210 175 306 175h30v14c0 97 -53 130 -124 130c-51 0 -102 -18 -143 -48l-31 52c40 34 111 57 178 57c121 0 188 -67 188 -193v-322h-65v59c0 25 3 42 3 42h-2c-26 -61 -89 -113 -170 -113c-85 0 -170 50 -170 147zM106 141c0 -47 38 -96 113 -96
c97 0 154 100 154 188v23h-29c-78 0 -238 -3 -238 -115z" />
    <glyph glyph-name="uni0431" unicode="&#x431;" horiz-adv-x="576" 
d="M59 285c0 170 40 280 207 356l186 87l25 -57l-194 -89c-114 -54 -154 -126 -161 -232h2c45 81 113 106 188 106c123 0 213 -86 213 -232c0 -139 -94 -236 -229 -236c-165 0 -237 127 -237 297zM133 225c0 -112 73 -177 161 -177c89 0 161 65 161 175
c0 111 -72 176 -157 176c-98 0 -165 -76 -165 -174z" />
    <glyph glyph-name="uni0432" unicode="&#x432;" horiz-adv-x="503" 
d="M81 0v503h182c102 0 166 -45 166 -128c0 -52 -27 -93 -76 -111v-2c65 -13 102 -62 102 -121c0 -87 -69 -141 -182 -141h-192zM149 285h107c68 0 103 32 103 86s-36 80 -107 80h-103v-166zM149 53h115c83 0 121 35 121 89c0 59 -44 91 -122 91h-114v-180z" />
    <glyph glyph-name="uni0433" unicode="&#x433;" horiz-adv-x="404" 
d="M81 0v503h300v-59h-232v-444h-68z" />
    <glyph glyph-name="uni0434" unicode="&#x434;" horiz-adv-x="572" 
d="M146 58h258v387h-176v-30c0 -75 -7 -244 -82 -357zM11 58h62c85 111 88 295 88 363v82h311v-445h71v-178h-65v120h-402v-120h-65v178z" />
    <glyph glyph-name="uni0435" unicode="&#x435;" horiz-adv-x="553" 
d="M47 251c0 165 113 264 249 264c139 0 210 -107 210 -232c0 -11 -1 -23 -2 -34h-386c3 -128 91 -199 195 -199c55 0 112 23 153 60l31 -52c-47 -43 -120 -70 -186 -70c-150 0 -264 108 -264 263zM121 303h316c-4 105 -68 156 -143 156c-84 0 -157 -55 -173 -156z" />
    <glyph glyph-name="uni0436" unicode="&#x436;" horiz-adv-x="721" 
d="M20 0l170 257v2l-154 244h74l136 -216h81v216h66v-216h81l136 216h75l-154 -244v-2l170 -257h-80l-147 227h-81v-227h-66v227h-80l-148 -227h-79z" />
    <glyph glyph-name="uni0437" unicode="&#x437;" horiz-adv-x="439" 
d="M30 61l36 47c20 -21 67 -62 135 -62c61 0 121 31 121 98c0 57 -42 89 -122 89h-61v54h53c68 0 112 27 112 85c0 57 -42 85 -104 85c-49 0 -89 -18 -123 -45l-30 48c35 29 90 55 163 55c93 0 164 -45 164 -135c0 -63 -34 -98 -77 -115v-2c55 -14 95 -54 95 -121
c0 -102 -90 -154 -187 -154c-79 0 -138 37 -175 73z" />
    <glyph glyph-name="uni0438" unicode="&#x438;" horiz-adv-x="591" 
d="M81 0v503h66v-330c0 -31 -2 -73 -3 -75h2c2 4 32 47 52 75l247 330h65v-503h-67v331c0 29 3 69 3 73h-2c-1 -5 -32 -45 -51 -73l-247 -331h-65z" />
    <glyph glyph-name="uni0439" unicode="&#x439;" horiz-adv-x="591" 
d="M295 569c-68 0 -132 43 -132 118v17h59v-15c0 -45 35 -69 73 -69c37 0 74 24 74 70v14h58v-17c0 -75 -64 -118 -132 -118zM81 0v503h66v-330c0 -31 -2 -73 -3 -75h2c2 4 32 47 52 75l247 330h65v-503h-67v331c0 29 3 69 3 73h-2c-1 -5 -32 -45 -51 -73l-247 -331h-65z
" />
    <glyph glyph-name="uni043A" unicode="&#x43a;" horiz-adv-x="495" 
d="M81 0v503h68v-213h80l151 213h80l-175 -239v-2l195 -262h-83l-167 230h-81v-230h-68z" />
    <glyph glyph-name="uni043B" unicode="&#x43b;" horiz-adv-x="530" 
d="M20 -4v61c84 13 120 108 120 294v152h308v-503h-68v444h-174v-93c0 -238 -57 -345 -186 -355z" />
    <glyph glyph-name="uni043C" unicode="&#x43c;" horiz-adv-x="717" 
d="M62 0l41 503h72l151 -310c14 -31 31 -71 31 -71h2s16 39 31 71l152 310h71l42 -503h-67l-25 325c-1 27 0 87 0 87h-2s-11 -32 -32 -73l-140 -281h-62l-139 279c-19 39 -33 75 -33 75h-2s2 -60 0 -87l-25 -325h-66z" />
    <glyph glyph-name="uni043D" unicode="&#x43d;" horiz-adv-x="592" 
d="M81 0v503h68v-215h294v215h68v-503h-68v228h-294v-228h-68z" />
    <glyph glyph-name="uni043E" unicode="&#x43e;" horiz-adv-x="624" 
d="M47 254c0 149 118 261 265 261s266 -112 266 -261c0 -152 -119 -266 -266 -266s-265 114 -265 266zM117 254c0 -118 87 -204 195 -204s196 86 196 204c0 114 -88 200 -196 200s-195 -86 -195 -200z" />
    <glyph glyph-name="uni043F" unicode="&#x43f;" horiz-adv-x="583" 
d="M81 0v503h421v-503h-68v443h-285v-443h-68z" />
    <glyph glyph-name="uni0440" unicode="&#x440;" horiz-adv-x="589" 
d="M81 -200v703h65v-53c0 -22 -3 -39 -3 -39h2c31 65 97 104 175 104c136 0 219 -108 219 -263c0 -160 -94 -264 -225 -264c-71 0 -133 37 -166 100h-2s3 -18 3 -44v-244h-68zM147 250c0 -101 57 -201 160 -201c89 0 163 74 163 202c0 123 -66 202 -160 202
c-84 0 -163 -60 -163 -203z" />
    <glyph glyph-name="uni0441" unicode="&#x441;" horiz-adv-x="542" 
d="M47 251c0 155 116 264 264 264c66 0 139 -23 184 -72l-35 -51c-35 36 -91 62 -147 62c-110 0 -196 -83 -196 -203c0 -118 86 -201 198 -201c58 0 121 25 161 69l31 -51c-44 -49 -119 -80 -196 -80c-149 0 -264 107 -264 263z" />
    <glyph glyph-name="uni0442" unicode="&#x442;" horiz-adv-x="481" 
d="M206 0v443h-183v60h435v-60h-184v-443h-68z" />
    <glyph glyph-name="uni0443" unicode="&#x443;" horiz-adv-x="526" 
d="M45 -126c0 0 28 -23 60 -23c44 0 76 36 96 82l30 72l-209 498h75l147 -367c10 -25 19 -53 19 -53h2s7 28 17 53l145 367h73l-248 -608c-26 -64 -77 -105 -144 -105c-52 0 -89 30 -89 30z" />
    <glyph glyph-name="uni0444" unicode="&#x444;" horiz-adv-x="704" 
d="M48 254c0 153 114 253 271 260v186h66v-186c157 -7 271 -107 271 -260c0 -156 -114 -258 -271 -265v-189h-66v189c-157 7 -271 109 -271 265zM385 48c119 7 202 84 202 206c0 120 -83 194 -202 200v-406zM117 254c0 -122 83 -199 202 -206v406
c-119 -6 -202 -80 -202 -200z" />
    <glyph glyph-name="uni0445" unicode="&#x445;" horiz-adv-x="479" 
d="M20 0l176 262l-162 241h80l108 -169c8 -13 17 -29 17 -29h2s9 16 17 29l108 169h79l-162 -241l177 -262h-80l-122 189c-9 13 -17 28 -17 28h-2s-8 -14 -17 -28l-123 -189h-79z" />
    <glyph glyph-name="uni0446" unicode="&#x446;" horiz-adv-x="596" 
d="M81 0v503h68v-443h278v443h69v-443h70v-180h-64v120h-421z" />
    <glyph glyph-name="uni0447" unicode="&#x447;" horiz-adv-x="502" 
d="M216 184c-117 0 -169 61 -169 159v160h67v-153c0 -53 16 -105 114 -105c56 0 103 24 125 41v217h68v-503h-68v191c0 15 2 32 2 32h-2c-34 -21 -92 -39 -137 -39z" />
    <glyph glyph-name="uni0448" unicode="&#x448;" horiz-adv-x="791" 
d="M81 0v503h66v-443h216v443h66v-443h215v443h66v-503h-629z" />
    <glyph glyph-name="uni0449" unicode="&#x449;" horiz-adv-x="811" 
d="M81 0v503h66v-443h216v443h66v-443h215v443h66v-443h71v-180h-64v120h-636z" />
    <glyph glyph-name="uni044A" unicode="&#x44a;" horiz-adv-x="537" 
d="M151 0v444h-139v59h207v-192h109c90 0 175 -38 175 -157c0 -91 -56 -154 -177 -154h-175zM219 54h100c82 0 115 41 115 101c0 61 -34 102 -113 102h-102v-203z" />
    <glyph glyph-name="uni044B" unicode="&#x44b;" horiz-adv-x="667" 
d="M518 0v503h68v-503h-68zM81 0v503h68v-192h108c90 0 176 -38 176 -157c0 -91 -57 -154 -178 -154h-174zM149 54h100c81 0 114 41 114 101c0 61 -34 102 -113 102h-101v-203z" />
    <glyph glyph-name="uni044C" unicode="&#x44c;" horiz-adv-x="468" 
d="M81 0v503h68v-192h109c90 0 176 -38 176 -157c0 -91 -57 -154 -178 -154h-175zM149 54h101c81 0 114 41 114 101c0 61 -34 102 -113 102h-102v-203z" />
    <glyph glyph-name="uni044D" unicode="&#x44d;" horiz-adv-x="541" 
d="M35 65l30 51c45 -49 110 -69 164 -69c102 0 185 71 196 177h-259v54h259c-11 108 -95 178 -194 178c-58 0 -111 -23 -151 -62l-35 50c43 47 118 71 187 71c147 0 262 -109 262 -264c0 -156 -114 -263 -264 -263c-72 0 -144 25 -195 77z" />
    <glyph glyph-name="uni044E" unicode="&#x44e;" horiz-adv-x="805" 
d="M81 0v503h68v-222h100c13 135 121 234 253 234c142 0 257 -112 257 -261c0 -152 -115 -266 -256 -266c-132 0 -239 99 -253 234h-101v-222h-68zM317 254c0 -118 83 -204 186 -204c102 0 185 86 185 204c0 114 -83 200 -185 200c-103 0 -186 -86 -186 -200z" />
    <glyph glyph-name="uni044F" unicode="&#x44f;" horiz-adv-x="495" 
d="M30 0l121 173c10 16 23 30 23 30v2c-59 12 -116 63 -116 145c0 101 74 153 178 153h177v-503h-68v193h-104l-132 -193h-79zM244 246h101v205h-96c-75 0 -121 -29 -121 -101c0 -68 51 -104 116 -104z" />
    <glyph glyph-name="uni0409" unicode="&#x409;" horiz-adv-x="937" 
d="M21 -7v65c133 16 166 201 166 494v151h358v-300h142c127 0 217 -75 217 -202c0 -125 -94 -201 -212 -201h-216v641h-220v-89c0 -319 -33 -543 -235 -559zM545 62h138c86 0 149 49 149 139c0 88 -63 140 -150 140h-137v-279z" />
    <glyph glyph-name="uni040A" unicode="&#x40a;" horiz-adv-x="998" 
d="M101 0v703h69v-302h363v302h69v-301h151c122 0 211 -75 211 -201c0 -125 -94 -201 -211 -201h-220v339h-363v-339h-69zM602 62h141c86 0 149 49 149 139c0 88 -63 139 -150 139h-140v-278z" />
    <glyph glyph-name="uni040B" unicode="&#x40b;" horiz-adv-x="723" 
d="M216 0v641h-200v62h507v-62h-238v-233c0 -15 -2 -33 -2 -33h2c35 19 111 50 193 50c134 0 193 -76 193 -201v-224h-70v213c0 96 -38 148 -135 148c-78 0 -150 -32 -181 -54v-307h-69z" />
    <glyph glyph-name="uni04BA" unicode="&#x4ba;" horiz-adv-x="615" 
d="M101 0v703h69v-261c0 -14 -2 -33 -2 -33h2c35 19 110 50 193 50c134 0 193 -76 193 -201v-258h-70v247c0 96 -39 149 -136 149c-78 0 -149 -32 -180 -54v-342h-69z" />
    <glyph glyph-name="uni048C" unicode="&#x48c;" horiz-adv-x="662" 
d="M176 0v578h-164v58h164v114h69v-114h177v-58h-177v-159h171c120 0 212 -79 212 -210c0 -129 -94 -209 -211 -209h-241zM245 62h162c86 0 149 53 149 147c0 93 -63 148 -150 148h-161v-295z" />
    <glyph glyph-name="uni0402" unicode="&#x402;" horiz-adv-x="727" 
d="M216 0v641h-200v62h508v-62h-239v-230c0 -15 -1 -30 -1 -30h2c71 34 139 44 183 44c144 0 220 -89 220 -211c0 -156 -103 -226 -220 -226c-14 0 -32 1 -47 2v60c9 -1 21 -2 40 -2c74 0 158 38 158 163c0 87 -49 150 -160 150c-98 0 -175 -46 -175 -46v-315h-69z" />
    <glyph glyph-name="uni0452" unicode="&#x452;" horiz-adv-x="594" 
d="M81 0v565h-64v54h64v84h68v-84h223v-54h-223v-187c0 -24 -2 -42 -2 -42h2c20 48 86 126 200 126c125 0 169 -72 169 -195v-283c0 -171 -116 -194 -173 -194c-19 0 -32 2 -32 2v60s11 -2 25 -2c39 0 112 15 112 134v265c0 79 -13 149 -110 149c-86 0 -160 -60 -182 -143
c-7 -21 -9 -43 -9 -67v-188h-68z" />
    <glyph glyph-name="uni04BB" unicode="&#x4bb;" horiz-adv-x="594" 
d="M81 0v703h68v-276c0 -23 -3 -41 -3 -41h2c19 47 87 129 201 129c125 0 169 -71 169 -195v-320h-68v302c0 79 -13 149 -110 149c-106 0 -191 -87 -191 -208v-243h-68z" />
    <glyph glyph-name="uni045B" unicode="&#x45b;" horiz-adv-x="594" 
d="M81 0v565h-64v54h64v84h68v-84h223v-54h-223v-187c0 -24 -2 -42 -2 -42h2c20 48 86 126 200 126c125 0 169 -71 169 -195v-267h-68v249c0 79 -13 149 -110 149c-86 0 -160 -59 -182 -143c-7 -20 -9 -43 -9 -67v-188h-68z" />
    <glyph glyph-name="uni0459" unicode="&#x459;" horiz-adv-x="728" 
d="M29 -4v61c85 13 121 108 121 292v154h260v-195h108c90 0 176 -38 176 -156c0 -90 -57 -152 -177 -152h-175v444h-126v-94c0 -241 -57 -344 -187 -354zM410 54h102c81 0 114 40 114 98c0 61 -34 102 -113 102h-103v-200z" />
    <glyph glyph-name="uni045A" unicode="&#x45a;" horiz-adv-x="797" 
d="M81 0v503h68v-200h263v200h68v-200h103c90 0 181 -38 181 -149c0 -90 -57 -154 -178 -154h-174v245h-263v-245h-68zM480 54h102c81 0 114 38 114 100c0 60 -39 95 -118 95h-98v-195z" />
    <glyph glyph-name="uni0463" unicode="&#x463;" horiz-adv-x="511" 
d="M122 0v461h-122v54h121v188h69v-188h168v-54h-168v-150h110c90 0 176 -38 176 -157c0 -91 -57 -154 -178 -154h-176zM190 54h102c81 0 114 41 114 101c0 61 -34 102 -113 102h-103v-203z" />
    <glyph glyph-name="uni048D" unicode="&#x48d;" horiz-adv-x="519" 
d="M129 0v461h-122v54h121v188h69v-188h168v-54h-168v-150h110c90 0 176 -38 176 -157c0 -91 -57 -154 -178 -154h-176zM197 54h102c81 0 114 41 114 101c0 61 -34 102 -113 102h-103v-203z" />
    <glyph glyph-name="uni04A4" unicode="&#x4a4;" horiz-adv-x="922" 
d="M101 0v703h69v-320h367v320h370v-62h-301v-641h-69v321h-367v-321h-69z" />
    <glyph glyph-name="uni04A0" unicode="&#x4a0;" horiz-adv-x="731" 
d="M240 0v641h-222v62h291v-305h119l189 305h79l-210 -332v-2l224 -369h-81l-201 336h-119v-336h-69z" />
    <glyph glyph-name="uni04B4" unicode="&#x4b4;" horiz-adv-x="891" 
d="M240 0v641h-222v62h513v-62h-222v-579h387v641h69v-641h88v-202h-64v140h-549z" />
    <glyph glyph-name="uni0495" unicode="&#x495;" horiz-adv-x="487" 
d="M81 0v503h303v-58h-235v-191c36 18 79 30 119 30c142 0 182 -111 182 -213c0 -143 -66 -226 -143 -277l-34 50c59 40 110 107 110 224c0 81 -28 156 -124 156c-52 0 -91 -19 -110 -31v-193h-68z" />
    <glyph glyph-name="uni04C8" unicode="&#x4c8;" horiz-adv-x="593" 
d="M81 0v503h68v-215h294v215h69v-463c0 -145 -69 -202 -145 -246l-35 53c64 32 111 83 111 193v188h-294v-228h-68z" />
    <glyph glyph-name="uni04C4" unicode="&#x4c4;" horiz-adv-x="504" 
d="M81 0v503h68v-215h78l153 215h80l-166 -227v-2c144 -39 163 -154 163 -226c0 -135 -75 -214 -145 -254l-33 52c59 31 111 93 111 202c0 125 -76 180 -192 180h-49v-228h-68z" />
    <glyph glyph-name="uni04A1" unicode="&#x4a1;" horiz-adv-x="564" 
d="M151 0v444h-139v59h207v-213h79l152 213h79l-174 -239v-2l195 -262h-83l-168 230h-80v-230h-68z" />
    <glyph glyph-name="uni04A5" unicode="&#x4a5;" horiz-adv-x="716" 
d="M81 0v503h68v-215h262v215h282v-59h-214v-444h-68v228h-262v-228h-68z" />
    <glyph glyph-name="uni04B5" unicode="&#x4b5;" horiz-adv-x="719" 
d="M195 0v443h-172v60h412v-60h-172v-383h286v443h68v-443h73v-180h-65v120h-430z" />
    <glyph glyph-name="uni0401" unicode="&#x401;" horiz-adv-x="560" 
d="M350 785v86h62v-86h-62zM199 785v86h61v-86h-61zM101 0v703h395v-62h-326v-256h267v-62h-267v-261h345v-62h-414z" />
    <glyph glyph-name="uni0407" unicode="&#x407;" horiz-adv-x="271" 
d="M101 0v703h69v-703h-69zM182 785v86h62v-86h-62zM31 785v86h61v-86h-61z" />
    <glyph glyph-name="uni04D2" unicode="&#x4d2;" horiz-adv-x="632" 
d="M21 0l258 703h74l258 -703h-73l-81 224h-283l-80 -224h-73zM195 284h241l-92 255c-12 33 -27 92 -27 92h-2s-15 -59 -27 -92zM361 785v86h62v-86h-62zM210 785v86h61v-86h-61z" />
    <glyph glyph-name="uni04DA" unicode="&#x4da;" horiz-adv-x="720" 
d="M400 785v86h62v-86h-62zM249 785v86h61v-86h-61zM55 341c0 18 2 39 2 39h533c-3 159 -108 270 -255 270c-133 0 -218 -71 -225 -77l-37 51c4 4 96 91 268 91c189 0 322 -146 322 -360c0 -209 -118 -367 -314 -367c-173 0 -294 111 -294 353zM127 321
c0 -169 69 -269 229 -269c135 0 232 105 232 269h-461z" />
    <glyph glyph-name="uni04DC" unicode="&#x4dc;" horiz-adv-x="854" 
d="M22 0l210 369v2l-196 332h78l177 -305h101v305h69v-305h102l177 305h77l-196 -332v-2l211 -369h-79l-190 336h-102v-336h-69v336h-101l-190 -336h-79zM473 785v86h62v-86h-62zM322 785v86h61v-86h-61z" />
    <glyph glyph-name="uni04DE" unicode="&#x4de;" horiz-adv-x="538" 
d="M309 785v86h62v-86h-62zM158 785v86h61v-86h-61zM32 79l41 50c38 -43 103 -77 171 -77c96 0 167 56 167 147c0 86 -66 135 -149 135h-89v60h71c78 0 144 52 144 130c0 68 -41 128 -141 128c-52 0 -109 -16 -162 -60l-32 54c73 60 148 69 201 69c127 0 205 -73 205 -184
c0 -86 -54 -135 -105 -159v-2c76 -21 129 -82 129 -173c0 -128 -103 -209 -236 -209c-79 0 -165 33 -215 91z" />
    <glyph glyph-name="uni04E4" unicode="&#x4e4;" horiz-adv-x="751" 
d="M420 785v86h62v-86h-62zM269 785v86h61v-86h-61zM101 0v703h69v-506c0 -37 -6 -95 -6 -95h2s37 62 61 97l356 504h67v-703h-69v506c0 37 6 95 6 95h-2s-35 -60 -59 -95l-358 -506h-67z" />
    <glyph glyph-name="uni04E6" unicode="&#x4e6;" horiz-adv-x="825" 
d="M455 785v86h62v-86h-62zM304 785v86h61v-86h-61zM54 357c0 201 153 358 358 358c206 0 358 -157 358 -358c0 -207 -152 -369 -358 -369c-205 0 -358 162 -358 369zM126 357c0 -172 122 -304 286 -304c165 0 286 132 286 304c0 166 -121 293 -286 293
c-164 0 -286 -127 -286 -293z" />
    <glyph glyph-name="uni04EA" unicode="&#x4ea;" horiz-adv-x="825" 
d="M54 357c0 201 154 358 358 358s358 -157 358 -358c0 -207 -154 -369 -358 -369s-358 162 -358 369zM413 51c153 0 271 117 285 275h-572c14 -158 133 -275 287 -275zM413 651c-155 0 -274 -113 -287 -266h572c-13 153 -131 266 -285 266zM457 785v86h62v-86h-62zM306 785
v86h61v-86h-61z" />
    <glyph glyph-name="uni04EC" unicode="&#x4ec;" horiz-adv-x="717" 
d="M371 785v86h62v-86h-62zM220 785v86h61v-86h-61zM38 95l38 49c50 -53 140 -92 230 -92c155 0 269 118 282 270h-396v60h397c-10 155 -126 269 -282 269c-77 0 -155 -28 -216 -80l-37 52c63 61 162 92 254 92c207 0 354 -156 354 -359c0 -205 -150 -368 -356 -368
c-100 0 -201 39 -268 107z" />
    <glyph glyph-name="uni04F0" unicode="&#x4f0;" horiz-adv-x="587" 
d="M341 785v86h62v-86h-62zM190 785v86h61v-86h-61zM83 31l33 53c17 -12 48 -34 82 -34c46 0 66 37 88 95l-279 558h77l193 -392c21 -43 40 -92 40 -92h2s16 49 31 91l146 393h74l-230 -592c-26 -66 -67 -123 -141 -123c-43 0 -82 19 -116 43z" />
    <glyph glyph-name="uni04F4" unicode="&#x4f4;" horiz-adv-x="618" 
d="M265 277c-144 0 -209 73 -209 199v227h70v-213c0 -97 42 -149 149 -149c72 0 141 33 173 54v308h70v-703h-70v296c0 14 2 33 2 33h-2c-36 -20 -110 -52 -183 -52zM338 785v86h62v-86h-62zM187 785v86h61v-86h-61z" />
    <glyph glyph-name="uni04F8" unicode="&#x4f8;" horiz-adv-x="813" 
d="M451 785v86h62v-86h-62zM300 785v86h61v-86h-61zM643 0v703h69v-703h-69zM101 0v703h69v-284h158c118 0 208 -72 208 -211c0 -127 -85 -208 -202 -208h-233zM170 62h154c87 0 141 54 141 146c0 93 -58 149 -142 149h-153v-295z" />
    <glyph glyph-name="uni0451" unicode="&#x451;" horiz-adv-x="553" 
d="M334 618v86h62v-86h-62zM183 618v86h61v-86h-61zM47 251c0 165 113 264 249 264c139 0 210 -107 210 -232c0 -11 -1 -23 -2 -34h-386c3 -128 91 -199 195 -199c55 0 112 23 153 60l31 -52c-47 -43 -120 -70 -186 -70c-150 0 -264 108 -264 263zM121 303h316
c-4 105 -68 156 -143 156c-84 0 -157 -55 -173 -156z" />
    <glyph glyph-name="uni0457" unicode="&#x457;" horiz-adv-x="230" 
d="M161 618v86h62v-86h-62zM10 618v86h61v-86h-61zM81 0v503h68v-503h-68z" />
    <glyph glyph-name="uni04D3" unicode="&#x4d3;" horiz-adv-x="518" 
d="M37 135c0 165 210 175 306 175h30v14c0 97 -53 130 -124 130c-51 0 -102 -18 -143 -48l-31 52c40 34 111 57 178 57c121 0 188 -67 188 -193v-322h-65v59c0 25 3 42 3 42h-2c-26 -61 -89 -113 -170 -113c-85 0 -170 50 -170 147zM106 141c0 -47 38 -96 113 -96
c97 0 154 100 154 188v23h-29c-78 0 -238 -3 -238 -115zM301 618v86h62v-86h-62zM150 618v86h61v-86h-61z" />
    <glyph glyph-name="uni04DB" unicode="&#x4db;" horiz-adv-x="554" 
d="M310 618v86h62v-86h-62zM159 618v86h61v-86h-61zM47 233c0 14 2 36 2 36h387c-3 111 -82 186 -180 186c-101 0 -168 -60 -168 -60l-31 51c8 5 86 69 205 69c142 0 244 -107 244 -263c0 -172 -108 -264 -240 -264c-145 0 -219 102 -219 245zM118 215
c4 -128 72 -170 150 -170c79 0 159 52 164 170h-314z" />
    <glyph glyph-name="uni04DD" unicode="&#x4dd;" horiz-adv-x="721" 
d="M404 618v86h62v-86h-62zM253 618v86h61v-86h-61zM20 0l170 257v2l-154 244h74l136 -216h81v216h66v-216h81l136 216h75l-154 -244v-2l170 -257h-80l-147 227h-81v-227h-66v227h-80l-148 -227h-79z" />
    <glyph glyph-name="uni04DF" unicode="&#x4df;" horiz-adv-x="439" 
d="M260 618v86h62v-86h-62zM109 618v86h61v-86h-61zM30 61l36 47c20 -21 67 -62 135 -62c61 0 121 31 121 98c0 57 -42 89 -122 89h-61v54h53c68 0 112 27 112 85c0 57 -42 85 -104 85c-49 0 -89 -18 -123 -45l-30 48c35 29 90 55 163 55c93 0 164 -45 164 -135
c0 -63 -34 -98 -77 -115v-2c55 -14 95 -54 95 -121c0 -102 -90 -154 -187 -154c-79 0 -138 37 -175 73z" />
    <glyph glyph-name="uni04E5" unicode="&#x4e5;" horiz-adv-x="591" 
d="M344 618v86h62v-86h-62zM193 618v86h61v-86h-61zM81 0v503h66v-330c0 -31 -2 -73 -3 -75h2c2 4 32 47 52 75l247 330h65v-503h-67v331c0 29 3 69 3 73h-2c-1 -5 -32 -45 -51 -73l-247 -331h-65z" />
    <glyph glyph-name="uni04E7" unicode="&#x4e7;" horiz-adv-x="624" 
d="M358 618v86h62v-86h-62zM207 618v86h61v-86h-61zM47 254c0 149 118 261 265 261s266 -112 266 -261c0 -152 -119 -266 -266 -266s-265 114 -265 266zM117 254c0 -118 87 -204 195 -204s196 86 196 204c0 114 -88 200 -196 200s-195 -86 -195 -200z" />
    <glyph glyph-name="uni04EB" unicode="&#x4eb;" horiz-adv-x="624" 
d="M47 254c0 149 118 261 265 261s266 -112 266 -261c0 -152 -119 -266 -266 -266s-265 114 -265 266zM312 45c102 0 187 77 198 184h-396c12 -107 96 -184 198 -184zM312 458c-102 0 -186 -75 -198 -179h396c-11 104 -96 179 -198 179zM354 618v86h62v-86h-62zM203 618v86
h61v-86h-61z" />
    <glyph glyph-name="uni04ED" unicode="&#x4ed;" horiz-adv-x="541" 
d="M297 618v86h62v-86h-62zM146 618v86h61v-86h-61zM35 65l30 51c45 -49 110 -69 164 -69c102 0 185 71 196 177h-259v54h259c-11 108 -95 178 -194 178c-58 0 -111 -23 -151 -62l-35 50c43 47 118 71 187 71c147 0 262 -109 262 -264c0 -156 -114 -263 -264 -263
c-72 0 -144 25 -195 77z" />
    <glyph glyph-name="uni04F1" unicode="&#x4f1;" horiz-adv-x="526" 
d="M45 -126c0 0 28 -23 60 -23c44 0 76 36 96 82l30 72l-209 498h75l147 -367c10 -25 19 -53 19 -53h2s7 28 17 53l145 367h73l-248 -608c-26 -64 -77 -105 -144 -105c-52 0 -89 30 -89 30zM307 618v86h62v-86h-62zM156 618v86h61v-86h-61z" />
    <glyph glyph-name="uni04F5" unicode="&#x4f5;" horiz-adv-x="502" 
d="M287 618v86h62v-86h-62zM136 618v86h61v-86h-61zM216 184c-117 0 -169 61 -169 159v160h67v-153c0 -53 16 -105 114 -105c56 0 103 24 125 41v217h68v-503h-68v191c0 15 2 32 2 32h-2c-34 -21 -92 -39 -137 -39z" />
    <glyph glyph-name="uni04F9" unicode="&#x4f9;" horiz-adv-x="667" 
d="M377 618v86h62v-86h-62zM226 618v86h61v-86h-61zM518 0v503h68v-503h-68zM81 0v503h68v-192h108c90 0 176 -38 176 -157c0 -91 -57 -154 -178 -154h-174zM149 54h100c81 0 114 41 114 101c0 61 -34 102 -113 102h-101v-203z" />
    <glyph glyph-name="uni0472" unicode="&#x472;" horiz-adv-x="825" 
d="M54 357c0 201 154 358 358 358s358 -157 358 -358c0 -207 -154 -369 -358 -369s-358 162 -358 369zM413 51c153 0 271 117 285 275h-572c14 -158 133 -275 287 -275zM413 651c-155 0 -274 -113 -287 -266h572c-13 153 -131 266 -285 266z" />
    <glyph glyph-name="uni04E8" unicode="&#x4e8;" horiz-adv-x="825" 
d="M54 357c0 201 154 358 358 358s358 -157 358 -358c0 -207 -154 -369 -358 -369s-358 162 -358 369zM413 51c153 0 271 117 285 275h-572c14 -158 133 -275 287 -275zM413 651c-155 0 -274 -113 -287 -266h572c-13 153 -131 266 -285 266z" />
    <glyph glyph-name="uni0473" unicode="&#x473;" horiz-adv-x="624" 
d="M47 254c0 149 118 261 265 261s266 -112 266 -261c0 -152 -119 -266 -266 -266s-265 114 -265 266zM312 45c102 0 187 77 198 184h-396c12 -107 96 -184 198 -184zM312 458c-102 0 -186 -75 -198 -179h396c-11 104 -96 179 -198 179z" />
    <glyph glyph-name="uni04E9" unicode="&#x4e9;" horiz-adv-x="624" 
d="M47 254c0 149 118 261 265 261s266 -112 266 -261c0 -152 -119 -266 -266 -266s-265 114 -265 266zM312 45c102 0 187 77 198 184h-396c12 -107 96 -184 198 -184zM312 458c-102 0 -186 -75 -198 -179h396c-11 104 -96 179 -198 179z" />
    <glyph glyph-name="uni0496" unicode="&#x496;" horiz-adv-x="899" 
d="M22 0l210 369v2l-196 332h78l177 -305h101v305h69v-305h102l177 305h77l-196 -332v-2l175 -307h89v-202h-65v140h-67l-190 336h-102v-336h-69v336h-101l-190 -336h-79z" />
    <glyph glyph-name="uni049A" unicode="&#x49a;" horiz-adv-x="637" 
d="M101 0v703h69v-305h118l190 305h79l-211 -332v-2l187 -307h89v-202h-64v140h-68l-202 336h-118v-336h-69z" />
    <glyph glyph-name="uni04B2" unicode="&#x4b2;" horiz-adv-x="621" 
d="M19 0l224 367l-205 336h81l123 -208c21 -36 46 -81 46 -81h2s21 45 43 81l124 208h81l-206 -336l187 -305h89v-202h-64v140h-66l-147 243c-21 37 -44 78 -44 78h-2s-21 -42 -43 -79l-144 -242h-79z" />
    <glyph glyph-name="uni04F6" unicode="&#x4f6;" horiz-adv-x="488" 
d="M101 0v703h369v-62h-300v-579h91v-202h-64v140h-96z" />
    <glyph glyph-name="uni04A2" unicode="&#x4a2;" horiz-adv-x="775" 
d="M101 0v703h69v-320h407v320h70v-641h91v-202h-64v140h-97v321h-407v-321h-69z" />
    <glyph glyph-name="uni04AC" unicode="&#x4ac;" horiz-adv-x="608" 
d="M267 0l1 2v639h-252v62h574v-62h-253v-579h91v-202h-64v140h-97z" />
    <glyph glyph-name="uni04B6" unicode="&#x4b6;" horiz-adv-x="646" 
d="M265 277c-144 0 -209 73 -209 199v227h70v-213c0 -97 42 -149 149 -149c72 0 141 33 173 54v308h70v-641h91v-202h-64v140h-97v296c0 14 2 33 2 33h-2c-36 -20 -110 -52 -183 -52z" />
    <glyph glyph-name="uni04CB" unicode="&#x4cb;" horiz-adv-x="618" 
d="M265 277c-144 0 -209 73 -209 199v227h70v-213c0 -97 42 -149 149 -149c72 0 141 33 173 54v308h70v-703h-98v-140h-64v202h92v234c0 14 2 33 2 33h-2c-36 -20 -110 -52 -183 -52z" />
    <glyph glyph-name="uni0497" unicode="&#x497;" horiz-adv-x="756" 
d="M20 0l170 257v2l-154 244h74l136 -216h81v216h66v-216h81l136 216h75l-154 -244v-2l130 -197h76v-180h-65v120h-51l-147 227h-81v-227h-66v227h-80l-148 -227h-79z" />
    <glyph glyph-name="uni049B" unicode="&#x49b;" horiz-adv-x="528" 
d="M81 0v503h68v-213h80l151 213h80l-175 -239v-2l150 -202h74v-180h-64v120h-48l-167 230h-81v-230h-68z" />
    <glyph glyph-name="uni04B3" unicode="&#x4b3;" horiz-adv-x="512" 
d="M20 0l176 262l-162 241h80l108 -169c8 -13 17 -29 17 -29h2s9 16 17 29l108 169h79l-162 -241l136 -202h72v-180h-64v120h-47l-122 189c-9 13 -17 28 -17 28h-2s-8 -14 -17 -28l-123 -189h-79z" />
    <glyph glyph-name="uni04F7" unicode="&#x4f7;" horiz-adv-x="407" 
d="M81 0v503h300v-59h-232v-384h80v-180h-64v120h-84z" />
    <glyph glyph-name="uni04A3" unicode="&#x4a3;" horiz-adv-x="616" 
d="M81 0v503h68v-215h294v215h68v-443h79v-180h-64v120h-83v228h-294v-228h-68z" />
    <glyph glyph-name="uni04AD" unicode="&#x4ad;" horiz-adv-x="485" 
d="M206 0v443h-183v60h435v-60h-184v-383h80v-180h-64v120h-84z" />
    <glyph glyph-name="uni04B7" unicode="&#x4b7;" horiz-adv-x="530" 
d="M216 184c-117 0 -169 61 -169 159v160h67v-153c0 -53 16 -105 114 -105c56 0 103 24 125 41v217h68v-443h86v-180h-64v120h-90v191c0 15 2 32 2 32h-2c-34 -21 -92 -39 -137 -39z" />
    <glyph glyph-name="uni04CC" unicode="&#x4cc;" horiz-adv-x="508" 
d="M279 52h80v144c0 15 2 32 2 32h-2c-36 -22 -105 -40 -151 -40c-111 0 -161 62 -161 158v157h67v-150c0 -52 17 -105 108 -105c59 0 114 25 137 41v214h68v-503h-83v-120h-65v172z" />
    <glyph glyph-name="uni048A" unicode="&#x48a;" horiz-adv-x="778" 
d="M101 0v703h69v-506c0 -37 -6 -95 -6 -95h2s37 62 61 97l356 504h67v-641h99v-45l-66 -157h-55l46 140h-93v506c0 37 6 95 6 95h-2s-35 -60 -59 -95l-358 -506h-67zM379 736c-68 0 -132 43 -132 118v17h59v-15c0 -45 35 -69 73 -69c37 0 74 24 74 70v14h58v-17
c0 -75 -64 -118 -132 -118z" />
    <glyph glyph-name="uni04C5" unicode="&#x4c5;" horiz-adv-x="692" 
d="M11 57c132 18 167 205 167 504v142h386v-641h99v-45l-66 -157h-55l46 140h-94v641h-249v-81c0 -333 -42 -553 -234 -568v65z" />
    <glyph glyph-name="uni04C9" unicode="&#x4c9;" horiz-adv-x="775" 
d="M101 0v703h69v-320h407v320h70v-641h99v-45l-66 -157h-55l45 140h-93v321h-407v-321h-69z" />
    <glyph glyph-name="uni04CD" unicode="&#x4cd;" horiz-adv-x="872" 
d="M74 0l56 703h71l185 -413c16 -36 34 -86 34 -86h2s18 50 34 86l185 413h71l51 -641h98v-45l-65 -157h-55l45 140h-87l-39 492c-3 38 -2 98 -2 98h-2s-21 -62 -37 -98l-166 -361h-64l-165 361c-16 35 -38 100 -38 100h-2s1 -62 -2 -100l-39 -492h-69z" />
    <glyph glyph-name="uni048B" unicode="&#x48b;" horiz-adv-x="618" 
d="M81 0v503h66v-330c0 -31 -2 -73 -3 -75h2c2 4 32 47 52 75l247 330h65v-444h80v-43l-56 -136h-53l40 120h-78v331c0 29 3 69 3 73h-2c-1 -5 -32 -45 -51 -73l-247 -331h-65zM299 569c-68 0 -132 43 -132 118v17h59v-15c0 -45 35 -69 73 -69c37 0 74 24 74 70v14h58v-17
c0 -75 -64 -118 -132 -118z" />
    <glyph glyph-name="uni04C6" unicode="&#x4c6;" horiz-adv-x="556" 
d="M20 -4v61c84 13 120 108 120 294v152h308v-444h79v-43l-56 -136h-53l40 120h-78v444h-174v-93c0 -238 -57 -345 -186 -355z" />
    <glyph glyph-name="uni04CA" unicode="&#x4ca;" horiz-adv-x="618" 
d="M81 0v503h68v-215h294v215h68v-444h79v-43l-57 -136h-52l39 120h-77v228h-294v-228h-68z" />
    <glyph glyph-name="uni04CE" unicode="&#x4ce;" horiz-adv-x="745" 
d="M62 0l41 503h72l151 -310c14 -31 31 -71 31 -71h2s16 39 31 71l152 310h71l37 -444h79v-43l-56 -136h-53l39 120h-71l-25 325c-1 27 0 87 0 87h-2s-11 -32 -32 -73l-140 -281h-62l-139 279c-19 39 -33 75 -33 75h-2s2 -60 0 -87l-25 -325h-66z" />
    <glyph glyph-name="uni0498" unicode="&#x498;" horiz-adv-x="540" 
d="M32 79l41 50c38 -43 103 -77 171 -77c96 0 167 56 167 147c0 86 -66 135 -149 135h-89v60h71c78 0 144 52 144 130c0 68 -41 128 -141 128c-52 0 -109 -16 -162 -60l-32 54c73 60 148 69 201 69c127 0 205 -73 205 -184c0 -86 -54 -135 -105 -159v-2
c76 -21 129 -82 129 -173c0 -116 -85 -193 -199 -206v-131h-64v130c-71 6 -144 37 -188 89z" />
    <glyph glyph-name="uni04AA" unicode="&#x4aa;" horiz-adv-x="719" 
d="M55 356c0 204 147 359 353 359c89 0 187 -27 254 -91l-37 -51c-55 48 -139 77 -215 77c-171 0 -283 -128 -283 -293c0 -167 112 -304 286 -304c83 0 167 34 227 93l40 -49c-55 -54 -133 -101 -242 -108v-129h-65v130c-193 17 -318 173 -318 366z" />
    <glyph glyph-name="uni04BE" unicode="&#x4be;" horiz-adv-x="861" 
d="M44 509c0 26 2 57 7 80l9 42h66l-9 -42c-5 -25 -7 -45 -7 -75c0 -54 25 -100 83 -100h11c24 172 143 301 316 301c169 0 282 -118 282 -322c0 -17 -1 -37 -1 -37h-530c-2 -197 127 -303 265 -303c132 0 220 81 227 87l35 -56c-4 -3 -87 -88 -245 -95v-129h-64v131
c-170 19 -290 157 -290 357v8h-8c-92 0 -147 59 -147 153zM274 414h457c0 121 -64 238 -211 238c-139 0 -227 -110 -246 -238z" />
    <glyph glyph-name="uni0499" unicode="&#x499;" horiz-adv-x="441" 
d="M30 61l36 47c20 -21 67 -62 135 -62c61 0 121 31 121 98c0 57 -42 89 -122 89h-61v54h53c68 0 112 27 112 85c0 57 -42 85 -104 85c-49 0 -89 -18 -123 -45l-30 48c35 29 90 55 163 55c93 0 164 -45 164 -135c0 -63 -34 -98 -77 -115v-2c55 -14 95 -54 95 -121
c0 -87 -66 -138 -145 -150v-112h-63v109c-69 6 -121 39 -154 72z" />
    <glyph glyph-name="uni04AB" unicode="&#x4ab;" horiz-adv-x="544" 
d="M47 251c0 155 116 264 264 264c66 0 139 -23 184 -72l-35 -51c-35 36 -91 62 -147 62c-110 0 -196 -83 -196 -203c0 -118 86 -201 198 -201c58 0 121 25 161 69l31 -51c-40 -44 -105 -73 -173 -79v-109h-63v111c-129 17 -224 118 -224 260z" />
    <glyph glyph-name="uni04BF" unicode="&#x4bf;" horiz-adv-x="666" 
d="M39 382c0 22 7 57 13 77h60c-8 -21 -13 -52 -13 -72c0 -59 21 -84 62 -84h3c21 133 123 212 244 212c139 0 211 -107 211 -232c0 -13 -3 -34 -3 -34h-386c3 -128 92 -199 196 -199c91 0 152 60 152 60l31 -52s-69 -66 -177 -70v-108h-64v113c-121 23 -207 121 -208 256
h-4c-77 0 -117 43 -117 133zM233 303h316c-4 105 -68 155 -143 155c-84 0 -157 -55 -173 -155z" />
    <glyph glyph-name="uni040F" unicode="&#x40f;" horiz-adv-x="723" 
d="M101 0v703h69v-641h383v641h70v-703h-229v-140h-65v140h-228z" />
    <glyph glyph-name="uni045F" unicode="&#x45f;" horiz-adv-x="562" 
d="M81 0v503h68v-443h263v443h68v-503h-167v-120h-64v120h-168z" />
    <glyph glyph-name="uni040E" unicode="&#x40e;" horiz-adv-x="587" 
d="M83 31l33 53c17 -12 48 -34 82 -34c46 0 66 37 88 95l-279 558h77l193 -392c21 -43 40 -92 40 -92h2s16 49 31 91l146 393h74l-230 -592c-26 -66 -67 -123 -141 -123c-43 0 -82 19 -116 43zM292 736c-68 0 -132 43 -132 118v17h59v-15c0 -45 35 -69 73 -69
c37 0 74 24 74 70v14h58v-17c0 -75 -64 -118 -132 -118z" />
    <glyph glyph-name="uni04C1" unicode="&#x4c1;" horiz-adv-x="854" 
d="M22 0l210 369v2l-196 332h78l177 -305h101v305h69v-305h102l177 305h77l-196 -332v-2l211 -369h-79l-190 336h-102v-336h-69v336h-101l-190 -336h-79zM427 736c-68 0 -132 43 -132 118v17h59v-15c0 -45 35 -69 73 -69c37 0 74 24 74 70v14h58v-17
c0 -75 -64 -118 -132 -118z" />
    <glyph glyph-name="uni04D0" unicode="&#x4d0;" horiz-adv-x="632" 
d="M21 0l258 703h74l258 -703h-73l-81 224h-283l-80 -224h-73zM195 284h241l-92 255c-12 33 -27 92 -27 92h-2s-15 -59 -27 -92zM315 736c-68 0 -132 43 -132 118v17h59v-15c0 -45 35 -69 73 -69c37 0 74 24 74 70v14h58v-17c0 -75 -64 -118 -132 -118z" />
    <glyph glyph-name="uni04D6" unicode="&#x4d6;" horiz-adv-x="560" 
d="M101 0v703h395v-62h-326v-256h267v-62h-267v-261h345v-62h-414zM303 736c-68 0 -132 43 -132 118v17h59v-15c0 -45 35 -69 73 -69c37 0 74 24 74 70v14h58v-17c0 -75 -64 -118 -132 -118z" />
    <glyph glyph-name="uni045E" unicode="&#x45e;" horiz-adv-x="526" 
d="M45 -126c0 0 28 -23 60 -23c44 0 76 36 96 82l30 72l-209 498h75l147 -367c10 -25 19 -53 19 -53h2s7 28 17 53l145 367h73l-248 -608c-26 -64 -77 -105 -144 -105c-52 0 -89 30 -89 30zM263 569c-68 0 -132 43 -132 118v17h59v-15c0 -45 35 -69 73 -69c37 0 74 24 74 70
v14h58v-17c0 -75 -64 -118 -132 -118z" />
    <glyph glyph-name="uni04C2" unicode="&#x4c2;" horiz-adv-x="721" 
d="M20 0l170 257v2l-154 244h74l136 -216h81v216h66v-216h81l136 216h75l-154 -244v-2l170 -257h-80l-147 227h-81v-227h-66v227h-80l-148 -227h-79zM360 569c-68 0 -132 43 -132 118v17h59v-15c0 -45 35 -69 73 -69c37 0 74 24 74 70v14h58v-17c0 -75 -64 -118 -132 -118z
" />
    <glyph glyph-name="uni04D1" unicode="&#x4d1;" horiz-adv-x="518" 
d="M37 135c0 165 210 175 306 175h30v14c0 97 -53 130 -124 130c-51 0 -102 -18 -143 -48l-31 52c40 34 111 57 178 57c121 0 188 -67 188 -193v-322h-65v59c0 25 3 42 3 42h-2c-26 -61 -89 -113 -170 -113c-85 0 -170 50 -170 147zM106 141c0 -47 38 -96 113 -96
c97 0 154 100 154 188v23h-29c-78 0 -238 -3 -238 -115zM265 569c-68 0 -132 43 -132 118v17h59v-15c0 -45 35 -69 73 -69c37 0 74 24 74 70v14h58v-17c0 -75 -64 -118 -132 -118z" />
    <glyph glyph-name="uni04D7" unicode="&#x4d7;" horiz-adv-x="553" 
d="M47 251c0 165 113 264 249 264c139 0 210 -107 210 -232c0 -11 -1 -23 -2 -34h-386c3 -128 91 -199 195 -199c55 0 112 23 153 60l31 -52c-47 -43 -120 -70 -186 -70c-150 0 -264 108 -264 263zM121 303h316c-4 105 -68 156 -143 156c-84 0 -157 -55 -173 -156zM290 569
c-68 0 -132 43 -132 118v17h59v-15c0 -45 35 -69 73 -69c37 0 74 24 74 70v14h58v-17c0 -75 -64 -118 -132 -118z" />
    <glyph glyph-name="uni0400" unicode="&#x400;" horiz-adv-x="560" 
d="M101 0v703h395v-62h-326v-256h267v-62h-267v-261h345v-62h-414zM294 752l-86 119h79l69 -119h-62z" />
    <glyph glyph-name="uni040D" unicode="&#x40d;" horiz-adv-x="751" 
d="M101 0v703h69v-506c0 -37 -6 -95 -6 -95h2s37 62 61 97l356 504h67v-703h-69v506c0 37 6 95 6 95h-2s-35 -60 -59 -95l-358 -506h-67zM352 752l-86 119h79l69 -119h-62z" />
    <glyph glyph-name="uni0450" unicode="&#x450;" horiz-adv-x="553" 
d="M47 251c0 165 113 264 249 264c139 0 210 -107 210 -232c0 -11 -1 -23 -2 -34h-386c3 -128 91 -199 195 -199c55 0 112 23 153 60l31 -52c-47 -43 -120 -70 -186 -70c-150 0 -264 108 -264 263zM121 303h316c-4 105 -68 156 -143 156c-84 0 -157 -55 -173 -156zM277 585
l-86 119h79l69 -119h-62z" />
    <glyph glyph-name="uni045D" unicode="&#x45d;" horiz-adv-x="591" 
d="M81 0v503h66v-330c0 -31 -2 -73 -3 -75h2c2 4 32 47 52 75l247 330h65v-503h-67v331c0 29 3 69 3 73h-2c-1 -5 -32 -45 -51 -73l-247 -331h-65zM288 585l-86 119h79l69 -119h-62z" />
    <glyph glyph-name="uni0403" unicode="&#x403;" horiz-adv-x="485" 
d="M241 752l69 119h79l-87 -119h-61zM101 0v703h369v-62h-300v-641h-69z" />
    <glyph glyph-name="uni040C" unicode="&#x40c;" horiz-adv-x="592" 
d="M273 752l69 119h79l-87 -119h-61zM101 0v703h69v-305h118l190 305h79l-211 -332v-2l225 -369h-81l-202 336h-118v-336h-69z" />
    <glyph glyph-name="uni04F2" unicode="&#x4f2;" horiz-adv-x="587" 
d="M83 31l33 53c17 -12 48 -34 82 -34c46 0 66 37 88 95l-279 558h77l193 -392c21 -43 40 -92 40 -92h2s16 49 31 91l146 393h74l-230 -592c-26 -66 -67 -123 -141 -123c-43 0 -82 19 -116 43zM328 752l70 119h77l-87 -119h-60zM194 752l65 119h68l-68 -119h-65z" />
    <glyph glyph-name="uni04E2" unicode="&#x4e2;" horiz-adv-x="751" 
d="M257 785v55h246v-55h-246zM101 0v703h69v-506c0 -37 -6 -95 -6 -95h2s37 62 61 97l356 504h67v-703h-69v506c0 37 6 95 6 95h-2s-35 -60 -59 -95l-358 -506h-67z" />
    <glyph glyph-name="uni04EE" unicode="&#x4ee;" horiz-adv-x="587" 
d="M171 785v55h246v-55h-246zM83 31l33 53c17 -12 48 -34 82 -34c46 0 66 37 88 95l-279 558h77l193 -392c21 -43 40 -92 40 -92h2s16 49 31 91l146 393h74l-230 -592c-26 -66 -67 -123 -141 -123c-43 0 -82 19 -116 43z" />
    <glyph glyph-name="uni0453" unicode="&#x453;" horiz-adv-x="404" 
d="M181 585l69 119h79l-87 -119h-61zM81 0v503h300v-59h-232v-444h-68z" />
    <glyph glyph-name="uni045C" unicode="&#x45c;" horiz-adv-x="495" 
d="M215 585l69 119h79l-87 -119h-61zM81 0v503h68v-213h80l151 213h80l-175 -239v-2l195 -262h-83l-167 230h-81v-230h-68z" />
    <glyph glyph-name="uni04F3" unicode="&#x4f3;" horiz-adv-x="526" 
d="M45 -126c0 0 28 -23 60 -23c44 0 76 36 96 82l30 72l-209 498h75l147 -367c10 -25 19 -53 19 -53h2s7 28 17 53l145 367h73l-248 -608c-26 -64 -77 -105 -144 -105c-52 0 -89 30 -89 30zM289 585l70 119h77l-87 -119h-60zM155 585l65 119h68l-68 -119h-65z" />
    <glyph glyph-name="uni04E3" unicode="&#x4e3;" horiz-adv-x="591" 
d="M81 0v503h66v-330c0 -31 -2 -73 -3 -75h2c2 4 32 47 52 75l247 330h65v-503h-67v331c0 29 3 69 3 73h-2c-1 -5 -32 -45 -51 -73l-247 -331h-65zM174 618v55h246v-55h-246z" />
    <glyph glyph-name="uni04EF" unicode="&#x4ef;" horiz-adv-x="526" 
d="M45 -126c0 0 28 -23 60 -23c44 0 76 36 96 82l30 72l-209 498h75l147 -367c10 -25 19 -53 19 -53h2s7 28 17 53l145 367h73l-248 -608c-26 -64 -77 -105 -144 -105c-52 0 -89 30 -89 30zM139 618v55h246v-55h-246z" />
    <glyph glyph-name="uni0405" unicode="&#x405;" horiz-adv-x="534" 
d="M47 78l41 53c44 -43 112 -77 182 -77c83 0 142 47 142 120c0 177 -350 135 -350 353c0 115 97 188 221 188c66 0 138 -23 186 -68l-34 -58c-38 36 -99 60 -155 60c-80 0 -147 -44 -147 -118c0 -169 350 -124 350 -350c0 -108 -79 -193 -215 -193c-81 0 -163 32 -221 90z
" />
    <glyph glyph-name="uni0406" unicode="&#x406;" horiz-adv-x="271" 
d="M101 0v703h69v-703h-69z" />
    <glyph glyph-name="uni0408" unicode="&#x408;" horiz-adv-x="520" 
d="M32 197v28h69v-26c0 -77 38 -146 127 -146c65 0 129 37 129 144v444h-172v62h241v-506c0 -152 -100 -209 -197 -209s-197 58 -197 209z" />
    <glyph glyph-name="uni04C0" unicode="&#x4c0;" horiz-adv-x="270" 
d="M101 0v703h68v-703h-68z" />
    <glyph glyph-name="uni04D4" unicode="&#x4d4;" horiz-adv-x="848" 
d="M16 0l289 703h481v-62h-327v-256h267v-62h-267v-261h345v-62h-414v324h-171l-130 -324h-73zM244 384h146v257h-41z" />
    <glyph glyph-name="uni0455" unicode="&#x455;" horiz-adv-x="438" 
d="M37 61l36 48c38 -39 97 -61 152 -61c56 0 101 28 101 81c0 112 -268 81 -268 246c0 92 79 140 171 140c55 0 114 -16 155 -55l-32 -51c-29 29 -81 46 -126 46c-53 0 -101 -23 -101 -78c0 -115 269 -81 269 -247c0 -83 -71 -142 -170 -142c-67 0 -139 23 -187 73z" />
    <glyph glyph-name="uni0456" unicode="&#x456;" horiz-adv-x="230" 
d="M78 618v85h74v-85h-74zM81 0v503h68v-503h-68z" />
    <glyph glyph-name="uni0458" unicode="&#x458;" horiz-adv-x="230" 
d="M78 618v85h74v-85h-74zM81 -16v519h68v-521c0 -168 -118 -188 -175 -188c-10 0 -19 1 -29 3v60c4 -1 12 -2 22 -2c38 0 114 14 114 129z" />
    <glyph glyph-name="uni04CF" unicode="&#x4cf;" horiz-adv-x="230" 
d="M81 0v703h68v-703h-68z" />
    <glyph glyph-name="uni04D5" unicode="&#x4d5;" horiz-adv-x="867" 
d="M38 137c0 164 190 169 302 169h33v18c0 97 -52 130 -128 130c-50 0 -99 -18 -139 -48l-32 51c41 36 111 58 175 58c100 0 149 -41 170 -104h2c41 69 108 104 190 104c135 0 209 -104 209 -229c0 -11 -2 -23 -3 -34h-378c3 -132 83 -202 188 -202c54 0 112 22 152 60
l31 -52c-44 -42 -119 -70 -186 -70c-103 0 -184 53 -221 140h-2c-8 -26 -56 -140 -190 -140c-92 0 -173 52 -173 149zM443 306h307c-4 104 -71 151 -142 151c-84 0 -149 -51 -165 -151zM108 141c0 -49 38 -96 112 -96c97 0 154 101 154 189v18h-59c-85 0 -207 -9 -207 -111z
" />
    <glyph glyph-name="uni0474" unicode="&#x474;" horiz-adv-x="684" 
d="M279 0l-260 703h75l194 -534c12 -36 27 -90 27 -90h2s15 54 27 90l152 446c28 82 56 88 131 88h44v-63h-22c-50 0 -69 5 -92 -60l-204 -580h-74z" />
    <glyph glyph-name="uni0475" unicode="&#x475;" horiz-adv-x="551" 
d="M218 0l-193 503h72l140 -369c9 -25 17 -61 17 -61h2s9 36 18 61l96 280c22 67 53 89 122 89h38v-62h-21c-46 0 -62 -9 -80 -58l-136 -383h-75z" />
    <glyph glyph-name="uni04AF" unicode="&#x4af;" horiz-adv-x="511" 
d="M223 31l-199 472h72l139 -338c11 -27 19 -58 19 -58h2s9 31 19 58l140 338h71l-197 -472v-231h-66v231z" />
    <glyph glyph-name="uni04AE" unicode="&#x4ae;" horiz-adv-x="567" 
d="M249 0v302l-238 401h79l149 -255c21 -37 43 -84 43 -84h2s22 47 43 84l149 255h79l-237 -401v-302h-69z" />
    <glyph glyph-name="uni04B1" unicode="&#x4b1;" horiz-adv-x="510" 
d="M107 0v54h106l-187 449h72l137 -338c11 -27 19 -58 19 -58h2s9 31 19 58l138 338h72l-187 -449h106v-54h-115v-200h-66v200h-116z" />
    <glyph glyph-name="uni0492" unicode="&#x492;" horiz-adv-x="497" 
d="M106 0v319h-63v55h63v329h370v-62h-301v-267h162v-55h-162v-319h-69z" />
    <glyph glyph-name="uni04B0" unicode="&#x4b0;" horiz-adv-x="567" 
d="M120 250v55h127l-236 398h79l149 -255c21 -37 43 -84 43 -84h2s22 47 43 84l149 255h79l-235 -398h125v-55h-127v-250h-69v250h-129z" />
    <glyph glyph-name="uni048E" unicode="&#x48e;" horiz-adv-x="615" 
d="M101 0v703h243c125 0 217 -82 217 -212c0 -69 -25 -124 -67 -162l61 -84l-43 -33l-63 87c-31 -15 -67 -23 -105 -23h-174v-276h-69zM342 447l43 33l71 -99c24 26 37 63 37 108c0 97 -61 152 -156 152h-167v-307h167c28 0 54 5 76 15z" />
    <glyph glyph-name="uni049C" unicode="&#x49c;" horiz-adv-x="664" 
d="M101 0v703h69v-305h79v125h57v-125h54l190 305h79l-210 -332v-2l224 -369h-81l-202 336h-54v-125h-57v125h-79v-336h-69z" />
    <glyph glyph-name="uni049E" unicode="&#x49e;" horiz-adv-x="596" 
d="M11 529v55h94v119h69v-119h104v-55h-104v-131h118l190 305h79l-211 -332v-2l225 -369h-81l-202 336h-118v-336h-69v529h-94z" />
    <glyph glyph-name="uni04B8" unicode="&#x4b8;" horiz-adv-x="625" 
d="M265 169v110c-146 1 -211 74 -211 199v225h70v-213c0 -94 40 -146 141 -149v144h57v-140c56 9 106 33 132 50v308h70v-703h-70v297c0 14 2 33 2 33h-2c-27 -15 -77 -36 -132 -46v-115h-57z" />
    <glyph glyph-name="uni048F" unicode="&#x48f;" horiz-adv-x="598" 
d="M81 -200v703h65v-53c0 -22 -3 -39 -3 -39h2s42 104 175 104c136 0 219 -108 219 -263c0 -79 -23 -144 -62 -190l57 -67l-41 -36l-55 66c-35 -24 -77 -37 -124 -37c-121 0 -166 100 -166 100h-2s3 -18 3 -44v-244h-68zM326 160l41 35l67 -81c24 33 39 79 39 136
c0 124 -67 203 -161 203c-86 0 -165 -60 -165 -204c0 -102 57 -201 161 -201c32 0 63 9 88 27z" />
    <glyph glyph-name="uni049D" unicode="&#x49d;" horiz-adv-x="563" 
d="M81 0v503h68v-213h63v106h54v-106h31l151 213h80l-175 -239v-2l195 -262h-83l-167 230h-32v-108h-54v108h-63v-230h-68z" />
    <glyph glyph-name="uni049F" unicode="&#x49f;" horiz-adv-x="496" 
d="M81 0v529h-62v53h62v121h68v-121h126v-53h-126v-220h81l150 194h82l-175 -221v-2l193 -280h-82l-167 249h-82v-249h-68z" />
    <glyph glyph-name="uni04B9" unicode="&#x4b9;" horiz-adv-x="514" 
d="M219 104v80c-119 0 -172 62 -172 159v160h67v-153c0 -51 16 -100 105 -105v125h54v-122c40 8 74 25 92 38v217h68v-503h-68v193c0 16 2 32 2 32h-2c-23 -15 -58 -28 -92 -35v-86h-54z" />
    <glyph glyph-name="uni0493" unicode="&#x493;" horiz-adv-x="410" 
d="M83 0v220h-63v51h63v232h300v-59h-232v-173h132v-51h-132v-220h-68z" />
    <glyph glyph-name="uni04E1" unicode="&#x4e1;" horiz-adv-x="479" 
d="M40 -95c42 -33 107 -54 162 -54c104 0 173 60 173 147c0 74 -34 119 -126 131c-20 3 -49 3 -151 3v49l200 221c21 23 43 41 43 41v2s-27 -2 -61 -2h-251v60h397v-51l-214 -235c-12 -12 -28 -25 -28 -25v-2c52 -1 74 -2 95 -6c142 -22 165 -115 165 -181
c0 -128 -99 -213 -240 -213c-69 0 -138 23 -192 61z" />
    <glyph glyph-name="uni04E0" unicode="&#x4e0;" horiz-adv-x="521" 
d="M64 105c42 -33 107 -54 162 -54c104 0 173 60 173 147c0 74 -34 119 -126 131c-20 3 -49 3 -151 3v49l200 221c21 23 43 41 43 41v2s-27 -2 -61 -2h-251v60h397v-51l-214 -235c-12 -12 -28 -25 -28 -25v-2c52 -1 74 -2 95 -6c142 -22 165 -115 165 -181
c0 -128 -99 -213 -240 -213c-69 0 -138 23 -192 61z" />
    <glyph glyph-name="uni0490" unicode="&#x490;" horiz-adv-x="489" 
d="M101 0v703h312v88h62v-150h-305v-641h-69z" />
    <glyph glyph-name="uni0491" unicode="&#x491;" horiz-adv-x="399" 
d="M81 0v503h237v80h58v-139h-227v-444h-68z" />
    <glyph glyph-name="uni0524" unicode="&#x524;" horiz-adv-x="765" 
d="M101 0v703h536v-641h92v-202h-64v140h-97v641h-398v-641h-69z" />
    <glyph glyph-name="uni0525" unicode="&#x525;" horiz-adv-x="607" 
d="M81 0v503h421v-443h79v-180h-64v120h-83v443h-285v-443h-68z" />
    <glyph glyph-name="uni0404" unicode="&#x404;" horiz-adv-x="717" 
d="M55 356c0 203 148 359 353 359c168 0 254 -91 254 -91l-37 -51s-83 78 -215 78c-155 0 -271 -115 -281 -269h396v-60h-396c13 -153 126 -270 284 -270c142 0 229 93 229 93l38 -49s-95 -108 -269 -108c-208 0 -356 163 -356 368z" />
    <glyph glyph-name="uni0454" unicode="&#x454;" horiz-adv-x="542" 
d="M47 251c0 155 116 264 264 264c124 0 185 -71 185 -71l-35 -50s-56 61 -148 61c-102 0 -184 -66 -197 -172h259v-54h-259c8 -110 93 -182 198 -182s163 71 163 71l30 -52s-68 -78 -196 -78c-149 0 -264 107 -264 263z" />
    <glyph glyph-name="uni0462" unicode="&#x462;" horiz-adv-x="678" 
d="M198 0v540h-184v58h185v112h68v-112h204v-58h-204v-129h163c120 0 213 -75 213 -202c0 -129 -94 -209 -212 -209h-233zM267 62h154c87 0 150 53 150 147c0 89 -64 140 -150 140h-154v-287z" />
    <glyph glyph-name="uni04A8" unicode="&#x4a8;" horiz-adv-x="932" 
d="M56 361c0 212 146 327 267 354l16 -64c-101 -28 -212 -121 -212 -291c0 -166 99 -307 278 -307c46 0 92 9 136 25c-108 72 -176 187 -176 329c0 202 138 296 257 296c134 0 249 -95 249 -293c0 -133 -80 -253 -191 -331c42 -12 88 -19 139 -19h43v-60h-43
c-75 0 -144 14 -205 39c-66 -33 -138 -51 -209 -51c-207 0 -349 148 -349 373zM437 407c0 -126 61 -237 171 -297c110 64 191 175 191 300c0 166 -88 228 -177 228c-79 0 -185 -67 -185 -231z" />
    <glyph glyph-name="uni04BC" unicode="&#x4bc;" horiz-adv-x="860" 
d="M44 509c0 26 2 57 7 80l9 42h66l-9 -42c-5 -25 -7 -45 -7 -75c0 -54 25 -100 83 -100h11c24 172 143 301 316 301c169 0 282 -118 282 -322c0 -17 -1 -37 -1 -37h-530c-2 -197 127 -303 265 -303c132 0 220 81 227 87l35 -56c-4 -3 -94 -96 -267 -96
c-191 0 -332 144 -332 360v8h-8c-92 0 -147 59 -147 153zM274 414h457c0 121 -64 238 -211 238c-139 0 -227 -110 -246 -238z" />
    <glyph glyph-name="uni04D8" unicode="&#x4d8;" horiz-adv-x="720" 
d="M55 341c0 18 2 39 2 39h533c-3 159 -108 270 -255 270c-133 0 -218 -71 -225 -77l-37 51c4 4 96 91 268 91c189 0 322 -146 322 -360c0 -209 -118 -367 -314 -367c-173 0 -294 111 -294 353zM127 321c0 -169 69 -269 229 -269c135 0 232 105 232 269h-461z" />
    <glyph glyph-name="uni0494" unicode="&#x494;" horiz-adv-x="596" 
d="M101 0v703h370v-62h-301v-257c27 15 90 35 144 35c122 0 234 -51 234 -281c0 -226 -105 -312 -241 -312v59c84 0 170 50 170 253c0 162 -59 219 -172 219c-58 0 -108 -21 -135 -33v-324h-69z" />
    <glyph glyph-name="uni04A6" unicode="&#x4a6;" horiz-adv-x="994" 
d="M101 0v703h472v-309c27 15 90 35 144 35c122 0 234 -53 234 -291c0 -226 -103 -312 -241 -312v59c84 0 170 50 170 253c0 171 -58 231 -172 231c-58 0 -108 -22 -135 -34v-335h-69v642h-334v-642h-69z" />
    <glyph glyph-name="uni04C3" unicode="&#x4c3;" horiz-adv-x="615" 
d="M101 0v703h69v-305h118l190 305h79l-200 -320c169 -40 205 -175 205 -263c0 -191 -102 -294 -237 -294v60c79 0 166 55 166 231c0 160 -111 220 -248 220h-73v-337h-69z" />
    <glyph glyph-name="uni04C7" unicode="&#x4c7;" horiz-adv-x="747" 
d="M101 0v703h69v-320h407v320h70v-671c0 -183 -116 -208 -183 -206v60c41 0 113 17 113 144v291h-407v-321h-69z" />
    <glyph glyph-name="uni04A9" unicode="&#x4a9;" horiz-adv-x="768" 
d="M48 258c0 147 102 230 186 257l22 -58c-63 -22 -141 -87 -141 -200s64 -210 217 -210c36 0 73 6 109 18c-82 51 -139 133 -139 239c0 115 89 211 210 211c120 0 200 -83 200 -205c0 -95 -57 -181 -138 -241c29 -7 61 -11 94 -11h47v-58h-45c-55 0 -111 10 -162 30
c-55 -27 -117 -42 -177 -42c-192 0 -283 123 -283 270zM369 305c0 -94 56 -169 138 -211c79 45 138 120 138 213c0 96 -56 150 -134 150s-142 -63 -142 -152z" />
    <glyph glyph-name="uni04BD" unicode="&#x4bd;" horiz-adv-x="665" 
d="M39 382c0 22 7 57 13 77h60c-8 -21 -13 -52 -13 -72c0 -59 21 -84 62 -84h3c21 133 123 212 244 212c139 0 211 -107 211 -232c0 -13 -3 -34 -3 -34h-386c3 -128 92 -199 196 -199c91 0 152 60 152 60l31 -52s-73 -70 -186 -70c-150 0 -262 107 -263 261h-4
c-77 0 -117 43 -117 133zM233 303h316c-4 105 -68 155 -143 155c-84 0 -157 -55 -173 -155z" />
    <glyph glyph-name="uni04D9" unicode="&#x4d9;" horiz-adv-x="554" 
d="M47 233c0 14 2 36 2 36h387c-3 111 -82 186 -180 186c-101 0 -168 -60 -168 -60l-31 51c8 5 86 69 205 69c142 0 244 -107 244 -263c0 -172 -108 -264 -240 -264c-145 0 -219 102 -219 245zM118 215c4 -128 72 -170 150 -170c79 0 159 52 164 170h-314z" />
    <glyph glyph-name="uni04A7" unicode="&#x4a7;" horiz-adv-x="798" 
d="M81 0v503h368v-224c36 18 79 30 119 30c145 0 193 -114 193 -225c0 -150 -68 -238 -143 -290l-34 50c60 42 111 114 111 238c0 90 -34 166 -135 166c-51 0 -91 -19 -111 -31v-217h-68v443h-232v-443h-68z" />
    <glyph glyph-name="uni0433.BUL" horiz-adv-x="438" 
d="M43 116c0 165 272 153 272 269c0 51 -45 69 -95 69c-78 0 -125 -41 -131 -46l-32 52c11 8 69 55 163 55c92 0 162 -40 162 -126c0 -168 -272 -157 -272 -269c0 -49 47 -71 102 -71c88 0 145 55 151 60l36 -48c-11 -10 -75 -73 -188 -73c-100 0 -168 48 -168 128z" />
    <glyph glyph-name="uni0434.BUL" horiz-adv-x="582" 
d="M120 -114c39 -20 90 -34 137 -34c98 0 175 45 175 157v50c0 19 4 37 4 37h-2c-30 -57 -82 -93 -160 -93c-135 0 -224 107 -224 258s83 254 218 254c67 0 136 -26 167 -88h2s-2 6 -2 17v59h66v-491c0 -160 -118 -222 -242 -222c-57 0 -115 15 -164 41zM119 262
c0 -121 66 -198 165 -198c80 0 150 49 150 197c0 147 -70 193 -159 193c-98 0 -156 -72 -156 -192z" />
    <glyph glyph-name="uni0436.BUL" horiz-adv-x="721" 
d="M20 0l170 257v2l-154 244h74l136 -216h81v416h66v-416h81l136 216h75l-154 -244v-2l170 -257h-80l-147 227h-81v-227h-66v227h-80l-148 -227h-79z" />
    <glyph glyph-name="uni0438.BUL" horiz-adv-x="588" 
d="M75 183v320h69v-302c0 -79 12 -149 109 -149c115 0 186 101 186 210v241h68v-503h-67v79c0 22 4 40 4 40h-2c-19 -49 -87 -131 -198 -131c-119 0 -169 64 -169 195z" />
    <glyph glyph-name="uni0439.BUL" horiz-adv-x="588" 
d="M75 183v320h69v-302c0 -79 12 -149 109 -149c115 0 186 101 186 210v241h68v-503h-67v79c0 22 4 40 4 40h-2c-19 -49 -87 -131 -198 -131c-119 0 -169 64 -169 195zM290 569c-68 0 -132 43 -132 118v17h59v-15c0 -45 35 -69 73 -69c37 0 74 24 74 70v14h58v-17
c0 -75 -64 -118 -132 -118z" />
    <glyph glyph-name="uni043A.BUL" horiz-adv-x="496" 
d="M81 0v703h68v-392h81l150 192h82l-175 -219v-2l193 -282h-82l-167 251h-82v-251h-68z" />
    <glyph glyph-name="uni043B.BUL" horiz-adv-x="510" 
d="M25 0l193 503h74l191 -503h-71l-139 369c-10 26 -18 60 -18 60h-2s-8 -35 -17 -60l-139 -369h-72z" />
    <glyph glyph-name="uni043F.BUL" horiz-adv-x="594" 
d="M81 0v503h67v-79c0 -22 -4 -40 -4 -40h2c19 46 85 131 203 131c125 0 169 -71 169 -195v-320h-68v302c0 79 -13 149 -110 149c-107 0 -191 -88 -191 -205v-246h-68z" />
    <glyph glyph-name="uni0442.BUL" horiz-adv-x="916" 
d="M81 0v503h67v-79c0 -22 -4 -40 -4 -40h2c25 68 106 131 185 131c93 0 141 -44 155 -126h2c28 64 101 126 185 126c122 0 167 -71 167 -195v-320h-68v303c0 83 -17 149 -108 149c-101 0 -169 -105 -169 -209v-243h-68v303c0 76 -11 149 -106 149
c-102 0 -172 -107 -172 -209v-243h-68z" />
    <glyph glyph-name="uni0446.BUL" horiz-adv-x="611" 
d="M75 183v320h69v-302c0 -79 12 -149 109 -149c115 0 186 101 186 210v241h68v-443h78v-180h-64v120h-81v79c0 22 4 40 4 40h-2c-19 -49 -87 -131 -198 -131c-119 0 -169 64 -169 195z" />
    <glyph glyph-name="uni0448.BUL" horiz-adv-x="915" 
d="M834 502v-503h-67v79c0 22 4 40 4 40h-2c-25 -68 -106 -131 -185 -131c-93 0 -141 44 -155 126h-2c-28 -64 -101 -126 -185 -126c-122 0 -167 71 -167 195v320h68v-303c0 -83 17 -149 108 -149c101 0 169 105 169 209v243h68v-303c0 -76 11 -149 106 -149
c102 0 172 107 172 209v243h68z" />
    <glyph glyph-name="uni0449.BUL" horiz-adv-x="936" 
d="M834 502v-442h76v-180h-64v120h-12v-1h-67v79c0 22 4 40 4 40h-2c-25 -68 -106 -131 -185 -131c-93 0 -141 44 -155 126h-2c-28 -64 -101 -126 -185 -126c-122 0 -167 71 -167 195v320h68v-303c0 -83 17 -149 108 -149c101 0 169 105 169 209v243h68v-303
c0 -76 11 -149 106 -149c102 0 172 107 172 209v243h68z" />
    <glyph glyph-name="uni044A.BUL" horiz-adv-x="568" 
d="M141 179v265h-112v59h180v-145c0 -18 -1 -44 -2 -51h2c26 36 80 64 144 64c99 0 178 -62 178 -192c0 -103 -70 -191 -198 -191c-136 0 -192 90 -192 191zM209 177c0 -74 45 -132 124 -132c75 0 127 51 127 133c0 99 -55 134 -118 134c-82 0 -133 -53 -133 -135z" />
    <glyph glyph-name="uni044C.BUL" horiz-adv-x="502" 
d="M75 179v324h69v-145c0 -18 -1 -44 -2 -51h2c26 36 80 64 143 64c99 0 178 -62 178 -192c0 -103 -70 -191 -198 -191c-136 0 -192 90 -192 191zM143 177c0 -74 45 -132 124 -132c75 0 128 51 128 133c0 99 -55 134 -119 134c-82 0 -133 -53 -133 -135z" />
    <glyph glyph-name="uni044E.BUL" horiz-adv-x="805" 
d="M81 0v703h68v-422h100c13 135 121 234 253 234c142 0 257 -112 257 -261c0 -152 -115 -266 -256 -266c-132 0 -239 99 -253 234h-101v-222h-68zM317 254c0 -118 83 -204 186 -204c102 0 185 86 185 204c0 114 -83 200 -185 200c-103 0 -186 -86 -186 -200z" />
    <glyph glyph-name="uni0432.BUL" horiz-adv-x="582" 
d="M73 239v195c0 153 81 281 238 281c91 0 165 -53 165 -131c0 -71 -48 -123 -131 -161v-2c76 -4 190 -55 190 -192s-91 -241 -237 -241c-138 0 -225 93 -225 251zM139 345h2c16 31 52 58 83 73l71 35c82 42 114 75 114 127s-55 79 -104 79c-118 0 -166 -101 -166 -212v-102
zM140 220c0 -113 71 -172 157 -172c91 0 168 60 168 178c0 109 -88 148 -162 148s-163 -48 -163 -154z" />
    <glyph glyph-name="uni0437.BUL" horiz-adv-x="437" 
d="M46 -109c34 -24 70 -40 119 -40c99 0 162 64 162 153c0 93 -66 144 -174 144h-51v57h52c80 0 147 49 147 132c0 73 -50 118 -120 118c-47 0 -92 -21 -124 -51l-33 47c35 32 91 64 166 64c118 0 180 -78 182 -163c1 -76 -42 -139 -107 -169v-2c93 -29 132 -97 132 -178
c0 -117 -86 -213 -225 -213c-57 0 -115 17 -156 45z" />
    <glyph glyph-name="currency" unicode="&#xa4;" horiz-adv-x="597" 
d="M129 0v180h-72v55h72v75h-72v59h72v334h214c129 0 216 -75 216 -198c0 -122 -93 -195 -218 -195h-143v-75h253v-55h-253v-180h-69zM198 369h136c94 0 153 53 153 139s-59 136 -153 136h-136v-275z" />
    <glyph glyph-name="numero" unicode="&#x2116;" horiz-adv-x="1036" 
d="M94 0v703h68l359 -506c24 -35 57 -95 57 -95h2s-5 58 -5 95v506h69v-703h-67l-359 506c-24 35 -58 95 -58 95h-2s6 -58 6 -95v-506h-70zM720 475c0 74 59 131 132 131c74 0 132 -57 132 -131c0 -75 -58 -133 -132 -133c-73 0 -132 58 -132 133zM776 475
c0 -45 34 -80 76 -80c43 0 76 35 76 80c0 44 -33 77 -76 77c-42 0 -76 -33 -76 -77zM729 221v53h245v-53h-245z" />
    <glyph glyph-name="uni0414.ALT" horiz-adv-x="702" 
d="M16 62h72l226 641h73l226 -641h73v-202h-65v140h-540v-140h-65v202zM161 62h379l-163 468c-11 33 -25 90 -25 90h-2s-15 -57 -26 -90z" />
    <glyph glyph-name="uni041B.ALT" horiz-adv-x="620" 
d="M22 0l252 703h73l252 -703h-74l-188 530c-12 33 -26 90 -26 90h-2s-14 -57 -25 -90l-188 -530h-74z" />
    <glyph glyph-name="uni0434.ALT" horiz-adv-x="582" 
d="M24 58h56l173 445h76l171 -445h58v-178h-64v120h-406v-120h-64v178zM150 58h281l-121 315c-9 26 -18 60 -18 60h-2s-9 -35 -18 -60z" />
    <glyph glyph-name="uni043B.ALT" horiz-adv-x="510" 
d="M25 0l193 503h74l191 -503h-71l-139 369c-10 26 -18 60 -18 60h-2s-8 -35 -17 -60l-139 -369h-72z" />
    <glyph glyph-name="uni0409.ALT" horiz-adv-x="859" 
d="M18 0l293 703h155v-300h143c126 0 216 -75 216 -202c0 -125 -94 -201 -211 -201h-217v641h-38l-267 -641h-74zM466 62h138c87 0 150 49 150 139c0 88 -64 140 -151 140h-137v-279z" />
    <glyph glyph-name="uni0459.ALT" horiz-adv-x="711" 
d="M24 0l215 503h154v-195h108c90 0 176 -38 176 -156c0 -90 -57 -152 -178 -152h-174v447h-42l-190 -447h-69zM393 54h102c81 0 114 40 114 98c0 61 -34 102 -113 102h-103v-200z" />
    <glyph glyph-name="uni04C5.ALT" horiz-adv-x="680" 
d="M22 0l252 703h73l230 -641h99v-45l-65 -157h-55l45 140h-76l-188 530c-12 33 -26 90 -26 90h-2s-14 -57 -25 -90l-188 -530h-74z" />
    <glyph glyph-name="uni04C6.ALT" horiz-adv-x="560" 
d="M412 0l-139 369c-10 26 -18 60 -18 60h-2s-8 -35 -17 -60l-139 -369h-72l193 503h74l168 -444h93v-43l-57 -136h-52l39 120h-71z" />
    </font>
</defs>
</svg>
